<?xml version="1.0" encoding="UTF-8"?>
<svg width="400px" height="400px" viewBox="0 0 400 400" version="1.1" xmlns="http://www.w3.org/2000/svg" xmlns:xlink="http://www.w3.org/1999/xlink">
    <!-- Generator: Sketch 55.2 (78181) - https://sketchapp.com -->
    <title>fb--whiteonblack</title>
    <desc>Created with Sketch.</desc>
    <g id="fb--whiteonblack" stroke="none" stroke-width="1" fill="none" fill-rule="evenodd">
        <circle id="Oval" fill="rgba(0,0,0,0.6)" cx="200" cy="200" r="200"></circle>
        <g id="Reddit_Mark_OnDark" transform="translate(-75.000000, 12.000000)" fill="#FFFFFF" fill-rule="nonzero">
            <g id="Artwork" transform="translate(156.000000, 82.000000)">
                <g id="Group">
                    <path d="M238,107.877953 C238,93.480315 226.288225,81.7952756 211.857645,81.7952756 C204.746924,81.7952756 198.472759,84.507874 193.871705,89.0984252 C176.094903,76.3700787 151.41652,68.023622 124.228471,66.980315 L136.149385,11.2677165 L174.84007,19.4055118 C175.258348,29.2125984 183.414763,37.1417323 193.453427,37.1417323 C203.70123,37.1417323 212.066784,28.7952756 212.066784,18.5708661 C212.066784,8.34645669 203.70123,0 193.453427,0 C186.133568,0 179.859402,4.17322835 176.931459,10.4330709 L133.639719,1.2519685 C132.384886,1.04330709 131.130053,1.2519685 130.084359,1.87795276 C129.038664,2.50393701 128.411248,3.54724409 127.99297,4.7992126 L114.817223,66.980315 C87.0017575,67.8149606 62.1142355,75.9527559 44.1282953,89.0984252 C39.5272408,84.7165354 33.0439367,81.7952756 26.142355,81.7952756 C11.711775,81.7952756 0,93.480315 0,107.877953 C0,118.519685 6.2741652,127.492126 15.4762742,131.665354 C15.0579965,134.169291 14.8488576,136.88189 14.8488576,139.594488 C14.8488576,179.65748 61.486819,212 119.209139,212 C176.931459,212 223.56942,179.65748 223.56942,139.594488 C223.56942,136.88189 223.360281,134.377953 222.942004,131.874016 C231.516696,127.700787 238,118.519685 238,107.877953 Z M59,126 C59,115.539326 67.5393258,107 78,107 C88.4606742,107 97,115.539326 97,126 C97,136.460674 88.4606742,145 78,145 C67.5393258,145 59,136.460674 59,126 Z M162.533324,174.727924 C149.795055,188.121718 125.571462,189 118.471443,189 C111.371425,189 86.9390073,187.902148 74.4095625,174.727924 C72.5301458,172.75179 72.5301458,169.458234 74.4095625,167.4821 C76.2889793,165.505967 79.4213405,165.505967 81.3007572,167.4821 C89.2360722,175.825776 106.359647,178.899761 118.680268,178.899761 C131.000888,178.899761 147.915639,175.825776 156.059778,167.4821 C157.939195,165.505967 161.071556,165.505967 162.950972,167.4821 C164.412741,169.677804 164.412741,172.75179 162.533324,174.727924 Z M159,145 C148.539326,145 140,136.460674 140,126 C140,115.539326 148.539326,107 159,107 C169.460674,107 178,115.539326 178,126 C178,136.460674 169.460674,145 159,145 Z" id="Shape"></path>
                </g>
            </g>
        </g>
    </g>
</svg>
