<?xml version="1.0" encoding="UTF-8"?>
<svg width="400px" height="400px" viewBox="0 0 400 400" version="1.1" xmlns="http://www.w3.org/2000/svg" xmlns:xlink="http://www.w3.org/1999/xlink">
    <!-- Generator: Sketch 55.2 (78181) - https://sketchapp.com -->
    <title>twitter--whiteonblack</title>
    <desc>Created with Sketch.</desc>
    <g id="twitter--whiteonblack" stroke="none" stroke-width="1" fill="none" fill-rule="evenodd">
        <circle id="Oval" fill="rgba(0,0,0,0.6)" cx="200" cy="200" r="200"></circle>
        <g id="Logo__x2014__FIXED" transform="translate(102.000000, 121.000000)" fill="#FFFFFF" fill-rule="nonzero">
            <path d="M61.5686275,159 C135.529412,159 176,97.8100394 176,44.836122 C176,43.1146654 176,41.3932087 175.921569,39.671752 C183.764706,34.0378937 190.588235,26.9173228 196,18.8577756 C188.784314,22.0659449 181.019608,24.1786417 172.862745,25.1958661 C181.176471,20.2662402 187.529412,12.363189 190.588235,2.9734252 C182.823529,7.59005906 174.196078,10.8764764 165.019608,12.6761811 C157.647059,4.85137795 147.215686,0 135.686275,0 C113.490196,0 95.4509804,17.9970472 95.4509804,40.1412402 C95.4509804,43.2711614 95.8431373,46.3228346 96.4705882,49.2962598 C63.0588235,47.6530512 33.4117647,31.6122047 13.5686275,7.35531496 C10.1176471,13.3021654 8.15686275,20.1879921 8.15686275,27.5433071 C8.15686275,41.4714567 15.2941176,53.7563976 26.0392157,60.9552165 C19.4509804,60.7204724 13.254902,58.9207677 7.84313725,55.9473425 C7.84313725,56.1038386 7.84313725,56.2603346 7.84313725,56.4950787 C7.84313725,75.9005906 21.7254902,92.1761811 40.0784314,95.8538386 C36.7058824,96.792815 33.1764706,97.2623031 29.4901961,97.2623031 C26.9019608,97.2623031 24.3921569,97.0275591 21.9607843,96.5580709 C27.0588235,112.520669 41.9607843,124.101378 59.5294118,124.41437 C45.7254902,135.212598 28.3921569,141.628937 9.56862745,141.628937 C6.35294118,141.628937 3.1372549,141.472441 0,141.081201 C17.7254902,152.348917 38.9019608,159 61.5686275,159" id="Path"></path>
        </g>
    </g>
</svg>
