<?xml version="1.0" encoding="UTF-8"?>
<svg width="100px" height="100px" viewBox="0 0 100 100" version="1.1" xmlns="http://www.w3.org/2000/svg" xmlns:xlink="http://www.w3.org/1999/xlink">
    <!-- Generator: Sketch 56.3 (81716) - https://sketch.com -->
    <title>shelf_icon</title>
    <desc>Created with Sketch.</desc>
    <g id="shelf_icon" stroke="none" stroke-width="1" fill="none" fill-rule="evenodd">
        <g id="living-room-books-group" transform="translate(1.000000, 8.000000)" fill="#FFFFFF" fill-rule="nonzero">
            <path d="M0,0.573 L17.5,0.573 L17.5,9.323 L0,9.323 L0,0.573 Z M0,12.823 L17.5,12.823 L17.5,72.324 L0,72.324 L0,12.823 Z M3.208,61.312 C3.208,64.333 5.655,66.782 8.677,66.782 C11.698,66.782 14.146,64.335 14.146,61.312 C14.146,58.289 11.698,55.842 8.677,55.842 C5.655,55.843 3.208,58.293 3.208,61.312 Z M0,82.824 L17.5,82.824 L17.5,75.824 L0,75.824 L0,82.824 Z M21,74.6 L21,75.8249995 L21,82.8249995 L43.75,82.8249995 L43.75,74.557 C42.821,73.893 39.935,72.3249995 33.25,72.3249995 C26.913,72.324 22.866,73.744 21,74.6 Z M21,24.257 C22.866,25.111 26.913,26.533 33.25,26.533 C39.893,26.532 42.786,24.983 43.75,24.288 L43.75,18.073 L21,18.073 L21,24.257 Z M21,28.046 L21,70.81 C23.534,69.862 27.592,68.825 33.25,68.825 C38.355,68.825 41.667,69.679 43.75,70.592 L43.75,28.268 C41.667,29.178 38.355,30.033 33.25,30.033 C27.592,30.031 23.534,28.994 21,28.046 Z M80.859,0.18 L68.859,2.642 L70.619,11.213 L82.619,8.751 L80.859,0.18 Z M95.279,70.469 L83.281,72.932 L71.32,14.643 L83.32,12.181 L95.279,70.469 Z M91.116,60.08 C90.509,57.123 88.144,55.109 85.841,55.582 C83.534,56.057 82.153,58.84 82.764,61.797 C83.37,64.754 85.733,66.77 88.038,66.295 C90.346,65.822 91.725,63.041 91.116,60.08 Z M95.984,73.893 L83.982,76.357 L85.39,83.211 L97.39,80.748 L95.984,73.893 Z M49,9.323 L66.5,9.323 L66.5,0.573 L49,0.573 L49,9.323 Z M49,82.824 L66.5,82.824 L66.5,75.824 L49,75.824 L49,82.824 Z M49,63.574 L66.5,63.574 L66.5,21.573 L49,21.573 L49,63.574 Z M49,72.324 L66.5,72.324 L66.5,67.074 L49,67.074 L49,72.324 Z M49,18.073 L66.5,18.073 L66.5,12.823 L49,12.823 L49,18.073 Z" id="Shape"></path>
        </g>
    </g>
</svg>