<?xml version="1.0" encoding="UTF-8"?>
<svg width="400px" height="400px" viewBox="0 0 400 400" version="1.1" xmlns="http://www.w3.org/2000/svg" xmlns:xlink="http://www.w3.org/1999/xlink">
    <!-- Generator: Sketch 55.2 (78181) - https://sketchapp.com -->
    <title>email--whiteonblack</title>
    <desc>Created with Sketch.</desc>
    <g id="email--whiteonblack" stroke="none" stroke-width="1" fill="none" fill-rule="evenodd">
        <circle id="Oval" fill="rgba(0,0,0,0.6)" cx="200" cy="200" r="200"></circle>
        <g id="mail-black-envelope-symbol" transform="translate(96.000000, 122.000000)" fill="#FFFFFF" fill-rule="nonzero">
            <path d="M209,129.999286 C209,134.559152 207.711225,138.786364 205.646686,142.505589 L139.656819,69.0255889 L204.931226,12.1895094 C207.470441,16.1998087 209,20.9105708 209,26.0011431 L209,129.999286 Z M104.500215,82.3673896 L195.327437,3.27597085 C191.60024,1.24531475 187.403105,0 182.875592,0 L26.1248385,0 C21.5917261,0 17.393299,1.24531475 13.6811779,3.27597085 L104.500215,82.3673896 Z M129.822154,77.5824659 L108.798143,95.9016675 C107.56838,96.9677941 106.037097,97.5002143 104.500215,97.5002143 C102.962472,97.5002143 101.43119,96.9677941 100.201426,95.9016675 L79.1726775,77.5816085 L12.3480362,152.000846 C16.3534916,154.501764 21.0477009,156 26.1244077,156 L182.875592,156 C187.951438,156 192.647801,154.501764 196.651964,152.000846 L129.822154,77.5824659 Z M4.06963568,12.1890808 C1.53085153,16.1993801 0,20.9101421 0,26.0011431 L0,129.999714 C0,134.559581 1.28274503,138.786792 3.35503729,142.506018 L69.3371502,69.0131572 L4.06963568,12.1890808 Z" id="Shape"></path>
        </g>
    </g>
</svg>
