<?xml version="1.0" encoding="UTF-8"?>
<svg width="512px" height="512px" viewBox="0 0 512 512" version="1.1" xmlns="http://www.w3.org/2000/svg" xmlns:xlink="http://www.w3.org/1999/xlink">
    <!-- Generator: Sketch 55.2 (78181) - https://sketchapp.com -->
    <title>Artboard</title>
    <desc>Created with Sketch.</desc>
    <g id="Artboard" stroke="none" stroke-width="1" fill="none" fill-rule="evenodd">
        <circle id="Oval" fill="#8E99F3" cx="256" cy="256" r="256"></circle>
        <g id="Group" transform="translate(51.000000, -49.000000)">
            <path d="M209.25,489 C173.91649,489 142.000142,481.250077 113.5,465.75 C84.9998575,450.249923 62.6667475,428.83347 46.5,401.5 C30.3332525,374.16653 22.25,343.333505 22.25,309 C22.25,274.666495 30.416585,243.83347 46.75,216.5 C63.083415,189.16653 85.4998575,167.750077 114,152.25 C142.500142,136.749923 174.41649,129 209.75,129 C238.41681,129 264.583215,133.99995 288.25,144 C311.916785,154.00005 331.916585,168.499905 348.25,187.5 L306.25,227 C280.91654,199.66653 249.750185,186 212.75,186 C188.74988,186 167.250095,191.249948 148.25,201.75 C129.249905,212.250052 114.41672,226.83324 103.75,245.5 C93.08328,264.16676 87.75,285.333215 87.75,309 C87.75,332.666785 93.08328,353.83324 103.75,372.5 C114.41672,391.16676 129.249905,405.749948 148.25,416.25 C167.250095,426.750052 188.74988,432 212.75,432 C249.750185,432 280.91654,418.166805 306.25,390.5 L348.25,430.5 C331.916585,449.500095 311.833453,463.99995 288,474 C264.166547,484.00005 237.91681,489 209.25,489 Z" id="C" fill="#FFFFFF" fill-rule="nonzero"></path>
            <circle id="Oval" fill="#5C6BC0" cx="319.5" cy="305.5" r="44.5"></circle>
        </g>
    </g>
</svg>