<?xml version="1.0" encoding="UTF-8"?>
<svg width="1440px" height="249px" viewBox="0 0 1440 249" version="1.1" xmlns="http://www.w3.org/2000/svg" xmlns:xlink="http://www.w3.org/1999/xlink">
    <!-- Generator: Sketch 55.2 (78181) - https://sketchapp.com -->
    <title>landingpage_scene</title>
    <desc>Created with Sketch.</desc>
    <defs>
        <path d="M0,111.220544 C60.6345559,90.3411385 103.280705,75.3200263 127.938447,66.157207 C214.776965,33.8880058 276.060642,-19.0488251 301.091362,7.59838107 C357.765572,67.9326165 648.024592,86.157207 761.72127,0 C842.916487,50.7201158 904.754062,68.6187329 1033.26491,84.7395182 C1039.28392,85.4945605 1045.47559,86.2018295 1051.85123,86.8604051 C1080.22338,89.7911231 1112.23881,91.7575516 1148.89441,92.6785963 C1182.32407,93.5185826 1301.97289,4.82883729 1314.80052,18.222375 C1338.12964,42.5807058 1407.33685,73.5800954 1522.42213,111.220544 L1547.5138,331.77566 L0,331.77566 L0,111.220544 Z" id="path-1"></path>
        <filter x="-0.6%" y="-3.0%" width="101.3%" height="106.0%" filterUnits="objectBoundingBox" id="filter-3">
            <feGaussianBlur stdDeviation="5" in="SourceAlpha" result="shadowBlurInner1"></feGaussianBlur>
            <feOffset dx="0" dy="10" in="shadowBlurInner1" result="shadowOffsetInner1"></feOffset>
            <feComposite in="shadowOffsetInner1" in2="SourceAlpha" operator="arithmetic" k2="-1" k3="1" result="shadowInnerInner1"></feComposite>
            <feColorMatrix values="0 0 0 0 0.360784314   0 0 0 0 0.419607843   0 0 0 0 0.752941176  0 0 0 0.469296329 0" type="matrix" in="shadowInnerInner1"></feColorMatrix>
        </filter>
        <path d="M-66,549.049104 C52.4693664,572.231074 186.611687,560.655392 336.426963,514.322058 C561.149876,444.822058 738.677777,581.369266 1030.7138,588.797525 C1225.40448,593.749697 1383.6474,553.202924 1505.44254,467.157207 L1505.44254,824.864994 L-66,824.864994 L-66,549.049104 Z" id="path-4"></path>
        <filter x="-0.6%" y="-2.8%" width="101.3%" height="105.6%" filterUnits="objectBoundingBox" id="filter-5">
            <feGaussianBlur stdDeviation="5" in="SourceAlpha" result="shadowBlurInner1"></feGaussianBlur>
            <feOffset dx="0" dy="10" in="shadowBlurInner1" result="shadowOffsetInner1"></feOffset>
            <feComposite in="shadowOffsetInner1" in2="SourceAlpha" operator="arithmetic" k2="-1" k3="1" result="shadowInnerInner1"></feComposite>
            <feColorMatrix values="0 0 0 0 0.360784314   0 0 0 0 0.419607843   0 0 0 0 0.752941176  0 0 0 0.188401442 0" type="matrix" in="shadowInnerInner1"></feColorMatrix>
        </filter>
    </defs>
    <g id="Desktop" stroke="none" stroke-width="1" fill="none" fill-rule="evenodd">
        <g id="landingpage_scene" transform="translate(0.000000, -401.000000)">
            <g id="Group" transform="translate(-42.000000, 400.379311)">
                <g id="Path-3" transform="translate(0.000000, 0.620689)">
                    <mask id="mask-2" fill="white">
                        <use xlink:href="#path-1"></use>
                    </mask>
                    <g id="Mask">
                        <use fill="#26418F" fill-rule="evenodd" xlink:href="#path-1"></use>
                        <use fill="black" fill-opacity="1" filter="url(#filter-3)" xlink:href="#path-1"></use>
                    </g>
                    <path d="M295.913229,-4.76124567 C285.466547,10.8209982 281.253543,22.6727627 283.274217,30.7940478 C286.305228,42.9759756 339.626901,61.6922501 384.799247,60.3189656 C414.914143,59.4034426 444.566158,55.6872964 473.755291,49.1705269 L295.913229,-4.76124567 Z" fill-opacity="0.8" fill="#5C6BC0" mask="url(#mask-2)"></path>
                    <path d="M755.629719,-6.62671639 C802.551439,41.6096638 830.826978,70.6049195 840.456335,80.3590508 C854.900371,94.9902477 888.037575,121.67751 931.891043,123.784591 C961.126689,125.189312 996.362973,110.714132 1037.5999,80.3590508 L755.629719,-6.62671639 Z" id="Path-4" fill-opacity="0.8" fill="#5C6BC0" mask="url(#mask-2)"></path>
                    <path d="M1331.25151,7.16306979 C1293.83517,25.3716914 1275.12699,47.8867643 1275.12699,74.7082887 C1275.12699,101.529813 1318.77819,123.445683 1406.08057,140.4559 L1516.80063,97.6763546 L1331.25151,7.16306979 Z" id="Path-5" fill-opacity="0.8" fill="#5C6BC0" mask="url(#mask-2)"></path>
                </g>
            </g>
            <g id="Path-2">
                <use fill="#142E76" fill-rule="evenodd" xlink:href="#path-4"></use>
                <use fill="black" fill-opacity="1" filter="url(#filter-5)" xlink:href="#path-4"></use>
            </g>
            <g id="noun_Camel_18386-(3)" transform="translate(130.500000, 542.500000) rotate(-7.000000) translate(-130.500000, -542.500000) translate(106.000000, 526.000000)" fill="#5263B7" fill-rule="nonzero">
                <path d="M5.90619802,11.8411233 L6.05416832,16.5840822 L7.21124752,23.4141781 L9.93729703,32.8526301 L13.5603861,32.8526301 C13.5603861,32.8526301 13.7195149,31.2830959 11.4533861,31.2830959 L10.512198,24.824589 L12.6764455,16.5004521 L22.2925743,16.5004521 L18.335703,23.4146301 L16.2801287,32.8535342 L20.2680495,32.8535342 C20.2680495,32.8535342 20.5402178,31.284 18.2988317,31.284 L21.3484752,24.8250411 L27.1649208,16.7956438 L29.7371782,23.4146301 L33.0614158,32.8535342 L36.5219802,32.8535342 C36.5219802,32.8535342 36.8761386,31.284 34.1966634,31.284 L32.6073168,24.824589 L31.196505,16.5004521 C31.196505,16.5004521 41.587901,16.7658082 44.0320792,5.15523288 L46.9240495,5.15523288 C46.9240495,5.15523288 48.5430178,5.12132877 48.5430178,3.57078082 C48.5430178,3.5689726 48.5701584,2.00938356 46.9240495,2.00938356 L44.0320792,2.00938356 L43.1549307,1.57767123 L41.7009406,1.57767123 C41.7009406,1.57767123 41.6150693,0.696616438 40.7146337,0.696616438 C39.8680495,0.696616438 39.765198,1.4470274 39.765198,1.75623288 L39.765198,2.94016438 C39.765198,9.84756164 33.761,9.29063014 33.761,9.29063014 C29.7517327,9.29063014 27.5855446,5.14528767 27.5855446,5.14528767 C24.9744752,0.126123288 19.5461485,0.315534247 19.5461485,0.315534247 C13.8388614,0.315534247 12.129198,5.14528767 10.4772673,5.14528767 C10.4772673,5.14528767 7.24520792,5.0960137 5.53942574,9.39189041 L1.80911881,18.6603699 L2.78960396,18.6680548 L5.90619802,11.8411233 Z" id="Path"></path>
                <path d="M5.49333663,17.4673973 L6.14683168,21.2479315 L3.37469307,24.824589 L1.95611881,31.2830959 C1.95611881,31.2830959 3.98743564,31.1244247 3.98743564,32.8526301 L0.0281386139,32.8526301 L0.808257426,23.4141781 L5.49333663,17.4673973 Z" id="Path"></path>
            </g>
            <g id="noun_Camel_18386-(3)" transform="translate(201.500000, 532.500000) rotate(-10.000000) translate(-201.500000, -532.500000) translate(177.000000, 516.000000)" fill="#5263B7" fill-rule="nonzero">
                <path d="M5.90619802,11.8411233 L6.05416832,16.5840822 L7.21124752,23.4141781 L9.93729703,32.8526301 L13.5603861,32.8526301 C13.5603861,32.8526301 13.7195149,31.2830959 11.4533861,31.2830959 L10.512198,24.824589 L12.6764455,16.5004521 L22.2925743,16.5004521 L18.335703,23.4146301 L16.2801287,32.8535342 L20.2680495,32.8535342 C20.2680495,32.8535342 20.5402178,31.284 18.2988317,31.284 L21.3484752,24.8250411 L27.1649208,16.7956438 L29.7371782,23.4146301 L33.0614158,32.8535342 L36.5219802,32.8535342 C36.5219802,32.8535342 36.8761386,31.284 34.1966634,31.284 L32.6073168,24.824589 L31.196505,16.5004521 C31.196505,16.5004521 41.587901,16.7658082 44.0320792,5.15523288 L46.9240495,5.15523288 C46.9240495,5.15523288 48.5430178,5.12132877 48.5430178,3.57078082 C48.5430178,3.5689726 48.5701584,2.00938356 46.9240495,2.00938356 L44.0320792,2.00938356 L43.1549307,1.57767123 L41.7009406,1.57767123 C41.7009406,1.57767123 41.6150693,0.696616438 40.7146337,0.696616438 C39.8680495,0.696616438 39.765198,1.4470274 39.765198,1.75623288 L39.765198,2.94016438 C39.765198,9.84756164 33.761,9.29063014 33.761,9.29063014 C29.7517327,9.29063014 27.5855446,5.14528767 27.5855446,5.14528767 C24.9744752,0.126123288 19.5461485,0.315534247 19.5461485,0.315534247 C13.8388614,0.315534247 12.129198,5.14528767 10.4772673,5.14528767 C10.4772673,5.14528767 7.24520792,5.0960137 5.53942574,9.39189041 L1.80911881,18.6603699 L2.78960396,18.6680548 L5.90619802,11.8411233 Z" id="Path"></path>
                <path d="M5.49333663,17.4673973 L6.14683168,21.2479315 L3.37469307,24.824589 L1.95611881,31.2830959 C1.95611881,31.2830959 3.98743564,31.1244247 3.98743564,32.8526301 L0.0281386139,32.8526301 L0.808257426,23.4141781 L5.49333663,17.4673973 Z" id="Path"></path>
            </g>
            <g id="noun_Camel_18386-(3)" transform="translate(1055.000000, 556.000000)" fill="#5263B7" fill-rule="nonzero">
                <path d="M5.90619802,11.8411233 L6.05416832,16.5840822 L7.21124752,23.4141781 L9.93729703,32.8526301 L13.5603861,32.8526301 C13.5603861,32.8526301 13.7195149,31.2830959 11.4533861,31.2830959 L10.512198,24.824589 L12.6764455,16.5004521 L22.2925743,16.5004521 L18.335703,23.4146301 L16.2801287,32.8535342 L20.2680495,32.8535342 C20.2680495,32.8535342 20.5402178,31.284 18.2988317,31.284 L21.3484752,24.8250411 L27.1649208,16.7956438 L29.7371782,23.4146301 L33.0614158,32.8535342 L36.5219802,32.8535342 C36.5219802,32.8535342 36.8761386,31.284 34.1966634,31.284 L32.6073168,24.824589 L31.196505,16.5004521 C31.196505,16.5004521 41.587901,16.7658082 44.0320792,5.15523288 L46.9240495,5.15523288 C46.9240495,5.15523288 48.5430178,5.12132877 48.5430178,3.57078082 C48.5430178,3.5689726 48.5701584,2.00938356 46.9240495,2.00938356 L44.0320792,2.00938356 L43.1549307,1.57767123 L41.7009406,1.57767123 C41.7009406,1.57767123 41.6150693,0.696616438 40.7146337,0.696616438 C39.8680495,0.696616438 39.765198,1.4470274 39.765198,1.75623288 L39.765198,2.94016438 C39.765198,9.84756164 33.761,9.29063014 33.761,9.29063014 C29.7517327,9.29063014 27.5855446,5.14528767 27.5855446,5.14528767 C24.9744752,0.126123288 19.5461485,0.315534247 19.5461485,0.315534247 C13.8388614,0.315534247 12.129198,5.14528767 10.4772673,5.14528767 C10.4772673,5.14528767 7.24520792,5.0960137 5.53942574,9.39189041 L1.80911881,18.6603699 L2.78960396,18.6680548 L5.90619802,11.8411233 Z" id="Path"></path>
                <path d="M5.49333663,17.4673973 L6.14683168,21.2479315 L3.37469307,24.824589 L1.95611881,31.2830959 C1.95611881,31.2830959 3.98743564,31.1244247 3.98743564,32.8526301 L0.0281386139,32.8526301 L0.808257426,23.4141781 L5.49333663,17.4673973 Z" id="Path"></path>
            </g>
            <g id="noun_Camel_18386-(3)" transform="translate(1140.500000, 570.500000) rotate(-4.000000) translate(-1140.500000, -570.500000) translate(1116.000000, 554.000000)" fill="#5263B7" fill-rule="nonzero">
                <path d="M5.90619802,11.8411233 L6.05416832,16.5840822 L7.21124752,23.4141781 L9.93729703,32.8526301 L13.5603861,32.8526301 C13.5603861,32.8526301 13.7195149,31.2830959 11.4533861,31.2830959 L10.512198,24.824589 L12.6764455,16.5004521 L22.2925743,16.5004521 L18.335703,23.4146301 L16.2801287,32.8535342 L20.2680495,32.8535342 C20.2680495,32.8535342 20.5402178,31.284 18.2988317,31.284 L21.3484752,24.8250411 L27.1649208,16.7956438 L29.7371782,23.4146301 L33.0614158,32.8535342 L36.5219802,32.8535342 C36.5219802,32.8535342 36.8761386,31.284 34.1966634,31.284 L32.6073168,24.824589 L31.196505,16.5004521 C31.196505,16.5004521 41.587901,16.7658082 44.0320792,5.15523288 L46.9240495,5.15523288 C46.9240495,5.15523288 48.5430178,5.12132877 48.5430178,3.57078082 C48.5430178,3.5689726 48.5701584,2.00938356 46.9240495,2.00938356 L44.0320792,2.00938356 L43.1549307,1.57767123 L41.7009406,1.57767123 C41.7009406,1.57767123 41.6150693,0.696616438 40.7146337,0.696616438 C39.8680495,0.696616438 39.765198,1.4470274 39.765198,1.75623288 L39.765198,2.94016438 C39.765198,9.84756164 33.761,9.29063014 33.761,9.29063014 C29.7517327,9.29063014 27.5855446,5.14528767 27.5855446,5.14528767 C24.9744752,0.126123288 19.5461485,0.315534247 19.5461485,0.315534247 C13.8388614,0.315534247 12.129198,5.14528767 10.4772673,5.14528767 C10.4772673,5.14528767 7.24520792,5.0960137 5.53942574,9.39189041 L1.80911881,18.6603699 L2.78960396,18.6680548 L5.90619802,11.8411233 Z" id="Path"></path>
                <path d="M5.49333663,17.4673973 L6.14683168,21.2479315 L3.37469307,24.824589 L1.95611881,31.2830959 C1.95611881,31.2830959 3.98743564,31.1244247 3.98743564,32.8526301 L0.0281386139,32.8526301 L0.808257426,23.4141781 L5.49333663,17.4673973 Z" id="Path"></path>
            </g>
            <g id="noun_Camel_18386-(3)" transform="translate(1198.500000, 564.500000) rotate(-8.000000) translate(-1198.500000, -564.500000) translate(1174.000000, 548.000000)" fill="#5263B7" fill-rule="nonzero">
                <path d="M5.90619802,11.8411233 L6.05416832,16.5840822 L7.21124752,23.4141781 L9.93729703,32.8526301 L13.5603861,32.8526301 C13.5603861,32.8526301 13.7195149,31.2830959 11.4533861,31.2830959 L10.512198,24.824589 L12.6764455,16.5004521 L22.2925743,16.5004521 L18.335703,23.4146301 L16.2801287,32.8535342 L20.2680495,32.8535342 C20.2680495,32.8535342 20.5402178,31.284 18.2988317,31.284 L21.3484752,24.8250411 L27.1649208,16.7956438 L29.7371782,23.4146301 L33.0614158,32.8535342 L36.5219802,32.8535342 C36.5219802,32.8535342 36.8761386,31.284 34.1966634,31.284 L32.6073168,24.824589 L31.196505,16.5004521 C31.196505,16.5004521 41.587901,16.7658082 44.0320792,5.15523288 L46.9240495,5.15523288 C46.9240495,5.15523288 48.5430178,5.12132877 48.5430178,3.57078082 C48.5430178,3.5689726 48.5701584,2.00938356 46.9240495,2.00938356 L44.0320792,2.00938356 L43.1549307,1.57767123 L41.7009406,1.57767123 C41.7009406,1.57767123 41.6150693,0.696616438 40.7146337,0.696616438 C39.8680495,0.696616438 39.765198,1.4470274 39.765198,1.75623288 L39.765198,2.94016438 C39.765198,9.84756164 33.761,9.29063014 33.761,9.29063014 C29.7517327,9.29063014 27.5855446,5.14528767 27.5855446,5.14528767 C24.9744752,0.126123288 19.5461485,0.315534247 19.5461485,0.315534247 C13.8388614,0.315534247 12.129198,5.14528767 10.4772673,5.14528767 C10.4772673,5.14528767 7.24520792,5.0960137 5.53942574,9.39189041 L1.80911881,18.6603699 L2.78960396,18.6680548 L5.90619802,11.8411233 Z" id="Path"></path>
                <path d="M5.49333663,17.4673973 L6.14683168,21.2479315 L3.37469307,24.824589 L1.95611881,31.2830959 C1.95611881,31.2830959 3.98743564,31.1244247 3.98743564,32.8526301 L0.0281386139,32.8526301 L0.808257426,23.4141781 L5.49333663,17.4673973 Z" id="Path"></path>
            </g>
        </g>
    </g>
</svg>