<?xml version="1.0" encoding="UTF-8"?>
<svg width="158px" height="27px" viewBox="0 0 158 27" version="1.1" xmlns="http://www.w3.org/2000/svg" xmlns:xlink="http://www.w3.org/1999/xlink">
    <title>Caravan.</title>
    <desc>Caravan Logo</desc>
    <g id="Icon-/-Web-Header" stroke="none" stroke-width="1" fill="none" fill-rule="evenodd">
        <g id="Caravan." transform="translate(0.754000, 0.440000)" fill-rule="nonzero">
            <path d="M13.464,25.92 C10.9199873,25.92 8.62201026,25.3620056 6.57,24.246 C4.51798974,23.1299944 2.91000582,21.5880098 1.746,19.62 C0.58199418,17.6519902 1.98951966e-13,15.4320124 1.98951966e-13,12.96 C1.98951966e-13,10.4879876 0.58799412,8.26800984 1.764,6.3 C2.94000588,4.33199016 4.55398974,2.79000558 6.606,1.674 C8.65801026,0.55799442 10.9559873,7.10542736e-15 13.5,7.10542736e-15 C15.5640103,7.10542736e-15 17.4479915,0.3599964 19.152,1.08 C20.8560085,1.8000036 22.2959941,2.84399316 23.472,4.212 L20.448,7.056 C18.6239909,5.08799016 16.3800133,4.104 13.716,4.104 C11.9879914,4.104 10.4400068,4.48199622 9.072,5.238 C7.70399316,5.99400378 6.63600384,7.04399328 5.868,8.388 C5.09999616,9.73200672 4.716,11.2559915 4.716,12.96 C4.716,14.6640085 5.09999616,16.1879933 5.868,17.532 C6.63600384,18.8760067 7.70399316,19.9259962 9.072,20.682 C10.4400068,21.4380038 11.9879914,21.816 13.716,21.816 C16.3800133,21.816 18.6239909,20.82001 20.448,18.828 L23.472,21.708 C22.2959941,23.0760068 20.8500086,24.1199964 19.134,24.84 C17.4179914,25.5600036 15.5280103,25.92 13.464,25.92 Z M34.704,6.12 C37.5360142,6.12 39.7019925,6.79799322 41.202,8.154 C42.7020075,9.51000678 43.452,11.5559863 43.452,14.292 L43.452,25.56 L39.204,25.56 L39.204,23.22 C38.6519972,24.0600042 37.8660051,24.7019978 36.846,25.146 C35.8259949,25.5900022 34.5960072,25.812 33.156,25.812 C31.7159928,25.812 30.4560054,25.5660025 29.376,25.074 C28.2959946,24.5819975 27.4620029,23.8980044 26.874,23.022 C26.2859971,22.1459956 25.992,21.1560055 25.992,20.052 C25.992,18.3239914 26.6339936,16.9380052 27.918,15.894 C29.2020064,14.8499948 31.2239862,14.328 33.984,14.328 L38.952,14.328 L38.952,14.04 C38.952,12.6959933 38.550004,11.6640036 37.746,10.944 C36.941996,10.2239964 35.7480079,9.864 34.164,9.864 C33.0839946,9.864 32.0220052,10.0319983 30.978,10.368 C29.9339948,10.7040017 29.0520036,11.171997 28.332,11.772 L26.568,8.496 C27.576005,7.72799616 28.7879929,7.14000204 30.204,6.732 C31.6200071,6.32399796 33.1199921,6.12 34.704,6.12 Z M34.092,22.536 C35.2200056,22.536 36.2219956,22.2780026 37.098,21.762 C37.9740044,21.2459974 38.5919982,20.5080048 38.952,19.548 L38.952,17.316 L34.308,17.316 C31.715987,17.316 30.42,18.1679915 30.42,19.872 C30.42,20.6880041 30.7439968,21.3359976 31.392,21.816 C32.0400032,22.2960024 32.9399942,22.536 34.092,22.536 Z M53.496,9.144 C54.7920065,7.12798992 57.0719837,6.12 60.336,6.12 L60.336,10.404 C59.9519981,10.3319996 59.6040016,10.296 59.292,10.296 C57.5399912,10.296 56.1720049,10.8059949 55.188,11.826 C54.2039951,12.8460051 53.712,14.3159904 53.712,16.236 L53.712,25.56 L49.212,25.56 L49.212,6.336 L53.496,6.336 L53.496,9.144 Z M71.388,6.12 C74.2200142,6.12 76.3859925,6.79799322 77.886,8.154 C79.3860075,9.51000678 80.136,11.5559863 80.136,14.292 L80.136,25.56 L75.888,25.56 L75.888,23.22 C75.3359972,24.0600042 74.5500051,24.7019978 73.53,25.146 C72.5099949,25.5900022 71.2800072,25.812 69.84,25.812 C68.3999928,25.812 67.1400054,25.5660025 66.06,25.074 C64.9799946,24.5819975 64.1460029,23.8980044 63.558,23.022 C62.9699971,22.1459956 62.676,21.1560055 62.676,20.052 C62.676,18.3239914 63.3179936,16.9380052 64.602,15.894 C65.8860064,14.8499948 67.9079862,14.328 70.668,14.328 L75.636,14.328 L75.636,14.04 C75.636,12.6959933 75.234004,11.6640036 74.43,10.944 C73.625996,10.2239964 72.4320079,9.864 70.848,9.864 C69.7679946,9.864 68.7060052,10.0319983 67.662,10.368 C66.6179948,10.7040017 65.7360036,11.171997 65.016,11.772 L63.252,8.496 C64.260005,7.72799616 65.4719929,7.14000204 66.888,6.732 C68.3040071,6.32399796 69.8039921,6.12 71.388,6.12 Z M70.776,22.536 C71.9040056,22.536 72.9059956,22.2780026 73.782,21.762 C74.6580044,21.2459974 75.2759982,20.5080048 75.636,19.548 L75.636,17.316 L70.992,17.316 C68.399987,17.316 67.104,18.1679915 67.104,19.872 C67.104,20.6880041 67.4279968,21.3359976 68.076,21.816 C68.7240032,22.2960024 69.6239942,22.536 70.776,22.536 Z M103.536,6.336 L95.292,25.56 L90.648,25.56 L82.404,6.336 L87.084,6.336 L93.06,20.592 L99.216,6.336 L103.536,6.336 Z M113.076,6.12 C115.908014,6.12 118.073993,6.79799322 119.574,8.154 C121.074008,9.51000678 121.824,11.5559863 121.824,14.292 L121.824,25.56 L117.576,25.56 L117.576,23.22 C117.023997,24.0600042 116.238005,24.7019978 115.218,25.146 C114.197995,25.5900022 112.968007,25.812 111.528,25.812 C110.087993,25.812 108.828005,25.5660025 107.748,25.074 C106.667995,24.5819975 105.834003,23.8980044 105.246,23.022 C104.657997,22.1459956 104.364,21.1560055 104.364,20.052 C104.364,18.3239914 105.005994,16.9380052 106.29,15.894 C107.574006,14.8499948 109.595986,14.328 112.356,14.328 L117.324,14.328 L117.324,14.04 C117.324,12.6959933 116.922004,11.6640036 116.118,10.944 C115.313996,10.2239964 114.120008,9.864 112.536,9.864 C111.455995,9.864 110.394005,10.0319983 109.35,10.368 C108.305995,10.7040017 107.424004,11.171997 106.704,11.772 L104.94,8.496 C105.948005,7.72799616 107.159993,7.14000204 108.576,6.732 C109.992007,6.32399796 111.491992,6.12 113.076,6.12 Z M112.464,22.536 C113.592006,22.536 114.593996,22.2780026 115.47,21.762 C116.346004,21.2459974 116.963998,20.5080048 117.324,19.548 L117.324,17.316 L112.68,17.316 C110.087987,17.316 108.792,18.1679915 108.792,19.872 C108.792,20.6880041 109.115997,21.3359976 109.764,21.816 C110.412003,22.2960024 111.311994,22.536 112.464,22.536 Z M138.492,6.12 C140.916012,6.12 142.859993,6.82799292 144.324,8.244 C145.788007,9.66000708 146.52,11.7599861 146.52,14.544 L146.52,25.56 L142.02,25.56 L142.02,15.12 C142.02,13.4399916 141.624004,12.1740043 140.832,11.322 C140.039996,10.4699957 138.912007,10.044 137.448,10.044 C135.791992,10.044 134.484005,10.541995 133.524,11.538 C132.563995,12.534005 132.084,13.9679906 132.084,15.84 L132.084,25.56 L127.584,25.56 L127.584,6.336 L131.868,6.336 L131.868,8.82 C132.612004,7.93199556 133.547994,7.26000228 134.676,6.804 C135.804006,6.34799772 137.075993,6.12 138.492,6.12 Z" id="Caravan" fill="#4A4A4A"></path>
            <path d="M153.684,25.812 C152.867996,25.812 152.172003,25.5300028 151.596,24.966 C151.019997,24.4019972 150.732,23.6880043 150.732,22.824 C150.732,21.9359956 151.013997,21.2160028 151.578,20.664 C152.142003,20.1119972 152.843996,19.836 153.684,19.836 C154.524004,19.836 155.225997,20.1119972 155.79,20.664 C156.354003,21.2160028 156.636,21.9359956 156.636,22.824 C156.636,23.6880043 156.348003,24.4019972 155.772,24.966 C155.195997,25.5300028 154.500004,25.812 153.684,25.812 Z" id="." fill="#5C6BC0"></path>
        </g>
    </g>
</svg>
