<?xml version="1.0" encoding="UTF-8"?>
<svg width="1440px" height="289px" viewBox="0 0 1440 289" version="1.1" xmlns="http://www.w3.org/2000/svg" xmlns:xlink="http://www.w3.org/1999/xlink">
    <!-- Generator: Sketch 55.2 (78181) - https://sketchapp.com -->
    <title>Banner / Nature / Waterfall</title>
    <desc>Created with Sketch.</desc>
    <defs>
        <linearGradient x1="50%" y1="50%" x2="50%" y2="0%" id="linearGradient-1">
            <stop stop-color="#F1FBFF" offset="0%"></stop>
            <stop stop-color="#BAEAFF" offset="100%"></stop>
        </linearGradient>
        <radialGradient cx="50%" cy="50%" fx="50%" fy="50%" r="116.816784%" id="radialGradient-2">
            <stop stop-color="#FFF8D5" stop-opacity="0.354212194" offset="0%"></stop>
            <stop stop-color="#FFEEAB" stop-opacity="0" offset="100%"></stop>
        </radialGradient>
        <path d="M8,51.9227057 C76.0075685,17.6771785 126.890189,3.11103162 160.647863,8.22426519 C171.706078,9.89923959 254.961896,30.9313451 284.5,34.0773655 C405.785189,46.9951099 513.502593,23.7425318 565.695629,23.7425318 C588.389311,23.7425318 627.824101,36.4091985 684,61.7425318 C717.522208,63.3762266 764.522208,63.3762266 825,61.7425318 C834.364856,61.4895577 906.88531,33.1240367 926.580545,27.7942401 C946.275779,22.4644435 1074.15145,4.64538555 1110.55742,1.3670211 C1190.86777,-5.86494033 1263.32094,35.3846133 1308.79251,35.3846133 C1371.79399,35.3846133 1441.20588,41.2395942 1517.02818,52.9495559 L1516.30203,244.974136 L0,244.974136 C5.33333333,116.273182 8,51.9227057 8,51.9227057 Z" id="path-3"></path>
        <path d="M0,0.657382306 C44.9517129,0.657382306 81.6294214,2.9148088 110.033125,7.4296618 C152.638681,14.2019413 192.685145,34.2823735 227.69676,39.0069402 C262.708375,43.731507 339.649477,29.0773142 382.906775,39.0069402 C426.164072,48.9365662 468.130006,64.263137 478.356029,86.4777214 C485.173378,101.287444 501.388035,119.013998 527,139.657382 L0,139.657382 C0,46.9907156 0,0.657382306 0,0.657382306 Z" id="path-5"></path>
        <path d="M575.419455,0.816309571 C461.837384,3.95426021 388.256596,11.9406444 354.677091,24.7754622 C313.342366,40.5744939 278.794418,17.4399518 223.667752,36.6644764 C179.519369,52.0605041 132.403956,92.994448 116.647397,105.12415 C81.2161281,132.39982 60.4938826,143.544585 60.4938826,143.544585 L0,183.81631 L574.953055,183.81631" id="path-7"></path>
    </defs>
    <g id="Banner-/-Nature-/-Waterfall" stroke="none" stroke-width="1" fill="none" fill-rule="evenodd">
        <rect id="Rectangle" fill="url(#linearGradient-1)" x="0" y="0" width="1440" height="289"></rect>
        <g id="Group" transform="translate(668.000000, 54.000000)">
            <circle id="Oval" fill="url(#radialGradient-2)" cx="52.5" cy="52.5" r="52.5"></circle>
            <circle id="Oval" fill="#FFEEAB" cx="52.5" cy="55.5" r="49.5"></circle>
        </g>
        <path d="M639.870058,91 L801.129942,91 L828,117.870058 L828,134 C828,138.418278 824.418278,142 820,142 L814.97842,142 C800.045601,122.095937 762.926623,108 719.5,108 C676.073378,108 638.954399,122.095937 624.02158,141.999999 L621,142 C616.581722,142 613,138.418278 613,134 L613,117.870058 L639.870058,91 Z" id="Combined-Shape" fill="#5F514C"></path>
        <g id="Path-39" transform="translate(-34.000000, 67.257468)">
            <mask id="mask-4" fill="white">
                <use xlink:href="#path-3"></use>
            </mask>
            <use id="Mask" fill="#43A047" xlink:href="#path-3"></use>
            <path d="M919,23.7425318 C1020.71358,20.4660843 1086.99106,20.4660843 1117.83245,23.7425318 C1171.41936,29.4353594 1192.61049,39.30209 1215.2135,44.1922588 C1257.3299,53.3041561 1287.80532,46.4875804 1306.63975,23.7425318 L1143.46989,-18 L919,23.7425318 Z" fill="#5EC263" mask="url(#mask-4)"></path>
            <path d="M474,32.5587048 C528.102848,33.312838 567.146394,35.3461881 591.130636,38.6587551 C615.114879,41.9713221 647.755527,49.8385847 689.052581,62.2605427 L596.109737,12.7762196 L474,32.5587048 Z" id="Path-42" fill="#5EC263" mask="url(#mask-4)"></path>
            <path d="M71,-4.25143373 C95.5991547,6.84272453 114.401006,13.3783683 127.405553,15.3554975 C172.211035,22.1674397 197.224821,35.6498865 200.271713,36.468712 C206.550698,38.1561335 199.05532,31.8649566 186.352531,22.1674397 C177.884005,15.7024284 169.41548,9.23741718 160.946954,2.77240592 L169.465337,-18.2574682 L71,-4.25143373 Z" id="Path-44" fill="#5EC263" mask="url(#mask-4)"></path>
        </g>
        <path d="M-26,170.223783 C91.4825896,187.586164 166.991837,195.171792 200.527742,192.980669 C250.831599,189.693984 273.488935,192.980669 313,192.980669 C352.511065,192.980669 444.028459,192.980669 480.909107,192.980669 C517.789756,192.980669 857.413508,206.793834 882.666637,206.793834 C907.919767,206.793834 977.24024,196.264421 1054.80965,194.007665 C1138.9526,201.769428 1203.52006,201.427096 1248.51204,192.980669 C1293.50401,184.534242 1357.25673,187.187319 1439.7702,200.939899 L1439.7702,372.589388 L-26,384.223783 C-26,241.557116 -26,170.223783 -26,170.223783 Z" id="Path-41" fill="#8D6E63"></path>
        <path d="M-34,206.874545 L115.596844,194.668679 C208.76576,208.222893 275.87498,213 316.924506,209 C385.102783,202.356486 446.733504,194.867419 472.953572,206.874545 C543.74234,239.291304 827.645568,211.30736 883.084594,232.405967 C898.610269,238.314623 913.872587,234.247042 928.826888,232.405967 C967.271353,227.67294 1005.15354,214.938569 1045.50939,199.890184 C1082.87849,185.955535 1187.4431,180.69585 1359.20322,184.11113 L1493.49604,232.405967 L1493.49604,367.11113 L-34,367.11113 C-34,260.28674 -34,206.874545 -34,206.874545 Z" id="Path-40" fill="#664F47"></path>
        <rect id="Rectangle" fill="#C1E8F9" x="650" y="129" width="141" height="160"></rect>
        <path d="M650,216.970921 C664.546759,173.437056 676.296759,151.670124 685.25,151.670124 C698.679861,151.670124 702.375,199.832238 720,199.832238 C737.625,199.832238 746.200715,170.300753 756.327762,184.5 C761.054114,191.126871 770.373645,142.723073 777.685468,151.670124 C780.644253,155.290616 785.08243,174.400575 791,209 L791,289 L650,289 L650,216.970921 Z" id="Rectangle" fill="#FFFFFF" opacity="0.6"></path>
        <path d="M-34,247.848915 C226.430349,244.736421 479.254194,243.180174 724.471536,243.180174 C969.688877,243.180174 1230.86799,244.736421 1508.00887,247.848915 L1509,357.120051 L-34,357.120051 L-34,247.848915 Z" id="Path-31" fill="#B3E5FC"></path>
        <g id="Path-43" transform="translate(-13.000000, 166.000000)">
            <mask id="mask-6" fill="white">
                <use xlink:href="#path-5"></use>
            </mask>
            <use id="Mask" fill="#BE9C91" xlink:href="#path-5"></use>
            <path d="M-13,-17.3426177 L-13,61.6275156 C7.7537491,46.1100791 36.1685613,34.550908 72.2444365,26.9500023 C126.358249,15.5486439 154.896635,53.5326453 215.955006,61.5 C277.300919,69.5048754 344.068986,53.2403699 380.569451,61.6275156 C429.122681,72.7841683 473.266197,92.7941238 513,121.657382 L444.697791,-2.49675699 L-13,-17.3426177 Z" fill="#317D35" mask="url(#mask-6)"></path>
        </g>
        <g id="Path-29" transform="translate(885.000000, 144.183690)">
            <mask id="mask-8" fill="white">
                <use xlink:href="#path-7"></use>
            </mask>
            <use id="Mask" fill="#BE9C91" xlink:href="#path-7"></use>
            <path d="M73.4358746,133.190299 C137.379201,104.912606 189.983342,85.6732743 231.248297,75.4723035 C293.145728,60.1708472 311.785381,85.9542433 378.419716,79.687886 C445.054051,73.4215287 448.841808,55.7238561 492.827126,50.8731775 C522.150672,47.6393917 549.874963,53.9515787 576,69.8097385 L559.642788,-8 L287.709728,0.316309571 L139.861451,39.7756769 L73.4358746,133.190299 Z" fill="#317D35" mask="url(#mask-8)"></path>
        </g>
        <path d="M653.699772,239.331418 C658.341515,236.372532 662.983257,234.893089 667.625,234.893089 C673.5,234.893089 679.375,236.185999 685.25,238.771817 C696.680272,231.590606 708.270408,228 720.020408,228 C731.770408,228 743.680272,231.590606 755.75,238.771817 C760.715799,236.185999 766.136199,234.893089 772.011199,234.893089 C775.037157,234.893089 778.183712,235.521816 781.450866,236.779269 C783.501623,237.568559 786.684668,239.309852 791,242.003147 L791,246.001574 C791,248.209844 789.209844,250 787.001574,250 L653.998426,250 C651.790156,250 650,248.209844 650,246.001574 L650,246.077386 C649.999998,243.344382 651.395178,240.800485 653.699772,239.331418 Z" id="Rectangle" fill="#FFFFFF"></path>
        <path d="M551,282.375391 L613.473709,282.375391 C605.876212,274.579706 600.245254,268.387743 596.580834,263.7995 C591.084204,256.917136 575.042686,255.662791 561.395713,263.7995 C552.297732,269.223973 548.832494,275.415937 551,282.375391 Z" id="Path-45" fill="#BE9C91"></path>
        <path d="M885,273.342618 C877.010337,261.114206 869.979938,255.719187 863.908802,257.157561 C857.837665,258.595934 851.434905,263.876747 844.700519,273 L885,273.342618 Z" id="Path-46" fill="#8D6E63"></path>
        <path d="M605,250.41175 C608.915278,242.826123 613.905669,238.220687 619.971175,236.59544 C629.069434,234.157571 630.622365,234.089189 638,239.41175 C642.918423,242.960124 645.602617,246.62679 646.052581,250.41175 L605,250.41175 Z" id="Path-47" fill="#BE9C91"></path>
    </g>
</svg>