<?xml version="1.0" encoding="UTF-8"?>
<svg width="1440px" height="289px" viewBox="0 0 1440 289" version="1.1" xmlns="http://www.w3.org/2000/svg" xmlns:xlink="http://www.w3.org/1999/xlink">
    <!-- Generator: Sketch 55.2 (78181) - https://sketchapp.com -->
    <title>Banner / Nature / Sunset</title>
    <desc>Created with Sketch.</desc>
    <defs>
        <linearGradient x1="50%" y1="0%" x2="50%" y2="50%" id="linearGradient-1">
            <stop stop-color="#FFB2B4" offset="0%"></stop>
            <stop stop-color="#FAE29B" offset="100%"></stop>
        </linearGradient>
        <radialGradient cx="50%" cy="50%" fx="50%" fy="50%" r="42.4100434%" id="radialGradient-2">
            <stop stop-color="#FFFFFF" offset="0%"></stop>
            <stop stop-color="#F7E286" stop-opacity="0" offset="100%"></stop>
        </radialGradient>
        <path d="M775.667495,49.0120849 L622.325913,15.1751979 C543.310929,5.05839929 500.994163,5.68434189e-14 495.375615,5.68434189e-14 C486.947795,5.68434189e-14 435.003833,10.4437944 404.422769,15.1751979 C372.513056,20.1121655 303.850762,22.499447 292.5,22.499447 C282.765552,22.499447 174.643339,64.512419 155.543644,64.512419 C114.429966,64.512419 1.13686838e-13,96.0356305 1.13686838e-13,110.076741 L252.727314,140.932961 L425.238988,237.069808 L786.299038,258.442989 C779.211343,118.822386 775.667495,49.0120849 775.667495,49.0120849 Z" id="path-3"></path>
        <path d="M16.5694946,59.0447502 C96.2005892,31.0922255 149.040039,11.8181807 175.087845,1.22261586 C179.542364,-0.589365489 224.54118,8.05973249 310.084293,27.1699098 L411.381058,35.7297634 C411.607649,35.7489109 411.832669,35.7834939 412.054552,35.8332717 C446.54273,43.5704312 481.030908,51.3075907 515.519087,59.0447502 C564.275399,66.8793474 588.653554,70.796646 588.653554,70.796646 C689.972736,111.76389 734.088218,132.247512 721,132.247512 C707.911782,132.247512 663.7963,147.493907 588.653554,177.986696 L454.436701,377.987224 L339.318089,373.445548 L53.5606293,362.171806 C-2.00677531,147.415252 -14.3371536,46.3728996 16.5694946,59.0447502 Z" id="path-5"></path>
        <path d="M0.0493407962,112.667473 C36.3354644,114.600164 61.7431263,114.600164 76.2723264,112.667473 C97.2034105,109.883195 147.492207,90.7882436 227.138715,55.3826184 C254.797853,56.1589237 272.06584,56.1589237 278.942676,55.3826184 C328.349888,49.8051866 429.321833,43.2319719 458.87539,37.783041 C535.788487,23.602205 559.72213,0.724757418 566.859811,0.724757418 C574.65007,0.724757418 606.345842,7.01711223 661.947129,19.6018219 C690.644649,26.0971745 748.019394,39.6117092 834.071365,60.1454261 L816.361496,152.500334 C347.426488,142.888564 81.7256487,135.377806 19.258978,129.96806 C-5.95534506,127.784447 1.3459168,114.38591 0.0493407962,112.667473 Z" id="path-7"></path>
        <path d="M0.652488517,0 C223.26008,10.4039727 334.563875,15.605959 334.563875,15.605959 L496.83114,23.9745225 C536.806123,36.3590089 556.793614,42.5512521 556.793614,42.5512521 C671.630031,58.5338353 725.360426,68.4897738 717.984798,72.4190677 C710.60917,76.3483615 656.878775,98.5420056 556.793614,139 L0.652488517,139 C0.652488517,46.3333333 0.652488517,0 0.652488517,0 Z" id="path-9"></path>
    </defs>
    <g id="Banner-/-Nature-/-Sunset" stroke="none" stroke-width="1" fill="none" fill-rule="evenodd">
        <rect id="Rectangle" fill="url(#linearGradient-1)" x="1" y="0" width="1439" height="289"></rect>
        <circle id="Oval" fill="url(#radialGradient-2)" cx="989.5" cy="109.5" r="55.5"></circle>
        <circle id="Oval" fill="#FAE48A" cx="989" cy="109" r="25"></circle>
        <path d="M-100,196.755927 C250.68444,158.902693 426.026661,139.976076 426.026661,139.976076 C493.242537,137.508231 551.066983,134.77144 599.5,131.765701 C672.149525,127.257094 714.075191,138.89955 805.004943,139.976076 C895.934695,141.052603 1187.66596,90 1215.12816,90 C1242.59036,90 1452.98557,139.976076 1452.98557,139.976076 L1525,256.539246 L1525,336.311634 L-100,347.658861 C-100,247.056905 -100,196.755927 -100,196.755927 Z" id="Path-35" fill="#576C88"></path>
        <rect id="Rectangle" fill="#EEC0A0" x="-15" y="189" width="1454" height="113"></rect>
        <g id="Path-38" transform="translate(683.500000, 116.342489)">
            <mask id="mask-4" fill="white">
                <use xlink:href="#path-3"></use>
            </mask>
            <use id="Mask" fill="#183E68" xlink:href="#path-3"></use>
            <polygon fill="#3F6084" mask="url(#mask-4)" points="293 16.2539993 286.06545 19.7617944 298.45688 28.1575109 329.785838 39.4080278 318.160683 28.1575109 313.252351 14.3561769"></polygon>
            <polygon id="Path-33" fill="#3F6084" mask="url(#mask-4)" points="488.996071 -5.82031584 518.526838 20.7685922 562.698963 2.74457038"></polygon>
        </g>
        <g id="Path-32" transform="translate(-48.560629, 56.752488)">
            <mask id="mask-6" fill="white">
                <use xlink:href="#path-5"></use>
            </mask>
            <use id="Mask" fill="#183E68" xlink:href="#path-5"></use>
            <path d="M171.225856,-8.12823285 C140.868204,-3.23957501 243.48425,48.9435878 266.817288,57.6809164 C282.372647,63.5058021 313.433551,65.7211111 360,64.3268434 L277.991035,14.6138625 C217.736117,-2.30634223 182.147724,-9.88704067 171.225856,-8.12823285 Z" fill="#3F6084" mask="url(#mask-6)"></path>
            <path d="M402.348457,27.2681281 C424.021947,53.7667002 436.969822,65.4264948 441.192083,62.2475121 C445.414344,59.0685293 457.805885,54.977826 478.366707,49.9754022 L402.348457,27.2681281 Z" id="Path-30" fill="#3F6084" mask="url(#mask-6)"></path>
        </g>
        <g id="Path-37" transform="translate(635.727674, 165.354574)">
            <mask id="mask-8" fill="white">
                <use xlink:href="#path-7"></use>
            </mask>
            <use id="Mask" fill="#16334F" xlink:href="#path-7"></use>
            <polygon fill="#2B4A6C" mask="url(#mask-8)" points="556.836187 -11 583.447812 27.571339 630.89246 84.6221445 654.107622 47.4748566 751.379058 32.3815064"></polygon>
            <polygon id="Path" fill="#2B4A6C" mask="url(#mask-8)" points="226.180192 52.4029299 230.986696 64.3195408 265.467665 84.6221445 260.737389 66.3976337 284.295957 51.206629 268.154364 52.4029299"></polygon>
        </g>
        <g id="Path-36" transform="translate(-9.000000, 188.854908)">
            <mask id="mask-10" fill="white">
                <use xlink:href="#path-9"></use>
            </mask>
            <use id="Mask" fill="#16334F" xlink:href="#path-9"></use>
            <path d="M174.800523,3.14102776 L205.300714,3.14102776 C97.1696262,22.0207624 36.6543374,33.3336154 23.7548472,37.0795865 C10.855357,40.8255576 -10.0629254,15.1807261 -39,-39.854908 L29.438876,-37.3134463 L174.800523,3.14102776 Z" fill="#2B4A6C" mask="url(#mask-10)"></path>
            <path d="M496,14.145092 L501.755224,37.2060822 C513.163683,49.6327618 530.104965,57.1593705 552.579071,59.7859082 C575.053177,62.412446 631.193486,66.4921244 721,72.0249435 C703.583276,56.1717755 680.570572,44.5654884 651.961887,37.2060822 C623.353203,29.846676 571.365907,22.1596792 496,14.145092 Z" id="Path-34" fill="#2B4A6C" mask="url(#mask-10)"></path>
        </g>
    </g>
</svg>