<?xml version="1.0" encoding="UTF-8"?>
<svg width="1440px" height="289px" viewBox="0 0 1440 289" version="1.1" xmlns="http://www.w3.org/2000/svg" xmlns:xlink="http://www.w3.org/1999/xlink">
    <!-- Generator: Sketch 55.2 (78181) - https://sketchapp.com -->
    <title>Banner / Nature / Desert</title>
    <desc>Created with Sketch.</desc>
    <defs>
        <linearGradient x1="50%" y1="65.8149581%" x2="50%" y2="0%" id="linearGradient-1">
            <stop stop-color="#FFFCE4" offset="0%"></stop>
            <stop stop-color="#C7FFFF" offset="100%"></stop>
        </linearGradient>
        <path d="M0,132.753435 C35.1648109,99.9314055 61.9662811,79.3680131 80.4044108,71.0632582 C214.34312,10.7356562 301.076173,1.03219887 320.867996,1.03219887 C344.746662,1.03219887 415.123996,12.542552 532,35.5632582 C649.258751,59.6939098 723.092084,69.0993182 753.5,63.7794834 C821.98042,51.7989018 894.665316,-3.63961041 915.01193,1.03219887 C935.272498,5.68425111 1014.48864,24.3527765 1152.66035,57.037775 C1254.48545,24.1699777 1310.8064,5.50145236 1321.62317,1.03219887 C1332.43995,-3.43705462 1392.07676,30.8336375 1500.5336,103.844275 L1500.5336,260.645501 L0,260.645501 L0,132.753435 Z" id="path-2"></path>
        <radialGradient cx="50%" cy="50%" fx="50%" fy="50%" r="33.9335197%" id="radialGradient-4">
            <stop stop-color="#FFFFFF" offset="0%"></stop>
            <stop stop-color="#F7E286" stop-opacity="0" offset="100%"></stop>
        </radialGradient>
    </defs>
    <g id="Banner-/-Nature-/-Desert" stroke="none" stroke-width="1" fill="none" fill-rule="evenodd">
        <rect id="Rectangle" fill="url(#linearGradient-1)" x="0" y="0" width="1440" height="289"></rect>
        <g id="Path-19" transform="translate(-33.000000, 73.436742)">
            <mask id="mask-3" fill="white">
                <use xlink:href="#path-2"></use>
            </mask>
            <use id="Mask" fill="#FFDD74" xlink:href="#path-2"></use>
            <path d="M439.315533,-68.981619 C407.057176,-43.6586402 372.469302,-20.3103478 335.551909,1.06325824 C298.634516,22.4368643 254.039352,32.5359449 201.766417,31.3605001 L181.504723,31.3605001 L439.315533,-68.981619 Z" fill="#EACD58" mask="url(#mask-3)"></path>
            <path d="M106.76102,59.2614574 C101.150786,71.9055865 97.5834583,79.0226793 96.0590353,80.612736 C94.5346123,82.2027927 74.9035659,85.0594803 37.1658959,89.1827988 L106.76102,59.2614574 Z" id="Path-17" fill="#EACD58" mask="url(#mask-3)"></path>
            <path d="M922.012453,-50.1278905 C917.055099,-11.9435649 905.746022,18.4011359 888.085222,40.9062121 C861.594022,74.6638264 799.74012,76.9768431 776.004433,74.6455006 C768.435931,73.9021149 737.176598,68.0396327 738.658205,61.3605001 C739.735573,56.5036891 756.140467,46.4046085 787.872889,31.0632582 L922.012453,-50.1278905 Z" id="Path-20" fill="#EACD58" mask="url(#mask-3)"></path>
            <path d="M1329.13676,-15.9444565 C1330.27946,12.0251746 1317.8876,32.9030513 1291.96119,46.6891735 C1253.07158,67.3683569 1213.87975,70.3393113 1186.22708,70.3393113 C1182.01762,70.3393113 1107.26465,95.3115257 1102.24033,99.2449402 C1097.216,103.178355 1164.71627,59.2144741 1156.59744,57.0632582 C1151.40542,55.6875473 1142.14238,54.170145 1128.80834,52.5110514 L1329.13676,-15.9444565 Z" id="Path-21" fill="#EACD58" mask="url(#mask-3)"></path>
        </g>
        <g id="Group" transform="translate(-27.000000, 102.000000)">
            <g id="cactus" transform="translate(597.000000, 56.000000)" fill="#76D275" fill-rule="nonzero">
                <rect id="Rectangle" x="9" y="0" width="7" height="36" rx="3.5"></rect>
                <path d="M12.1206728,23 L25.0385396,23 C25.5695395,23 26,23.419028 26,23.9359252 C26,24.1395106 25.9318068,24.3375442 25.8057598,24.5 L24.9782221,25.5665732 C24.7664292,25.8395428 24.4353659,26 24.0839546,26 L12.1206728,26 C11.5017423,26 11,25.5115834 11,24.9090909 L11,24.0909091 C11,23.4884166 11.5017423,23 12.1206728,23 Z" id="Rectangle"></path>
                <path d="M23.8164098,11 L24.8666667,11 C26.0448741,11 27,11.9643098 27,13.1538462 L27,22.8461538 C27,24.0356902 26.0448741,25 24.8666667,25 L22.2548073,25 C21.8802621,25 21.5123179,24.9004432 21.1879695,24.7113396 L19.1432783,23.5192308 C18.80518,23.3661465 19.0654476,22.9359613 19.9240809,22.228675 C19.994424,22.1707309 20.6827938,21.9179997 21.0998213,21.5949709 C21.5305084,21.2613615 21.6890127,20.8554207 21.6830765,20.6813497 C21.6770855,20.5056725 21.6770855,20.1952226 21.6830765,19.75 L21.6830765,18 L21.6830765,13.1538462 C21.6830765,11.9643098 22.6382023,11 23.8164098,11 Z" id="Rectangle"></path>
                <g id="Group" transform="translate(6.500000, 13.500000) scale(-1, 1) translate(-6.500000, -13.500000) translate(0.000000, 8.000000)">
                    <path d="M1.10638298,8.11904762 L11.2078313,8.11904762 C11.7574561,8.11904762 12.203015,8.54094133 12.203015,9.06137357 C12.203015,9.23747063 12.1509033,9.41004439 12.0525898,9.55952381 L11.4299594,10.5061932 C11.2279661,10.8133109 10.8729103,11 10.4908097,11 L1.10638298,11 C0.495344532,11 0,10.530965 0,9.95238095 L0,9.16666667 C0,8.58808264 0.495344532,8.11904762 1.10638298,8.11904762 Z" id="Rectangle"></path>
                    <path d="M10.6170209,0 L10.787234,0 C12.0093109,0 13,0.938070048 13,2.0952381 L13,8.9047619 C13,10.06193 12.0093109,11 10.787234,11 L8.98137904,11 C8.60295924,11 8.23086243,10.9081059 7.90064738,10.7330994 L6.20895063,9.83653846 C5.3648421,9.14768839 5.46185856,8.80326336 6.5,8.80326336 C6.56774034,8.80326336 6.0871582,8.52761797 6.99830568,8.52761797 C7.9094532,8.52761797 8.40938595,7.74354484 8.40425491,7.60677474 C8.39907654,7.46874263 8.39907654,7.22481773 8.40425491,6.875 L8.40425491,5.5 L8.40425491,2.0952381 C8.40425491,0.938070048 9.394944,0 10.6170209,0 Z" id="Rectangle"></path>
                </g>
            </g>
            <g id="cactus" transform="translate(1063.000000, 77.000000)" fill="#76D275" fill-rule="nonzero">
                <rect id="Rectangle" x="10" y="0" width="7" height="38" rx="3.5"></rect>
                <path d="M13.1953843,24 L26.9744422,24 C27.5408421,24 28,24.419028 28,24.9359252 C28,25.1395106 27.9272605,25.3375442 27.7928105,25.5 L26.9101035,26.5665732 C26.6841911,26.8395428 26.331057,27 25.9562182,27 L13.1953843,27 C12.5351918,27 12,26.5115834 12,25.9090909 L12,25.0909091 C12,24.4884166 12.5351918,24 13.1953843,24 Z" id="Rectangle"></path>
                <path d="M25.418461,12 L26.6,12 C27.9254834,12 29,13.033189 29,14.3076923 L29,24.6923077 C29,25.966811 27.9254834,27 26.6,27 L23.6616582,27 C23.2402948,27 22.8263576,26.893332 22.4614657,26.690721 L20.1611881,25.4134615 C19.7808275,25.2494427 20.0736285,24.78853 21.039591,24.0307233 C21.118727,23.9686403 21.893143,23.6978568 22.362299,23.3517545 C22.846822,22.9943159 23.0251393,22.5593793 23.018461,22.3728747 C23.0117212,22.1846491 23.0117212,21.8520242 23.018461,21.375 L23.018461,19.5 L23.018461,14.3076923 C23.018461,13.033189 24.0929776,12 25.418461,12 Z" id="Rectangle"></path>
                <g id="Group" transform="translate(7.000000, 14.000000) scale(-1, 1) translate(-7.000000, -14.000000) translate(0.000000, 8.000000)">
                    <path d="M1.19148936,8.85714286 L12.0699722,8.85714286 C12.6618758,8.85714286 13.1417085,9.31739054 13.1417085,9.8851348 C13.1417085,10.0772407 13.0855882,10.265503 12.9797121,10.4285714 L12.309187,11.4613017 C12.0916558,11.7963392 11.709288,12 11.2977951,12 L1.19148936,12 C0.533447957,12 0,11.4883254 0,10.8571429 L0,10 C0,9.36881743 0.533447957,8.85714286 1.19148936,8.85714286 Z" id="Rectangle"></path>
                    <path d="M11.4337148,0 L11.6170213,0 C12.9331041,0 14,1.02334914 14,2.28571429 L14,9.71428571 C14,10.9766509 12.9331041,12 11.6170213,12 L9.67225435,12 C9.26472534,12 8.86400569,11.8997519 8.50838949,11.7088357 L6.68656222,10.7307692 C5.77752226,9.97929643 5.88200152,9.60356003 7,9.60356003 C7.07295114,9.60356003 6.55540114,9.30285597 7.53663689,9.30285597 C8.51787267,9.30285597 9.0562618,8.44750346 9.05073606,8.29829971 C9.04515935,8.14771923 9.04515935,7.88161934 9.05073606,7.5 L9.05073606,6 L9.05073606,2.28571429 C9.05073606,1.02334914 10.117632,0 11.4337148,0 Z" id="Rectangle"></path>
                </g>
            </g>
            <g id="cactus" transform="translate(1204.000000, 78.000000)" fill="#76D275" fill-rule="nonzero">
                <rect id="Rectangle" x="10" y="0" width="7" height="38" rx="3.5"></rect>
                <path d="M13.1953843,24 L26.9744422,24 C27.5408421,24 28,24.419028 28,24.9359252 C28,25.1395106 27.9272605,25.3375442 27.7928105,25.5 L26.9101035,26.5665732 C26.6841911,26.8395428 26.331057,27 25.9562182,27 L13.1953843,27 C12.5351918,27 12,26.5115834 12,25.9090909 L12,25.0909091 C12,24.4884166 12.5351918,24 13.1953843,24 Z" id="Rectangle"></path>
                <path d="M25.418461,12 L26.6,12 C27.9254834,12 29,13.033189 29,14.3076923 L29,24.6923077 C29,25.966811 27.9254834,27 26.6,27 L23.6616582,27 C23.2402948,27 22.8263576,26.893332 22.4614657,26.690721 L20.1611881,25.4134615 C19.7808275,25.2494427 20.0736285,24.78853 21.039591,24.0307233 C21.118727,23.9686403 21.893143,23.6978568 22.362299,23.3517545 C22.846822,22.9943159 23.0251393,22.5593793 23.018461,22.3728747 C23.0117212,22.1846491 23.0117212,21.8520242 23.018461,21.375 L23.018461,19.5 L23.018461,14.3076923 C23.018461,13.033189 24.0929776,12 25.418461,12 Z" id="Rectangle"></path>
                <g id="Group" transform="translate(7.000000, 14.000000) scale(-1, 1) translate(-7.000000, -14.000000) translate(0.000000, 8.000000)">
                    <path d="M1.19148936,8.85714286 L12.0699722,8.85714286 C12.6618758,8.85714286 13.1417085,9.31739054 13.1417085,9.8851348 C13.1417085,10.0772407 13.0855882,10.265503 12.9797121,10.4285714 L12.309187,11.4613017 C12.0916558,11.7963392 11.709288,12 11.2977951,12 L1.19148936,12 C0.533447957,12 0,11.4883254 0,10.8571429 L0,10 C0,9.36881743 0.533447957,8.85714286 1.19148936,8.85714286 Z" id="Rectangle"></path>
                    <path d="M11.4337148,0 L11.6170213,0 C12.9331041,0 14,1.02334914 14,2.28571429 L14,9.71428571 C14,10.9766509 12.9331041,12 11.6170213,12 L9.67225435,12 C9.26472534,12 8.86400569,11.8997519 8.50838949,11.7088357 L6.68656222,10.7307692 C5.77752226,9.97929643 5.88200152,9.60356003 7,9.60356003 C7.07295114,9.60356003 6.55540114,9.30285597 7.53663689,9.30285597 C8.51787267,9.30285597 9.0562618,8.44750346 9.05073606,8.29829971 C9.04515935,8.14771923 9.04515935,7.88161934 9.05073606,7.5 L9.05073606,6 L9.05073606,2.28571429 C9.05073606,1.02334914 10.117632,0 11.4337148,0 Z" id="Rectangle"></path>
                </g>
            </g>
            <g id="cactus" transform="translate(1374.000000, 95.000000)" fill="#76D275" fill-rule="nonzero">
                <rect id="Rectangle" x="10" y="0" width="7" height="38" rx="3.5"></rect>
                <path d="M13.1953843,24 L26.9744422,24 C27.5408421,24 28,24.419028 28,24.9359252 C28,25.1395106 27.9272605,25.3375442 27.7928105,25.5 L26.9101035,26.5665732 C26.6841911,26.8395428 26.331057,27 25.9562182,27 L13.1953843,27 C12.5351918,27 12,26.5115834 12,25.9090909 L12,25.0909091 C12,24.4884166 12.5351918,24 13.1953843,24 Z" id="Rectangle"></path>
                <path d="M25.418461,12 L26.6,12 C27.9254834,12 29,13.033189 29,14.3076923 L29,24.6923077 C29,25.966811 27.9254834,27 26.6,27 L23.6616582,27 C23.2402948,27 22.8263576,26.893332 22.4614657,26.690721 L20.1611881,25.4134615 C19.7808275,25.2494427 20.0736285,24.78853 21.039591,24.0307233 C21.118727,23.9686403 21.893143,23.6978568 22.362299,23.3517545 C22.846822,22.9943159 23.0251393,22.5593793 23.018461,22.3728747 C23.0117212,22.1846491 23.0117212,21.8520242 23.018461,21.375 L23.018461,19.5 L23.018461,14.3076923 C23.018461,13.033189 24.0929776,12 25.418461,12 Z" id="Rectangle"></path>
                <g id="Group" transform="translate(7.000000, 14.000000) scale(-1, 1) translate(-7.000000, -14.000000) translate(0.000000, 8.000000)">
                    <path d="M1.19148936,8.85714286 L12.0699722,8.85714286 C12.6618758,8.85714286 13.1417085,9.31739054 13.1417085,9.8851348 C13.1417085,10.0772407 13.0855882,10.265503 12.9797121,10.4285714 L12.309187,11.4613017 C12.0916558,11.7963392 11.709288,12 11.2977951,12 L1.19148936,12 C0.533447957,12 0,11.4883254 0,10.8571429 L0,10 C0,9.36881743 0.533447957,8.85714286 1.19148936,8.85714286 Z" id="Rectangle"></path>
                    <path d="M11.4337148,0 L11.6170213,0 C12.9331041,0 14,1.02334914 14,2.28571429 L14,9.71428571 C14,10.9766509 12.9331041,12 11.6170213,12 L9.67225435,12 C9.26472534,12 8.86400569,11.8997519 8.50838949,11.7088357 L6.68656222,10.7307692 C5.77752226,9.97929643 5.88200152,9.60356003 7,9.60356003 C7.07295114,9.60356003 6.55540114,9.30285597 7.53663689,9.30285597 C8.51787267,9.30285597 9.0562618,8.44750346 9.05073606,8.29829971 C9.04515935,8.14771923 9.04515935,7.88161934 9.05073606,7.5 L9.05073606,6 L9.05073606,2.28571429 C9.05073606,1.02334914 10.117632,0 11.4337148,0 Z" id="Rectangle"></path>
                </g>
            </g>
            <path d="M0,158.082242 C184.092524,118.71817 300.531035,94.603067 349.315533,85.736932 C396.110352,77.2324028 414.37806,63.3591927 423.228872,63.3591927 C429.592693,63.3591927 451.199649,76.6857346 471.339873,78.5286107 C487.83504,80.0379559 569.968695,71.8891528 578.807473,71.8891528 C587.646252,71.8891528 650.87107,113.202932 689.392078,119.449448 C727.913085,125.695964 813.106797,105.095177 821,111.162777 C826.262135,115.207843 843.611026,124.820251 873.046673,140 L986.695856,231.082242 L0,231.082242 L0,158.082242 Z" id="Path-18" fill="#EFCC60"></path>
            <path d="M21,135.691896 C263.535882,114.747984 452.62128,113.098344 588.256195,130.742977 C791.708567,157.209926 781.23574,186.621793 781.23574,186.621793 C899.332631,141.757005 967.819336,123.130733 986.695856,130.742977 C1015.01063,142.161343 1141.02608,83.9305455 1162.24418,83.9305455 C1183.46229,83.9305455 1295.24349,171.885945 1347.53719,142.161343 C1382.39965,122.344942 1438.56331,118.53882 1516.02818,130.742977 L1516.02818,231.082242 L1115.40572,228.262361 L21,220.559113 L21,135.691896 Z" id="Path-16" fill="#FFCA28"></path>
            <path d="M0,177.352508 C278.714226,152.450836 458.27384,140 538.678843,140 C659.286346,140 663.418399,155.172586 791.866244,159.27802 C920.314089,163.383453 1032.01142,140 1141.83559,140 C1215.05171,140 1328.56279,152.450836 1482.36884,177.352508 L1542.00887,231.082242 L0,231.082242 L0,177.352508 Z" id="Path-15" fill="#C8A415"></path>
            <path d="M1230.34992,64.148071 C1256.68903,60.0022337 1307.41547,29.5175982 1315.99494,22.9972976 C1321.71458,18.6504305 1327.72872,10.9846646 1334.03737,0 C1337.54025,29.2147509 1331.5261,49.4420644 1315.99494,60.6819405 C1292.69818,77.5417547 1204.01081,68.2939084 1230.34992,64.148071 Z" id="Path-22" fill="#EACD58"></path>
        </g>
        <g id="noun_Camel_18386-(4)" transform="translate(714.222458, 211.312089) rotate(-7.000000) translate(-714.222458, -211.312089) translate(695.722458, 197.812089)" fill="#F9AF50" fill-rule="nonzero">
            <path d="M4.38189583,9.43424517 L4.4927139,13.2240723 L5.35927485,18.6816113 L7.40087067,26.2233384 L10.1142783,26.2233384 C10.1142783,26.2233384 10.2334532,24.9692134 8.53630169,24.9692134 L7.83142611,19.80859 L9.45227661,13.1572483 L16.6539977,13.1572483 L13.6906135,18.6819725 L12.1511507,26.2240608 L15.1377885,26.2240608 C15.1377885,26.2240608 15.3416211,24.9699358 13.6629998,24.9699358 L15.9469421,19.8089512 L20.3030005,13.3931191 L22.2294182,18.6819725 L24.7190096,26.2240608 L27.3106991,26.2240608 C27.3106991,26.2240608 27.5759358,24.9699358 25.5692204,24.9699358 L24.3789253,19.80859 L23.3223387,13.1572483 C23.3223387,13.1572483 31.1046737,13.3692792 32.9351702,4.09193258 L35.1010276,4.09193258 C35.1010276,4.09193258 36.313507,4.06484174 36.313507,2.82588757 C36.313507,2.82444273 36.3338332,1.57826434 35.1010276,1.57826434 L32.9351702,1.57826434 L32.2782552,1.23330771 L31.1893315,1.23330771 C31.1893315,1.23330771 31.1250206,0.529307218 30.4506655,0.529307218 C29.8166408,0.529307218 29.7396131,1.12891769 29.7396131,1.3759861 L29.7396131,2.32199805 C29.7396131,7.84130409 25.2429429,7.39629198 25.2429429,7.39629198 C22.2403183,7.39629198 20.6180145,4.08398593 20.6180145,4.08398593 C18.6625297,0.0734587735 14.5971417,0.224806236 14.5971417,0.224806236 C10.3228343,0.224806236 9.04243142,4.08398593 7.80526578,4.08398593 C7.80526578,4.08398593 5.38470851,4.04461392 4.10721235,7.47720328 L1.31350703,14.883115 L2.04781298,14.8892556 L4.38189583,9.43424517 Z" id="Path"></path>
            <path d="M3.90500541,14.2680014 L4.33221759,17.2166998 L2.51997528,20.0063807 L1.59260452,25.0438138 C1.59260452,25.0438138 2.92054616,24.9200552 2.92054616,26.2680014 L0.332217589,26.2680014 L0.842208074,18.9063043 L3.90500541,14.2680014 Z" id="Path"></path>
        </g>
        <g id="noun_Camel_18386-(4)" transform="translate(904.500000, 97.500000) rotate(13.000000) translate(-904.500000, -97.500000) translate(897.000000, 91.000000)" fill="#F9AF50" fill-rule="nonzero">
            <path d="M2.20134299,4.67177305 L2.24567022,6.2751566 L2.5922946,8.58412024 L3.40893292,11.774851 L4.49429598,11.774851 C4.49429598,11.774851 4.54196592,11.2442596 3.86310533,11.2442596 L3.5811551,9.06091893 L4.2294953,6.24688974 L7.11018372,6.24688974 L5.92483007,8.58427306 L5.30904495,11.7751566 L6.50370006,11.7751566 C6.50370006,11.7751566 6.58523309,11.2445652 5.9137846,11.2445652 L6.82736148,9.06107175 L8.56978485,6.34668126 L9.34035192,8.58427306 L10.3361885,11.7751566 L11.3728643,11.7751566 C11.3728643,11.7751566 11.478959,11.2445652 10.6762728,11.2445652 L10.2001548,9.06091893 L9.77752012,6.24688974 C9.77752012,6.24688974 12.8904541,6.33659514 13.6226527,2.41156387 L14.4889957,2.41156387 C14.4889957,2.41156387 14.9739875,2.40010237 14.9739875,1.87592945 C14.9739875,1.87531817 14.9821179,1.34808885 14.4889957,1.34808885 L13.6226527,1.34808885 L13.3598867,1.20214566 L12.9243172,1.20214566 C12.9243172,1.20214566 12.8985929,0.904299297 12.6288508,0.904299297 C12.375241,0.904299297 12.3444299,1.15798065 12.3444299,1.26250959 L12.3444299,1.66274542 C12.3444299,3.99783644 10.5457618,3.80956208 10.5457618,3.80956208 C9.34471198,3.80956208 8.69579044,2.40820183 8.69579044,2.40820183 C7.91359655,0.71144034 6.28744132,0.775471958 6.28744132,0.775471958 C4.57771837,0.775471958 4.06555723,2.40820183 3.57069097,2.40820183 C3.57069097,2.40820183 2.60246806,2.39154444 2.0914696,3.84379378 L0.973987469,6.97706415 L1.26770985,6.97966209 L2.20134299,4.67177305 Z" id="Path"></path>
            <path d="M2.3176271,7.01412515 L2.53123319,8.24274947 L1.62511203,9.40511651 L1.16142665,11.504047 C1.16142665,11.504047 1.82539747,11.4524809 1.82539747,12.0141251 L0.531233185,12.0141251 L0.786228428,8.94675135 L2.3176271,7.01412515 Z" id="Path"></path>
        </g>
        <g id="noun_Camel_18386-(4)" transform="translate(905.500000, 226.000000) rotate(-7.000000) translate(-905.500000, -226.000000) translate(883.000000, 209.000000)" fill="#F9AF50" fill-rule="nonzero">
            <path d="M5.54090382,12.0769651 L5.67705173,16.7413677 L6.74168376,23.4583388 L9.24993005,32.7404645 L12.5835452,32.7404645 C12.5835452,32.7404645 12.72996,31.196926 10.6448882,31.196926 L9.77889817,24.8453895 L11.7702288,16.6591228 L20.6180575,16.6591228 L16.9773284,23.4587833 L15.0859884,32.7413536 L18.7552862,32.7413536 C18.7552862,32.7413536 19.0057091,31.1978151 16.943403,31.1978151 L19.7493892,24.8458341 L25.1011181,16.9494254 L27.4678598,23.4587833 L30.5265008,32.7413536 L33.7105764,32.7413536 C33.7105764,32.7413536 34.0364386,31.1978151 31.5710454,31.1978151 L30.1086829,24.8453895 L28.8105907,16.6591228 C28.8105907,16.6591228 38.3717452,16.9200839 40.6206409,5.50181113 L43.2815514,5.50181113 C43.2815514,5.50181113 44.771169,5.46846856 44.771169,3.94360189 C44.771169,3.94182362 44.7961411,2.4080656 43.2815514,2.4080656 L40.6206409,2.4080656 L39.8135739,1.9835036 L38.4757533,1.9835036 C38.4757533,1.9835036 38.3967429,1.11704145 37.5682494,1.11704145 C36.7893047,1.11704145 36.6946708,1.85502358 36.6946708,2.15910777 L36.6946708,3.32343017 C36.6946708,10.1164222 31.1701903,9.56871501 31.1701903,9.56871501 C27.4812514,9.56871501 25.4881353,5.49203064 25.4881353,5.49203064 C23.0856826,0.555997215 18.091063,0.742271016 18.091063,0.742271016 C12.8397711,0.742271016 11.2667047,5.49203064 9.74675833,5.49203064 C9.74675833,5.49203064 6.77293083,5.44357278 5.20343555,9.66829814 L1.77116901,18.7832665 L2.67331632,18.7908241 L5.54090382,12.0769651 Z" id="Path"></path>
            <path d="M4.97727946,18.3401168 L5.51129468,22.0259898 L3.24599179,25.5130909 L2.08677835,31.8098824 C2.08677835,31.8098824 3.7467054,31.6551841 3.7467054,33.3401168 L0.51129468,33.3401168 L1.14878279,24.1379954 L4.97727946,18.3401168 Z" id="Path"></path>
        </g>
        <circle id="Oval" fill="url(#radialGradient-4)" cx="499.5" cy="69.5" r="55.5"></circle>
        <circle id="Oval" fill="#FFF2BB" cx="499" cy="69" r="25"></circle>
    </g>
</svg>