<?xml version="1.0" encoding="UTF-8"?>
<svg width="1440px" height="289px" viewBox="0 0 1440 289" version="1.1" xmlns="http://www.w3.org/2000/svg" xmlns:xlink="http://www.w3.org/1999/xlink">
    <!-- Generator: Sketch 55.2 (78181) - https://sketchapp.com -->
    <title>Banner / Quote / Find</title>
    <desc>Created with Sketch.</desc>
    <g id="Banner-/-Quote-/-Find" stroke="none" stroke-width="1" fill="none" fill-rule="evenodd">
        <rect id="Rectangle" fill="#F1D4C3" x="0" y="0" width="1440" height="289"></rect>
        <path d="M820.312,144.358 L820.69,127.24 C820.69,122.703977 820.420003,119.788006 819.88,118.492 L817.234,114.388 L817.396,113.578 C819.952013,113.001997 823.623976,112.714 828.412,112.714 C829.096003,113.758005 829.438,115.692986 829.438,118.519 C829.438,121.345014 829.258002,125.142976 828.898,129.913 C828.537998,134.683024 828.358,138.363987 828.358,140.956 C828.358,143.548013 828.969994,144.844 830.194,144.844 C830.914004,144.844 831.957993,144.259006 833.326,143.089 C834.694007,141.918994 835.863995,140.650007 836.836,139.282 C837.628004,131.145959 838.024,125.656014 838.024,122.812 C838.024,119.967986 837.628004,117.322012 836.836,114.874 C838.74401,113.901995 841.875978,113.164003 846.232,112.66 C846.628002,113.956006 846.826,115.782988 846.826,118.141 C846.826,120.499012 846.457004,124.593971 845.719,130.426 C844.980996,136.258029 844.612,140.118991 844.612,142.009 C844.612,143.899009 845.160995,144.844 846.259,144.844 C847.357005,144.844 848.841991,143.80001 850.714,141.712 C852.586009,139.62399 854.304992,137.023016 855.871,133.909 C857.437008,130.794984 858.309999,127.978013 858.49,125.458 L852.766,122.11 C853.018001,119.949989 853.530996,118.087008 854.305,116.521 C855.079004,114.954992 855.789997,113.920003 856.438,113.416 L857.41,112.66 C859.606011,112.66 861.288994,113.226994 862.459,114.361 C863.629006,115.495006 864.214,116.835992 864.214,118.384 C864.214,121.300015 863.485007,124.701981 862.027,128.59 C860.568993,132.478019 858.769011,136.113983 856.627,139.498 C854.484989,142.882017 852.046014,145.752988 849.31,148.111 C846.573986,150.469012 844.054012,151.648 841.75,151.648 C840.381993,151.648 839.167005,151.000006 838.105,149.704 C837.042995,148.407994 836.494,146.75201 836.458,144.736 C834.873992,146.896011 833.200009,148.587994 831.436,149.812 C829.671991,151.036006 827.980008,151.648 826.36,151.648 C824.739992,151.648 823.327006,150.973007 822.121,149.623 C820.914994,148.272993 820.312,146.518011 820.312,144.358 Z M863.512,141.658 C863.512,137.157978 864.870986,133.603013 867.589,130.993 C870.307014,128.382987 873.393983,127.078 876.85,127.078 C878.974011,127.078 880.719993,127.599995 882.088,128.644 C883.456007,129.688005 884.14,131.082991 884.14,132.829 C884.14,134.575009 883.699004,136.041994 882.817,137.23 C881.934996,138.418006 880.864006,139.335997 879.604,139.984 C877.047987,141.244006 874.708011,142.035998 872.584,142.36 L871.288,142.522 C871.540001,145.906017 872.925987,147.598 875.446,147.598 C876.310004,147.598 877.227995,147.382002 878.2,146.95 C879.172005,146.517998 879.927997,146.086002 880.468,145.654 L881.278,145.006 L882.574,146.734 C882.285999,147.130002 881.710004,147.651997 880.846,148.3 C879.981996,148.948003 879.172004,149.487998 878.416,149.92 C876.32799,151.072006 874.042012,151.648 871.558,151.648 C869.073988,151.648 867.112007,150.766009 865.672,149.002 C864.231993,147.237991 863.512,144.790016 863.512,141.658 Z M871.234,139.876 C873.070009,139.551998 874.527995,138.778006 875.608,137.554 C876.688005,136.329994 877.228,134.74601 877.228,132.802 C877.228,130.85799 876.652006,129.886 875.5,129.886 C874.131993,129.886 873.079004,131.046988 872.341,133.369 C871.602996,135.691012 871.234,137.85999 871.234,139.876 Z M908.224,150.514 C908.224,151.018003 908.080001,151.27 907.792,151.27 C907.053996,151.27 906.109006,151.225 904.957,151.135 C903.660994,151.045 902.572004,151 901.69,151 C900.825996,151 899.755006,151.045 898.477,151.135 C897.324994,151.225 896.380004,151.27 895.642,151.27 C895.353999,151.27 895.21,151.018003 895.21,150.514 C895.21,150.063998 895.353999,149.821 895.642,149.785 C897.172008,149.604999 898.166498,149.240503 898.6255,148.6915 C899.084502,148.142497 899.314,146.986009 899.314,145.222 L899.314,120.139 C899.314,118.680993 899.134002,117.727002 898.774,117.277 C898.413998,116.826998 897.586006,116.530001 896.29,116.386 C896.001999,116.35 895.858,116.125002 895.858,115.711 C895.858,115.278998 896.001999,115.063 896.29,115.063 C898.180009,114.576998 899.727994,114.059503 900.934,113.5105 C902.140006,112.961497 902.895998,112.498002 903.202,112.12 C903.382001,111.921999 903.579999,111.823 903.796,111.823 C904.300003,111.823 904.552,111.966999 904.552,112.255 C904.263999,116.28702 904.12,119.418989 904.12,121.651 L904.12,145.222 C904.12,146.986009 904.344998,148.142497 904.795,148.6915 C905.245002,149.240503 906.243992,149.604999 907.792,149.785 C908.080001,149.821 908.224,150.063998 908.224,150.514 Z M935.467,139.822 C935.467,143.404018 934.301512,146.351488 931.9705,148.6645 C929.639488,150.977512 926.620019,152.134 922.912,152.134 C919.203981,152.134 916.180012,150.973012 913.84,148.651 C911.499988,146.328988 910.33,143.386018 910.33,139.822 C910.33,136.203982 911.508988,133.193512 913.867,130.7905 C916.225012,128.387488 919.239982,127.186 922.912,127.186 C926.602018,127.186 929.616988,128.382988 931.957,130.777 C934.297012,133.171012 935.467,136.185982 935.467,139.822 Z M930.04,139.768 C930.04,136.473984 929.405506,133.84151 928.1365,131.8705 C926.867494,129.89949 925.126011,128.914 922.912,128.914 C920.715989,128.914 918.979006,129.90399 917.701,131.884 C916.422994,133.86401 915.784,136.491984 915.784,139.768 C915.784,143.026016 916.413994,145.61349 917.674,147.5305 C918.934006,149.44751 920.679989,150.406 922.912,150.406 C925.144011,150.406 926.889994,149.456509 928.15,147.5575 C929.410006,145.658491 930.04,143.062016 930.04,139.768 Z M956.284,144.358 C956.284,146.554011 955.420009,148.398993 953.692,149.893 C951.963991,151.387007 949.876012,152.134 947.428,152.134 C946.563996,152.134 945.232009,151.945002 943.432,151.567 C942.081993,151.296999 941.164002,151.162 940.678,151.162 C940.533999,149.901994 940.201003,147.985013 939.679,145.411 C939.679,145.140999 939.939997,145.006 940.462,145.006 C940.894002,145.006 941.155,145.149999 941.245,145.438 C941.659002,146.770007 942.477994,147.930995 943.702,148.921 C944.926006,149.911005 946.185994,150.406 947.482,150.406 C948.832007,150.406 949.880496,150.037004 950.6275,149.299 C951.374504,148.560996 951.748,147.526007 951.748,146.194 C951.748,145.347996 951.437503,144.601003 950.8165,143.953 C950.195497,143.304997 948.85001,142.504005 946.78,141.55 C944.061986,140.307994 942.266504,139.138005 941.3935,138.04 C940.520496,136.941995 940.084,135.628008 940.084,134.098 C940.084,132.207991 940.902992,130.583507 942.541,129.2245 C944.179,127.865493 946.113989,127.186 948.346,127.186 C949.282005,127.186 950.595992,127.347998 952.288,127.672 C953.224005,127.852001 953.835999,127.942 954.124,127.942 C954.178,130.066011 954.294999,131.874993 954.475,133.369 C954.475,133.639001 954.214003,133.774 953.692,133.774 C953.241998,133.774 952.99,133.630001 952.936,133.342 C952.737999,132.027993 952.243004,130.961504 951.451,130.1425 C950.658996,129.323496 949.714005,128.914 948.616,128.914 C945.807986,128.914 944.404,130.137988 944.404,132.586 C944.404,133.414004 944.736997,134.178996 945.403,134.881 C946.069003,135.583004 947.517989,136.491994 949.75,137.608 C952.414013,138.940007 954.168996,140.091995 955.015,141.064 C955.861004,142.036005 956.284,143.133994 956.284,144.358 Z M981.286,135.988 C981.286,136.492003 980.962003,136.744 980.314,136.744 L965.518,136.744 C965.409999,137.716005 965.356,138.723995 965.356,139.768 C965.356,142.666014 966.044493,144.893492 967.4215,146.4505 C968.798507,148.007508 970.755987,148.786 973.294,148.786 C974.572006,148.786 975.858994,148.444003 977.155,147.76 C978.451006,147.075997 979.494996,146.203005 980.287,145.141 L980.422,145.087 C980.584001,145.087 980.741499,145.186 980.8945,145.384 C981.047501,145.582001 981.124,145.815999 981.124,146.086 C981.124,146.464002 980.548006,147.251494 979.396,148.4485 C978.243994,149.645506 976.993007,150.558997 975.643,151.189 C974.292993,151.819003 972.880007,152.134 971.404,152.134 C968.163984,152.134 965.437011,150.946012 963.223,148.57 C961.008989,146.193988 959.902,143.278017 959.902,139.822 C959.902,136.293982 960.986489,133.306012 963.1555,130.858 C965.324511,128.409988 968.073983,127.186 971.404,127.186 C974.194014,127.186 976.538491,128.099491 978.4375,129.9265 C980.336509,131.753509 981.286,133.773989 981.286,135.988 Z M976.372,133.612 C976.372,132.261993 975.908505,131.141504 974.9815,130.2505 C974.054495,129.359496 972.862007,128.914 971.404,128.914 C970.017993,128.914 968.816505,129.494494 967.7995,130.6555 C966.782495,131.816506 966.094002,133.341991 965.734,135.232 L973.24,135.016 C974.374006,134.998 975.179498,134.890001 975.6565,134.692 C976.133502,134.493999 976.372,134.134003 976.372,133.612 Z M1003.264,151.648 C1000.77999,151.648 998.836007,150.775009 997.432,149.029 C996.027993,147.282991 995.326,144.844016 995.326,141.712 C995.326,137.71598 996.396989,134.278014 998.539,131.398 C1000.68101,128.517986 1003.64198,127.078 1007.422,127.078 L1009.366,127.186 C1009.978,126.861998 1010.662,126.7 1011.418,126.7 C1014.26201,126.7 1015.684,129.381973 1015.684,134.746 C1017.16001,134.674 1018.65399,134.476002 1020.166,134.152 L1021.03,133.936 L1021.354,136.042 C1020.16599,136.546003 1018.56401,136.995998 1016.548,137.392 L1015.468,137.608 C1014.784,141.388019 1013.39801,144.672986 1011.31,147.463 C1009.22199,150.253014 1006.54002,151.648 1003.264,151.648 Z M1006.18,147.004 C1007.69201,147.004 1009.05099,146.03201 1010.257,144.088 C1011.46301,142.14399 1012.3,140.092011 1012.768,137.932 C1008.91598,137.932 1006.99,136.492014 1006.99,133.612 C1006.99,132.459994 1007.224,131.380005 1007.692,130.372 L1007.962,129.832 C1007.818,129.76 1007.638,129.724 1007.422,129.724 C1007.206,129.724 1007.044,129.76 1006.936,129.832 C1006.036,130.408003 1005.19,131.757989 1004.398,133.882 C1003.606,136.006011 1003.21,138.435986 1003.21,141.172 C1003.21,145.060019 1004.19999,147.004 1006.18,147.004 Z M1017.682,146.95 C1017.682,145.401992 1018.15,142.765019 1019.086,139.039 C1020.022,135.312981 1020.49,133.027004 1020.49,132.181 C1020.49,131.334996 1019.84201,130.210007 1018.546,128.806 L1018.6,128.104 C1021.04801,127.599997 1024.26998,127.348 1028.266,127.348 C1028.446,127.816002 1028.536,128.661994 1028.536,129.886 C1028.536,131.110006 1028.03201,133.71998 1027.024,137.716 C1026.01599,141.71202 1025.512,144.195995 1025.512,145.168 C1025.512,146.140005 1025.872,146.626 1026.592,146.626 C1027.63601,146.626 1028.84199,146.248004 1030.21,145.492 C1030.354,144.627996 1030.714,142.972012 1031.29,140.524 C1032.58601,134.763971 1033.234,130.642012 1033.234,128.158 C1034.49401,127.653997 1036.76198,127.402 1040.038,127.402 L1041.064,127.402 C1041.064,129.094008 1040.56001,132.396975 1039.552,137.311 C1038.54399,142.225025 1038.04,145.104996 1038.04,145.951 C1038.04,146.797004 1038.22,147.22 1038.58,147.22 C1038.796,147.22 1039.82199,146.788004 1041.658,145.924 L1042.684,147.652 C1039.47998,150.316013 1036.67201,151.648 1034.26,151.648 C1033.10799,151.648 1032.127,151.324003 1031.317,150.676 C1030.507,150.027997 1030.048,149.182005 1029.94,148.138 C1027.02399,150.514012 1024.37801,151.702 1022.002,151.702 C1020.74199,151.702 1019.707,151.288004 1018.897,150.46 C1018.087,149.631996 1017.682,148.462008 1017.682,146.95 Z M1045.276,151.162 L1044.898,151.162 C1044.826,150.873999 1044.79,150.217005 1044.79,149.191 C1044.79,148.164995 1045.276,145.402022 1046.248,140.902 C1047.22,136.401977 1047.706,133.828003 1047.706,133.18 C1047.706,132.063994 1047.20201,130.840007 1046.194,129.508 L1045.708,128.86 L1045.762,128.158 C1047.70601,127.617997 1050.81998,127.348 1055.104,127.348 C1055.536,128.284005 1055.752,129.597992 1055.752,131.29 C1056.148,130.641997 1056.97599,129.778005 1058.236,128.698 C1059.49601,127.617995 1060.79199,127.078 1062.124,127.078 C1064.06801,127.078 1065.04,128.769983 1065.04,132.154 C1064.86,132.370001 1064.617,132.648998 1064.311,132.991 C1064.005,133.333002 1063.393,133.809997 1062.475,134.422 C1061.557,135.034003 1060.666,135.411999 1059.802,135.556 C1059.766,135.556 1059.46,135.070005 1058.884,134.098 C1058.308,133.125995 1057.876,132.64 1057.588,132.64 C1056.688,132.964002 1055.896,133.503996 1055.212,134.26 C1053.55599,141.712037 1052.728,146.535989 1052.728,148.732 C1052.728,149.524004 1052.746,150.081998 1052.782,150.406 C1051.52199,150.910003 1049.02002,151.162 1045.276,151.162 Z M1081.348,143.926 C1081.348,146.194011 1080.34901,148.047993 1078.351,149.488 C1076.35299,150.928007 1074.07601,151.648 1071.52,151.648 C1068.96399,151.648 1066.93901,151.108005 1065.445,150.028 C1063.95099,148.947995 1063.204,147.994004 1063.204,147.166 C1063.204,146.661997 1063.83399,145.843006 1065.094,144.709 C1066.35401,143.574994 1067.416,142.882001 1068.28,142.63 C1070.08001,143.962007 1071.55599,146.067986 1072.708,148.948 C1074.04001,148.839999 1074.706,148.210006 1074.706,147.058 C1074.706,145.401992 1073.24801,143.053015 1070.332,140.011 C1067.41599,136.968985 1065.958,134.548009 1065.958,132.748 C1065.958,130.947991 1066.76799,129.553005 1068.388,128.563 C1070.00801,127.572995 1071.96099,127.078 1074.247,127.078 C1076.53301,127.078 1078.25199,127.482996 1079.404,128.293 C1080.55601,129.103004 1081.132,130.200993 1081.132,131.587 C1081.132,132.973007 1080.03401,134.889988 1077.838,137.338 C1078.09,137.590001 1078.414,137.922998 1078.81,138.337 C1079.206,138.751002 1079.728,139.533994 1080.376,140.686 C1081.024,141.838006 1081.348,142.917995 1081.348,143.926 Z M1076.164,135.448 C1077.67601,134.151994 1078.432,132.874006 1078.432,131.614 C1078.432,130.353994 1077.56801,129.724 1075.84,129.724 C1075.012,129.724 1074.328,129.894998 1073.788,130.237 C1073.248,130.579002 1072.978,130.965998 1072.978,131.398 C1072.978,132.190004 1073.76999,133.305993 1075.354,134.746 L1076.164,135.448 Z M1083.616,141.658 C1083.616,137.157978 1084.97499,133.603013 1087.693,130.993 C1090.41101,128.382987 1093.49798,127.078 1096.954,127.078 C1099.07801,127.078 1100.82399,127.599995 1102.192,128.644 C1103.56001,129.688005 1104.244,131.082991 1104.244,132.829 C1104.244,134.575009 1103.803,136.041994 1102.921,137.23 C1102.039,138.418006 1100.96801,139.335997 1099.708,139.984 C1097.15199,141.244006 1094.81201,142.035998 1092.688,142.36 L1091.392,142.522 C1091.644,145.906017 1093.02999,147.598 1095.55,147.598 C1096.414,147.598 1097.332,147.382002 1098.304,146.95 C1099.276,146.517998 1100.032,146.086002 1100.572,145.654 L1101.382,145.006 L1102.678,146.734 C1102.39,147.130002 1101.814,147.651997 1100.95,148.3 C1100.086,148.948003 1099.276,149.487998 1098.52,149.92 C1096.43199,151.072006 1094.14601,151.648 1091.662,151.648 C1089.17799,151.648 1087.21601,150.766009 1085.776,149.002 C1084.33599,147.237991 1083.616,144.790016 1083.616,141.658 Z M1091.338,139.876 C1093.17401,139.551998 1094.63199,138.778006 1095.712,137.554 C1096.79201,136.329994 1097.332,134.74601 1097.332,132.802 C1097.332,130.85799 1096.75601,129.886 1095.604,129.886 C1094.23599,129.886 1093.183,131.046988 1092.445,133.369 C1091.707,135.691012 1091.338,137.85999 1091.338,139.876 Z M1109.536,151.648 C1108.31199,151.648 1107.295,151.234004 1106.485,150.406 C1105.675,149.577996 1105.27,148.417007 1105.27,146.923 C1105.27,145.428993 1106.16099,140.65904 1107.943,132.613 C1109.72501,124.56696 1110.616,118.762018 1110.616,115.198 L1110.292,112.822 C1113.10001,111.849995 1115.72799,111.364 1118.176,111.364 C1118.536,111.868003 1118.716,112.749994 1118.716,114.01 C1118.716,116.890014 1117.80701,122.460959 1115.989,130.723 C1114.17099,138.985041 1113.262,143.790993 1113.262,145.141 C1113.262,146.491007 1113.424,147.166 1113.748,147.166 L1117.528,145.816 L1118.5,147.706 C1117.27599,148.678005 1115.79101,149.577996 1114.045,150.406 C1112.29899,151.234004 1110.79601,151.648 1109.536,151.648 Z M1124.98,127.078 C1126.56401,127.078 1127.743,127.401997 1128.517,128.05 C1129.291,128.698003 1129.678,130.02999 1129.678,132.046 C1129.678,133.126005 1129.354,135.330983 1128.706,138.661 C1128.058,141.991017 1127.734,144.015996 1127.734,144.736 C1127.734,146.176007 1128.022,146.896 1128.598,146.896 C1129.96601,146.896 1131.46899,145.87901 1133.107,143.845 C1134.74501,141.81099 1135.6,140.110007 1135.672,138.742 L1132,134.638 C1132.144,133.089992 1132.522,131.686006 1133.134,130.426 C1133.746,129.165994 1134.322,128.284003 1134.862,127.78 L1135.618,127.078 C1137.16601,127.078 1138.336,127.491996 1139.128,128.32 C1139.92,129.148004 1140.316,130.119994 1140.316,131.236 C1140.316,134.080014 1139.61401,137.085984 1138.21,140.254 C1136.80599,143.422016 1134.93401,146.112989 1132.594,148.327 C1130.25399,150.541011 1127.87801,151.648 1125.466,151.648 C1123.95399,151.648 1122.793,151.180005 1121.983,150.244 C1121.173,149.307995 1120.768,148.075008 1120.768,146.545 C1120.768,145.014992 1120.885,142.954013 1121.119,140.362 C1121.353,137.769987 1121.47,135.196013 1121.47,132.64 C1121.47,132.063997 1121.263,131.380004 1120.849,130.588 C1120.435,129.795996 1120.012,129.166002 1119.58,128.698 L1119.742,128.05 C1121.68601,127.401997 1123.43199,127.078 1124.98,127.078 Z M1140.802,141.658 C1140.802,137.157978 1142.16099,133.603013 1144.879,130.993 C1147.59701,128.382987 1150.68398,127.078 1154.14,127.078 C1156.26401,127.078 1158.00999,127.599995 1159.378,128.644 C1160.74601,129.688005 1161.43,131.082991 1161.43,132.829 C1161.43,134.575009 1160.989,136.041994 1160.107,137.23 C1159.225,138.418006 1158.15401,139.335997 1156.894,139.984 C1154.33799,141.244006 1151.99801,142.035998 1149.874,142.36 L1148.578,142.522 C1148.83,145.906017 1150.21599,147.598 1152.736,147.598 C1153.6,147.598 1154.518,147.382002 1155.49,146.95 C1156.462,146.517998 1157.218,146.086002 1157.758,145.654 L1158.568,145.006 L1159.864,146.734 C1159.576,147.130002 1159,147.651997 1158.136,148.3 C1157.272,148.948003 1156.462,149.487998 1155.706,149.92 C1153.61799,151.072006 1151.33201,151.648 1148.848,151.648 C1146.36399,151.648 1144.40201,150.766009 1142.962,149.002 C1141.52199,147.237991 1140.802,144.790016 1140.802,141.658 Z M1148.524,139.876 C1150.36001,139.551998 1151.81799,138.778006 1152.898,137.554 C1153.97801,136.329994 1154.518,134.74601 1154.518,132.802 C1154.518,130.85799 1153.94201,129.886 1152.79,129.886 C1151.42199,129.886 1150.369,131.046988 1149.631,133.369 C1148.893,135.691012 1148.524,137.85999 1148.524,139.876 Z M1179.79,143.926 C1179.79,146.194011 1178.79101,148.047993 1176.793,149.488 C1174.79499,150.928007 1172.51801,151.648 1169.962,151.648 C1167.40599,151.648 1165.38101,151.108005 1163.887,150.028 C1162.39299,148.947995 1161.646,147.994004 1161.646,147.166 C1161.646,146.661997 1162.27599,145.843006 1163.536,144.709 C1164.79601,143.574994 1165.858,142.882001 1166.722,142.63 C1168.52201,143.962007 1169.99799,146.067986 1171.15,148.948 C1172.48201,148.839999 1173.148,148.210006 1173.148,147.058 C1173.148,145.401992 1171.69001,143.053015 1168.774,140.011 C1165.85799,136.968985 1164.4,134.548009 1164.4,132.748 C1164.4,130.947991 1165.20999,129.553005 1166.83,128.563 C1168.45001,127.572995 1170.40299,127.078 1172.689,127.078 C1174.97501,127.078 1176.69399,127.482996 1177.846,128.293 C1178.99801,129.103004 1179.574,130.200993 1179.574,131.587 C1179.574,132.973007 1178.47601,134.889988 1176.28,137.338 C1176.532,137.590001 1176.856,137.922998 1177.252,138.337 C1177.648,138.751002 1178.17,139.533994 1178.818,140.686 C1179.466,141.838006 1179.79,142.917995 1179.79,143.926 Z M1174.606,135.448 C1176.11801,134.151994 1176.874,132.874006 1176.874,131.614 C1176.874,130.353994 1176.01001,129.724 1174.282,129.724 C1173.454,129.724 1172.77,129.894998 1172.23,130.237 C1171.69,130.579002 1171.42,130.965998 1171.42,131.398 C1171.42,132.190004 1172.21199,133.305993 1173.796,134.746 L1174.606,135.448 Z M1204.252,130.426 C1204.252,131.938008 1203.766,134.538982 1202.794,138.229 C1201.822,141.919018 1201.336,144.330994 1201.336,145.465 C1201.336,146.599006 1201.498,147.166 1201.822,147.166 C1202.038,147.166 1202.86599,146.824003 1204.306,146.14 L1204.954,145.816 L1205.872,147.706 C1205.548,147.994001 1205.116,148.353998 1204.576,148.786 C1204.036,149.218002 1203.02801,149.802996 1201.552,150.541 C1200.07599,151.279004 1198.70801,151.648 1197.448,151.648 C1196.18799,151.648 1195.198,151.261004 1194.478,150.487 C1193.758,149.712996 1193.398,148.669007 1193.398,147.355 C1193.398,146.040993 1193.848,143.701017 1194.748,140.335 C1195.648,136.968983 1196.098,134.782005 1196.098,133.774 C1196.098,132.261992 1195.63,130.840007 1194.694,129.508 L1194.208,128.86 L1194.262,128.158 C1196.17001,127.617997 1199.26598,127.348 1203.55,127.348 C1204.018,127.888003 1204.252,128.913992 1204.252,130.426 Z M1198.096,121.462 C1197.376,120.741996 1197.016,119.788006 1197.016,118.6 C1197.016,117.411994 1197.511,116.368004 1198.501,115.468 C1199.491,114.567995 1200.63399,114.118 1201.93,114.118 C1203.22601,114.118 1204.234,114.477996 1204.954,115.198 C1205.674,115.918004 1206.034,116.862994 1206.034,118.033 C1206.034,119.203006 1205.52101,120.237996 1204.495,121.138 C1203.46899,122.038004 1202.32601,122.488 1201.066,122.488 C1199.80599,122.488 1198.816,122.146003 1198.096,121.462 Z M1209.22,151.162 L1208.194,151.162 C1208.194,149.469992 1208.70699,146.230024 1209.733,141.442 C1210.75901,136.653976 1211.272,133.936003 1211.272,133.288 C1211.272,132.099994 1210.76801,130.840007 1209.76,129.508 L1209.274,128.86 L1209.328,128.158 C1211.27201,127.617997 1214.38598,127.348 1218.67,127.348 C1219.138,127.960003 1219.39,129.075992 1219.426,130.696 C1222.55802,128.283988 1225.20399,127.078 1227.364,127.078 C1228.66001,127.078 1229.695,127.527996 1230.469,128.428 C1231.243,129.328004 1231.63,130.452993 1231.63,131.803 C1231.63,133.153007 1231.216,135.483983 1230.388,138.796 C1229.56,142.108017 1229.146,144.330994 1229.146,145.465 C1229.146,146.599006 1229.29,147.166 1229.578,147.166 C1229.794,147.166 1230.54999,146.824003 1231.846,146.14 L1232.494,145.816 L1233.466,147.706 C1233.142,147.994001 1232.71,148.353998 1232.17,148.786 C1231.63,149.218002 1230.63101,149.802996 1229.173,150.541 C1227.71499,151.279004 1226.41001,151.648 1225.258,151.648 C1222.62999,151.648 1221.316,150.154015 1221.316,147.166 C1221.316,145.905994 1221.721,143.584017 1222.531,140.2 C1223.341,136.815983 1223.746,134.638005 1223.746,133.666 C1223.746,132.693995 1223.44,132.208 1222.828,132.208 C1221.78399,132.208 1220.50601,132.657995 1218.994,133.558 C1218.886,134.170003 1218.526,135.789987 1217.914,138.418 C1216.65399,144.070028 1216.024,148.065988 1216.024,150.406 C1214.76399,150.910003 1212.49602,151.162 1209.22,151.162 Z M1259.98,113.308 C1259.98,116.044014 1259.06201,121.40796 1257.226,129.4 C1259.38601,127.851992 1261.33899,127.078 1263.085,127.078 C1264.83101,127.078 1266.32499,127.806993 1267.567,129.265 C1268.80901,130.723007 1269.43,132.945985 1269.43,135.934 C1269.43,140.938025 1268.44901,144.807986 1266.487,147.544 C1264.52499,150.280014 1262.14001,151.648 1259.332,151.648 C1258.28799,151.648 1257.23501,151.522001 1256.173,151.27 C1255.11099,151.017999 1254.31,150.748001 1253.77,150.46 L1252.96,150.082 C1250.65599,150.874004 1248.40601,151.27 1246.21,151.27 C1245.994,151.089999 1245.886,150.217008 1245.886,148.651 C1245.886,147.084992 1246.89399,141.901044 1248.91,133.099 C1250.92601,124.296956 1251.934,118.276016 1251.934,115.036 C1251.934,114.459997 1251.844,113.722004 1251.664,112.822 C1254.47201,111.849995 1257.15399,111.364 1259.71,111.364 C1259.89,111.868003 1259.98,112.515996 1259.98,113.308 Z M1259.494,131.668 C1258.81,131.668 1257.78401,131.991997 1256.416,132.64 C1254.75999,139.624035 1253.86,144.627985 1253.716,147.652 C1254.79601,148.120002 1255.822,148.354 1256.794,148.354 C1258.16201,148.354 1259.305,147.094013 1260.223,144.574 C1261.141,142.053987 1261.6,139.273015 1261.6,136.231 C1261.6,133.188985 1260.89801,131.668 1259.494,131.668 Z M1279.474,151.648 C1276.98999,151.648 1275.04601,150.775009 1273.642,149.029 C1272.23799,147.282991 1271.536,144.844016 1271.536,141.712 C1271.536,137.71598 1272.60699,134.278014 1274.749,131.398 C1276.89101,128.517986 1279.85198,127.078 1283.632,127.078 L1285.576,127.186 C1286.188,126.861998 1286.872,126.7 1287.628,126.7 C1290.47201,126.7 1291.894,129.381973 1291.894,134.746 C1293.37001,134.674 1294.86399,134.476002 1296.376,134.152 L1297.24,133.936 L1297.564,136.042 C1296.37599,136.546003 1294.77401,136.995998 1292.758,137.392 L1291.678,137.608 C1290.994,141.388019 1289.60801,144.672986 1287.52,147.463 C1285.43199,150.253014 1282.75002,151.648 1279.474,151.648 Z M1282.39,147.004 C1283.90201,147.004 1285.26099,146.03201 1286.467,144.088 C1287.67301,142.14399 1288.51,140.092011 1288.978,137.932 C1285.12598,137.932 1283.2,136.492014 1283.2,133.612 C1283.2,132.459994 1283.434,131.380005 1283.902,130.372 L1284.172,129.832 C1284.028,129.76 1283.848,129.724 1283.632,129.724 C1283.416,129.724 1283.254,129.76 1283.146,129.832 C1282.246,130.408003 1281.4,131.757989 1280.608,133.882 C1279.816,136.006011 1279.42,138.435986 1279.42,141.172 C1279.42,145.060019 1280.40999,147.004 1282.39,147.004 Z M1302.1,151.648 C1299.61599,151.648 1297.67201,150.775009 1296.268,149.029 C1294.86399,147.282991 1294.162,144.844016 1294.162,141.712 C1294.162,137.71598 1295.23299,134.278014 1297.375,131.398 C1299.51701,128.517986 1302.47798,127.078 1306.258,127.078 L1308.202,127.186 C1308.814,126.861998 1309.498,126.7 1310.254,126.7 C1313.09801,126.7 1314.52,129.381973 1314.52,134.746 C1315.99601,134.674 1317.48999,134.476002 1319.002,134.152 L1319.866,133.936 L1320.19,136.042 C1319.00199,136.546003 1317.40001,136.995998 1315.384,137.392 L1314.304,137.608 C1313.62,141.388019 1312.23401,144.672986 1310.146,147.463 C1308.05799,150.253014 1305.37602,151.648 1302.1,151.648 Z M1305.016,147.004 C1306.52801,147.004 1307.88699,146.03201 1309.093,144.088 C1310.29901,142.14399 1311.136,140.092011 1311.604,137.932 C1307.75198,137.932 1305.826,136.492014 1305.826,133.612 C1305.826,132.459994 1306.06,131.380005 1306.528,130.372 L1306.798,129.832 C1306.654,129.76 1306.474,129.724 1306.258,129.724 C1306.042,129.724 1305.88,129.76 1305.772,129.832 C1304.872,130.408003 1304.026,131.757989 1303.234,133.882 C1302.442,136.006011 1302.046,138.435986 1302.046,141.172 C1302.046,145.060019 1303.03599,147.004 1305.016,147.004 Z M1322.728,115.36 C1322.728,114.171994 1322.62,113.326003 1322.404,112.822 C1325.21201,111.849995 1327.85799,111.364 1330.342,111.364 C1330.666,111.688002 1330.828,112.515993 1330.828,113.848 C1330.828,116.836015 1329.83801,122.559958 1327.858,131.02 C1331.06202,128.391987 1334.22998,127.078 1337.362,127.078 C1338.76601,127.078 1339.954,127.509996 1340.926,128.374 C1341.898,129.238004 1342.384,130.497992 1342.384,132.154 C1342.384,135.250015 1339.84603,137.499993 1334.77,138.904 C1335.95801,142.648019 1337.002,145.185993 1337.902,146.518 C1338.298,147.094003 1338.586,147.382 1338.766,147.382 C1339.162,147.382 1339.98999,147.076003 1341.25,146.464 L1341.844,146.194 L1342.708,148.03 C1341.844,148.822004 1340.64701,149.622996 1339.117,150.433 C1337.58699,151.243004 1336.19201,151.648 1334.932,151.648 C1332.12399,151.648 1330.16201,149.092026 1329.046,143.98 C1328.542,141.783989 1328.236,139.73201 1328.128,137.824 C1330.43201,137.283997 1332.15099,136.627004 1333.285,135.853 C1334.41901,135.078996 1334.986,134.089006 1334.986,132.883 C1334.986,131.676994 1334.37401,131.074 1333.15,131.074 C1331.92599,131.074 1329.87401,132.297988 1326.994,134.746 C1325.19399,142.342038 1324.294,147.543986 1324.294,150.352 C1322.31399,150.928003 1319.74002,151.216 1316.572,151.216 C1316.536,150.603997 1316.518,150.064002 1316.518,149.596 C1316.518,148.047992 1317.55299,142.756045 1319.623,133.72 C1321.69301,124.683955 1322.728,118.564016 1322.728,115.36 Z M1360.744,143.926 C1360.744,146.194011 1359.74501,148.047993 1357.747,149.488 C1355.74899,150.928007 1353.47201,151.648 1350.916,151.648 C1348.35999,151.648 1346.33501,151.108005 1344.841,150.028 C1343.34699,148.947995 1342.6,147.994004 1342.6,147.166 C1342.6,146.661997 1343.22999,145.843006 1344.49,144.709 C1345.75001,143.574994 1346.812,142.882001 1347.676,142.63 C1349.47601,143.962007 1350.95199,146.067986 1352.104,148.948 C1353.43601,148.839999 1354.102,148.210006 1354.102,147.058 C1354.102,145.401992 1352.64401,143.053015 1349.728,140.011 C1346.81199,136.968985 1345.354,134.548009 1345.354,132.748 C1345.354,130.947991 1346.16399,129.553005 1347.784,128.563 C1349.40401,127.572995 1351.35699,127.078 1353.643,127.078 C1355.92901,127.078 1357.64799,127.482996 1358.8,128.293 C1359.95201,129.103004 1360.528,130.200993 1360.528,131.587 C1360.528,132.973007 1359.43001,134.889988 1357.234,137.338 C1357.486,137.590001 1357.81,137.922998 1358.206,138.337 C1358.602,138.751002 1359.124,139.533994 1359.772,140.686 C1360.42,141.838006 1360.744,142.917995 1360.744,143.926 Z M1355.56,135.448 C1357.07201,134.151994 1357.828,132.874006 1357.828,131.614 C1357.828,130.353994 1356.96401,129.724 1355.236,129.724 C1354.408,129.724 1353.724,129.894998 1353.184,130.237 C1352.644,130.579002 1352.374,130.965998 1352.374,131.398 C1352.374,132.190004 1353.16599,133.305993 1354.75,134.746 L1355.56,135.448 Z M1367.872,151.648 C1366.61199,151.648 1365.64,151.270004 1364.956,150.514 C1364.272,149.757996 1363.93,148.750006 1363.93,147.49 C1363.93,146.229994 1364.398,145.141005 1365.334,144.223 C1366.27,143.304995 1367.37699,142.846 1368.655,142.846 C1369.93301,142.846 1370.914,143.214996 1371.598,143.953 C1372.282,144.691004 1372.624,145.680994 1372.624,146.923 C1372.624,148.165006 1372.147,149.262995 1371.193,150.217 C1370.239,151.171005 1369.13201,151.648 1367.872,151.648 Z M745.824,222.743 L746.237,204.04 C746.237,199.083975 745.942003,195.898007 745.352,194.482 L742.461,189.998 L742.638,189.113 C745.430681,188.483664 749.442641,188.169 754.674,188.169 C755.421337,189.309672 755.795,191.423818 755.795,194.5115 C755.795,197.599182 755.598335,201.748807 755.205,206.9605 C754.811665,212.172193 754.615,216.193986 754.615,219.026 C754.615,221.858014 755.28366,223.274 756.621,223.274 C757.407671,223.274 758.548326,222.63484 760.043,221.3565 C761.537674,220.07816 762.815995,218.691674 763.878,217.197 C764.743338,208.307622 765.176,202.309349 765.176,199.202 C765.176,196.094651 764.743338,193.20368 763.878,190.529 C765.962677,189.466995 769.384643,188.660669 774.144,188.11 C774.576669,189.526007 774.793,191.522154 774.793,194.0985 C774.793,196.674846 774.389837,201.148968 773.5835,207.521 C772.777163,213.893032 772.374,218.11149 772.374,220.1765 C772.374,222.24151 772.973827,223.274 774.1735,223.274 C775.373173,223.274 776.995656,222.133345 779.041,219.852 C781.086344,217.570655 782.964491,214.72885 784.6755,211.3265 C786.386509,207.92415 787.340332,204.846347 787.537,202.093 L781.283,198.435 C781.558335,196.074988 782.118829,194.039509 782.9645,192.3285 C783.810171,190.617491 784.586996,189.486669 785.295,188.936 L786.357,188.11 C788.756345,188.11 790.59516,188.729494 791.8735,189.9685 C793.15184,191.207506 793.791,192.672658 793.791,194.364 C793.791,197.550016 792.994508,201.266979 791.4015,205.515 C789.808492,209.763021 787.841845,213.735648 785.5015,217.433 C783.161155,221.130352 780.496348,224.267154 777.507,226.8435 C774.517652,229.419846 771.764346,230.708 769.247,230.708 C767.752326,230.708 766.424839,230.000007 765.2645,228.584 C764.104161,227.167993 763.504334,225.358678 763.465,223.156 C761.734325,225.516012 759.905343,227.36466 757.978,228.702 C756.050657,230.03934 754.202009,230.708 752.432,230.708 C750.661991,230.708 749.118173,229.970507 747.8005,228.4955 C746.482827,227.020493 745.824,225.103012 745.824,222.743 Z M793.024,219.793 C793.024,214.876309 794.508818,210.992181 797.4785,208.1405 C800.448182,205.288819 803.820981,203.863 807.597,203.863 C809.917678,203.863 811.825326,204.433328 813.32,205.574 C814.814674,206.714672 815.562,208.238824 815.562,210.1465 C815.562,212.054176 815.080171,213.656994 814.1165,214.955 C813.152829,216.253006 811.982674,217.255996 810.606,217.964 C807.813319,219.340674 805.256678,220.205998 802.936,220.56 L801.52,220.737 C801.795335,224.434352 803.309653,226.283 806.063,226.283 C807.007005,226.283 808.009995,226.047002 809.072,225.575 C810.134005,225.102998 810.959997,224.631002 811.55,224.159 L812.435,223.451 L813.851,225.339 C813.536332,225.771669 812.907005,226.341996 811.963,227.05 C811.018995,227.758004 810.134004,228.347998 809.308,228.82 C807.026655,230.078673 804.529014,230.708 801.815,230.708 C799.100986,230.708 796.957341,229.744343 795.384,227.817 C793.810659,225.889657 793.024,223.215017 793.024,219.793 Z M801.461,217.846 C803.46701,217.491998 805.059994,216.64634 806.24,215.309 C807.420006,213.97166 808.01,212.241011 808.01,210.117 C808.01,207.992989 807.380673,206.931 806.122,206.931 C804.627326,206.931 803.476837,208.199487 802.6705,210.7365 C801.864163,213.273513 801.461,215.643322 801.461,217.846 Z M861.0215,229.469 C861.0215,230.019669 860.864168,230.295 860.5495,230.295 C859.762829,230.295 858.73034,230.245834 857.452,230.1475 C856.05566,230.049166 854.865838,230 853.8825,230 C852.938495,230 851.778174,230.049166 850.4015,230.1475 C849.12316,230.245834 848.090671,230.295 847.304,230.295 C846.989332,230.295 846.832,230.019669 846.832,229.469 C846.832,228.977331 846.989332,228.711834 847.304,228.6725 C848.975675,228.475832 850.062247,228.077586 850.56375,227.47775 C851.065253,226.877914 851.316,225.614343 851.316,223.687 L851.316,211.946 C851.316,210.805328 851.075086,210.008836 850.59325,209.5565 C850.111414,209.104164 849.251006,208.878 848.012,208.878 L838.867,208.878 L838.867,223.687 C838.867,225.614343 839.112831,226.877914 839.6045,227.47775 C840.096169,228.077586 841.187658,228.475832 842.879,228.6725 C843.193668,228.711834 843.351,228.977331 843.351,229.469 C843.351,230.019669 843.193668,230.295 842.879,230.295 C842.072663,230.295 841.040173,230.245834 839.7815,230.1475 C838.365493,230.049166 837.175671,230 836.212,230 C835.267995,230 834.09784,230.049166 832.7015,230.1475 C831.442827,230.245834 830.410337,230.295 829.604,230.295 C829.289332,230.295 829.132,230.019669 829.132,229.469 C829.132,228.977331 829.289332,228.711834 829.604,228.6725 C831.275675,228.475832 832.362247,228.077586 832.86375,227.47775 C833.365253,226.877914 833.616,225.614343 833.616,223.687 L833.616,209.645 C833.616,209.054997 833.380002,208.76 832.908,208.76 L829.899,208.76 C829.466331,208.76 829.25,208.504336 829.25,207.993 C829.25,207.481664 829.426998,207.186667 829.781,207.108 C832.337679,206.537664 833.616,206.006669 833.616,205.515 C833.616,202.525652 834.338743,199.585514 835.78425,196.6945 C837.229757,193.803486 839.147238,191.536925 841.53675,189.89475 C843.926262,188.252575 846.536986,187.4315 849.369,187.4315 C851.060342,187.4315 852.58941,187.844496 853.95625,188.6705 C855.32309,189.496504 856.0065,190.420828 856.0065,191.4435 C856.0065,192.977508 855.03301,193.7445 853.086,193.7445 C852.318996,193.7445 851.473338,193.390504 850.549,192.6825 C849.15266,191.581161 847.559676,191.0305 845.77,191.0305 C841.246644,191.0305 838.985,193.960804 838.985,199.8215 L838.985,205.928 L848.012,205.928 C851.788019,205.928 854.295494,205.308506 855.5345,204.0695 C855.750834,203.853166 855.967166,203.745 856.1835,203.745 C856.734169,203.745 857.0095,203.902332 857.0095,204.217 C856.694832,208.524022 856.5375,211.945987 856.5375,214.483 L856.5375,223.687 C856.5375,225.614343 856.788247,226.877914 857.28975,227.47775 C857.791253,228.077586 858.877825,228.475832 860.5495,228.6725 C860.864168,228.711834 861.0215,228.977331 861.0215,229.469 Z M893.2945,229.528 C893.2945,230.078669 893.137168,230.354 892.8225,230.354 C892.035829,230.354 891.072172,230.295001 889.9315,230.177 C888.672827,230.058999 887.561671,230 886.598,230 C885.614662,230 884.48384,230.058999 883.2055,230.177 C882.045161,230.295001 881.071671,230.354 880.285,230.354 C879.970332,230.354 879.813,230.078669 879.813,229.528 C879.813,229.036331 879.970332,228.770834 880.285,228.7315 C881.642007,228.574166 882.531915,228.19067 882.95475,227.581 C883.377585,226.97133 883.589,225.69301 883.589,223.746 L883.589,213.893 C883.589,211.690322 883.156338,210.077672 882.291,209.055 C881.425662,208.032328 880.088342,207.521 878.279,207.521 C877.138328,207.521 876.130421,207.737331 875.25525,208.17 C874.380079,208.602669 873.441005,209.369661 872.438,210.471 L872.438,223.746 C872.438,225.69301 872.649415,226.97133 873.07225,227.581 C873.495085,228.19067 874.384993,228.574166 875.742,228.7315 C876.056668,228.770834 876.214,229.036331 876.214,229.528 C876.214,230.078669 876.056668,230.354 875.742,230.354 C874.935663,230.354 873.952339,230.295001 872.792,230.177 C871.51366,230.058999 870.392671,230 869.429,230 C868.484995,230 867.383673,230.058999 866.125,230.177 C864.964661,230.295001 863.981337,230.354 863.175,230.354 C862.860332,230.354 862.703,230.078669 862.703,229.528 C862.703,229.036331 862.860332,228.770834 863.175,228.7315 C864.866342,228.515166 865.957831,228.107086 866.4495,227.50725 C866.941169,226.907414 867.187,225.653676 867.187,223.746 L867.187,212.831 C867.187,211.257659 866.985419,210.225169 866.58225,209.7335 C866.179081,209.241831 865.27934,208.917334 863.883,208.76 C863.568332,208.76 863.411,208.504336 863.411,207.993 C863.411,207.520998 863.568332,207.285 863.883,207.285 C865.83001,206.793331 867.452494,206.237753 868.7505,205.61825 C870.048506,204.998747 870.864665,204.492335 871.199,204.099 C871.395668,203.862999 871.611999,203.745 871.848,203.745 C872.398669,203.745 872.674,203.902332 872.674,204.217 L872.438,207.934 C875.270014,205.298653 877.905321,203.981 880.344,203.981 C883.01868,203.981 885.108242,204.747992 886.61275,206.282 C888.117258,207.816008 888.8695,209.880987 888.8695,212.477 L888.8695,223.746 C888.8695,225.673343 889.110414,226.931997 889.59225,227.522 C890.074086,228.112003 891.150825,228.515166 892.8225,228.7315 C893.137168,228.770834 893.2945,229.036331 893.2945,229.528 Z M925.2135,228.407 C925.2135,228.820002 925.056168,229.046166 924.7415,229.0855 C923.620494,229.223167 922.322507,229.498498 920.8475,229.9115 C919.372493,230.324502 918.222004,230.737498 917.396,231.1505 C916.963331,231.366834 916.648668,231.475 916.452,231.475 C916.137332,231.475 915.98,231.317668 915.98,231.003 L916.216,227.817 C914.131323,230.098345 911.476349,231.239 908.251,231.239 C904.84865,231.239 901.952762,229.93118 899.56325,227.3155 C897.173738,224.69982 895.979,221.563018 895.979,217.905 C895.979,213.755313 897.30157,210.397263 899.94675,207.83075 C902.59193,205.264237 905.910647,203.981 909.903,203.981 C912.184345,203.981 914.288657,204.688993 916.216,206.105 L916.216,196.2815 C916.216,194.688492 916.019335,193.646169 915.626,193.1545 C915.232665,192.662831 914.328007,192.338334 912.912,192.181 C912.597332,192.141666 912.44,191.895836 912.44,191.4435 C912.44,190.932164 912.597332,190.6765 912.912,190.6765 C914.760676,190.243831 916.363493,189.72267 917.7205,189.113 C919.077507,188.50333 919.991998,187.962502 920.464,187.4905 C920.660668,187.293832 920.867166,187.1955 921.0835,187.1955 C921.634169,187.1955 921.9095,187.352832 921.9095,187.6675 C921.594832,191.954855 921.4375,195.376821 921.4375,197.9335 L921.4375,223.923 C921.4375,225.280007 921.634165,226.189581 922.0275,226.65175 C922.420835,227.113919 923.325493,227.443332 924.7415,227.64 C925.056168,227.64 925.2135,227.895664 925.2135,228.407 Z M916.216,225.221 L916.216,210.117 C916.216,209.094328 915.621089,208.130671 914.43125,207.226 C913.241411,206.321329 911.94834,205.869 910.552,205.869 C904.809305,205.869 901.938,209.900626 901.938,217.964 C901.938,221.150016 902.626326,223.795156 904.003,225.8995 C905.379674,228.003844 907.188989,229.056 909.431,229.056 C910.70934,229.056 911.869661,228.76592 912.912,228.18575 C913.954339,227.60558 915.055661,226.61734 916.216,225.221 Z M947.427,230.708 C944.712986,230.708 942.589008,229.754176 941.055,227.8465 C939.520992,225.938824 938.754,223.274017 938.754,219.852 C938.754,215.485978 939.924155,211.729682 942.2645,208.583 C944.604845,205.436318 947.839979,203.863 951.97,203.863 L954.094,203.981 C954.76267,203.626998 955.509996,203.45 956.336,203.45 C959.443349,203.45 960.997,206.380304 960.997,212.241 C962.609675,212.162333 964.241992,211.946002 965.894,211.592 L966.838,211.356 L967.192,213.657 C965.893994,214.207669 964.143678,214.699331 961.941,215.132 L960.761,215.368 C960.013663,219.498021 958.499345,223.087151 956.218,226.1355 C953.936655,229.183849 951.006351,230.708 947.427,230.708 Z M950.613,225.634 C952.265008,225.634 953.749827,224.572011 955.0675,222.448 C956.385173,220.323989 957.299664,218.082012 957.811,215.722 C953.602312,215.722 951.498,214.148682 951.498,211.002 C951.498,209.743327 951.753664,208.563339 952.265,207.462 L952.56,206.872 C952.402666,206.793333 952.206001,206.754 951.97,206.754 C951.733999,206.754 951.557001,206.793333 951.439,206.872 C950.455662,207.501336 949.531338,208.976322 948.666,211.297 C947.800662,213.617678 947.368,216.272652 947.368,219.262 C947.368,223.510021 948.449656,225.634 950.613,225.634 Z M963.18,225.575 C963.18,223.883658 963.691328,221.00252 964.714,216.9315 C965.736672,212.86048 966.248,210.362838 966.248,209.4385 C966.248,208.514162 965.540007,207.285008 964.124,205.751 L964.183,204.984 C966.85768,204.433331 970.377978,204.158 974.744,204.158 C974.940668,204.669336 975.039,205.59366 975.039,206.931 C975.039,208.26834 974.488339,211.119978 973.387,215.486 C972.285661,219.852022 971.735,222.565995 971.735,223.628 C971.735,224.690005 972.128329,225.221 972.915,225.221 C974.055672,225.221 975.373326,224.808004 976.868,223.982 C977.025334,223.037995 977.418664,221.22868 978.048,218.554 C979.464007,212.260635 980.172,207.757014 980.172,205.043 C981.548674,204.492331 984.026649,204.217 987.606,204.217 L988.727,204.217 C988.727,206.065676 988.176339,209.674473 987.075,215.0435 C985.973661,220.412527 985.423,223.559162 985.423,224.4835 C985.423,225.407838 985.619665,225.87 986.013,225.87 C986.249001,225.87 987.36999,225.398005 989.376,224.454 L990.497,226.342 C986.996316,229.252681 983.928347,230.708 981.293,230.708 C980.034327,230.708 978.962504,230.354004 978.0775,229.646 C977.192496,228.937996 976.691001,228.013672 976.573,226.873 C973.386984,229.469013 970.496013,230.767 967.9,230.767 C966.523326,230.767 965.392504,230.314671 964.5075,229.41 C963.622496,228.505329 963.18,227.227008 963.18,225.575 Z M993.329,230.177 L992.916,230.177 C992.837333,229.862332 992.798,229.144506 992.798,228.0235 C992.798,226.902494 993.328995,223.883691 994.391,218.967 C995.453005,214.050309 995.984,211.238004 995.984,210.53 C995.984,209.310661 995.433339,207.973341 994.332,206.518 L993.801,205.81 L993.86,205.043 C995.984011,204.452997 999.38631,204.158 1004.067,204.158 C1004.539,205.180672 1004.775,206.616324 1004.775,208.465 C1005.20767,207.756996 1006.11233,206.813006 1007.489,205.633 C1008.86567,204.452994 1010.28166,203.863 1011.737,203.863 C1013.86101,203.863 1014.923,205.711648 1014.923,209.409 C1014.72633,209.645001 1014.46084,209.949831 1014.1265,210.3235 C1013.79216,210.697169 1013.12351,211.21833 1012.1205,211.887 C1011.11749,212.55567 1010.144,212.968666 1009.2,213.126 C1009.16067,213.126 1008.82634,212.595005 1008.197,211.533 C1007.56766,210.470995 1007.09567,209.94 1006.781,209.94 C1005.79766,210.294002 1004.93234,210.883996 1004.185,211.71 C1002.37566,219.852041 1001.471,225.122655 1001.471,227.522 C1001.471,228.387338 1001.49067,228.996998 1001.53,229.351 C1000.15333,229.901669 997.419687,230.177 993.329,230.177 Z M1032.741,222.271 C1032.741,224.749012 1031.64951,226.774659 1029.4665,228.348 C1027.28349,229.921341 1024.79568,230.708 1022.003,230.708 C1019.21032,230.708 1016.99784,230.118006 1015.3655,228.938 C1013.73316,227.757994 1012.917,226.715671 1012.917,225.811 C1012.917,225.260331 1013.60533,224.365506 1014.982,223.1265 C1016.35867,221.887494 1017.519,221.130335 1018.463,220.855 C1020.42968,222.310341 1022.04233,224.611318 1023.301,227.758 C1024.75634,227.639999 1025.484,226.951673 1025.484,225.693 C1025.484,223.883658 1023.89102,221.317183 1020.705,217.9935 C1017.51898,214.669817 1015.926,212.024676 1015.926,210.058 C1015.926,208.091323 1016.81099,206.567172 1018.581,205.4855 C1020.35101,204.403828 1022.48482,203.863 1024.9825,203.863 C1027.48018,203.863 1029.35833,204.305496 1030.617,205.1905 C1031.87567,206.075504 1032.505,207.275159 1032.505,208.7895 C1032.505,210.303841 1031.30535,212.39832 1028.906,215.073 C1029.18133,215.348335 1029.53533,215.712164 1029.968,216.1645 C1030.40067,216.616836 1030.971,217.472327 1031.679,218.731 C1032.387,219.989673 1032.741,221.169661 1032.741,222.271 Z M1027.077,213.008 C1028.72901,211.591993 1029.555,210.195674 1029.555,208.819 C1029.555,207.442326 1028.61101,206.754 1026.723,206.754 C1025.81833,206.754 1025.071,206.940831 1024.481,207.3145 C1023.891,207.688169 1023.596,208.110998 1023.596,208.583 C1023.596,209.448338 1024.46132,210.667659 1026.192,212.241 L1027.077,213.008 Z M1035.219,219.793 C1035.219,214.876309 1036.70382,210.992181 1039.6735,208.1405 C1042.64318,205.288819 1046.01598,203.863 1049.792,203.863 C1052.11268,203.863 1054.02033,204.433328 1055.515,205.574 C1057.00967,206.714672 1057.757,208.238824 1057.757,210.1465 C1057.757,212.054176 1057.27517,213.656994 1056.3115,214.955 C1055.34783,216.253006 1054.17767,217.255996 1052.801,217.964 C1050.00832,219.340674 1047.45168,220.205998 1045.131,220.56 L1043.715,220.737 C1043.99033,224.434352 1045.50465,226.283 1048.258,226.283 C1049.202,226.283 1050.20499,226.047002 1051.267,225.575 C1052.32901,225.102998 1053.155,224.631002 1053.745,224.159 L1054.63,223.451 L1056.046,225.339 C1055.73133,225.771669 1055.102,226.341996 1054.158,227.05 C1053.214,227.758004 1052.329,228.347998 1051.503,228.82 C1049.22166,230.078673 1046.72401,230.708 1044.01,230.708 C1041.29599,230.708 1039.15234,229.744343 1037.579,227.817 C1036.00566,225.889657 1035.219,223.215017 1035.219,219.793 Z M1043.656,217.846 C1045.66201,217.491998 1047.25499,216.64634 1048.435,215.309 C1049.61501,213.97166 1050.205,212.241011 1050.205,210.117 C1050.205,207.992989 1049.57567,206.931 1048.317,206.931 C1046.82233,206.931 1045.67184,208.199487 1044.8655,210.7365 C1044.05916,213.273513 1043.656,215.643322 1043.656,217.846 Z M1063.539,230.708 C1062.20166,230.708 1061.0905,230.255671 1060.2055,229.351 C1059.3205,228.446329 1058.878,227.177841 1058.878,225.5455 C1058.878,223.913159 1059.85149,218.701544 1061.7985,209.9105 C1063.74551,201.119456 1064.719,194.777019 1064.719,190.883 L1064.365,188.287 C1067.43302,187.224995 1070.30432,186.694 1072.979,186.694 C1073.37234,187.244669 1073.569,188.208326 1073.569,189.585 C1073.569,192.731682 1072.57584,198.818455 1070.5895,207.8455 C1068.60316,216.872545 1067.61,222.123493 1067.61,223.5985 C1067.61,225.073507 1067.787,225.811 1068.141,225.811 L1072.271,224.336 L1073.333,226.401 C1071.99566,227.463005 1070.37318,228.446329 1068.4655,229.351 C1066.55782,230.255671 1064.91567,230.708 1063.539,230.708 Z M1080.413,203.863 C1082.14368,203.863 1083.43183,204.216996 1084.2775,204.925 C1085.12317,205.633004 1085.546,207.088322 1085.546,209.291 C1085.546,210.471006 1085.192,212.880148 1084.484,216.5185 C1083.776,220.156852 1083.422,222.369329 1083.422,223.156 C1083.422,224.729341 1083.73666,225.516 1084.366,225.516 C1085.86067,225.516 1087.50282,224.404844 1089.2925,222.1825 C1091.08218,219.960156 1092.01633,218.101674 1092.095,216.607 L1088.083,212.123 C1088.24033,210.431658 1088.65333,208.897674 1089.322,207.521 C1089.99067,206.144326 1090.62,205.180669 1091.21,204.63 L1092.036,203.863 C1093.72734,203.863 1095.00566,204.315329 1095.871,205.22 C1096.73634,206.124671 1097.169,207.186661 1097.169,208.406 C1097.169,211.513349 1096.40201,214.797649 1094.868,218.259 C1093.33399,221.720351 1091.28868,224.660488 1088.732,227.0795 C1086.17532,229.498512 1083.57935,230.708 1080.944,230.708 C1079.29199,230.708 1078.0235,230.196672 1077.1385,229.174 C1076.2535,228.151328 1075.811,226.804175 1075.811,225.1325 C1075.811,223.460825 1075.93883,221.209014 1076.1945,218.377 C1076.45017,215.544986 1076.578,212.732681 1076.578,209.94 C1076.578,209.310664 1076.35184,208.563338 1075.8995,207.698 C1075.44716,206.832662 1074.985,206.144336 1074.513,205.633 L1074.69,204.925 C1076.81401,204.216996 1078.72166,203.863 1080.413,203.863 Z M1097.7,219.793 C1097.7,214.876309 1099.18482,210.992181 1102.1545,208.1405 C1105.12418,205.288819 1108.49698,203.863 1112.273,203.863 C1114.59368,203.863 1116.50133,204.433328 1117.996,205.574 C1119.49067,206.714672 1120.238,208.238824 1120.238,210.1465 C1120.238,212.054176 1119.75617,213.656994 1118.7925,214.955 C1117.82883,216.253006 1116.65867,217.255996 1115.282,217.964 C1112.48932,219.340674 1109.93268,220.205998 1107.612,220.56 L1106.196,220.737 C1106.47133,224.434352 1107.98565,226.283 1110.739,226.283 C1111.683,226.283 1112.68599,226.047002 1113.748,225.575 C1114.81001,225.102998 1115.636,224.631002 1116.226,224.159 L1117.111,223.451 L1118.527,225.339 C1118.21233,225.771669 1117.583,226.341996 1116.639,227.05 C1115.695,227.758004 1114.81,228.347998 1113.984,228.82 C1111.70266,230.078673 1109.20501,230.708 1106.491,230.708 C1103.77699,230.708 1101.63334,229.744343 1100.06,227.817 C1098.48666,225.889657 1097.7,223.215017 1097.7,219.793 Z M1106.137,217.846 C1108.14301,217.491998 1109.73599,216.64634 1110.916,215.309 C1112.09601,213.97166 1112.686,212.241011 1112.686,210.117 C1112.686,207.992989 1112.05667,206.931 1110.798,206.931 C1109.30333,206.931 1108.15284,208.199487 1107.3465,210.7365 C1106.54016,213.273513 1106.137,215.643322 1106.137,217.846 Z M1140.298,222.271 C1140.298,224.749012 1139.20651,226.774659 1137.0235,228.348 C1134.84049,229.921341 1132.35268,230.708 1129.56,230.708 C1126.76732,230.708 1124.55484,230.118006 1122.9225,228.938 C1121.29016,227.757994 1120.474,226.715671 1120.474,225.811 C1120.474,225.260331 1121.16233,224.365506 1122.539,223.1265 C1123.91567,221.887494 1125.076,221.130335 1126.02,220.855 C1127.98668,222.310341 1129.59933,224.611318 1130.858,227.758 C1132.31334,227.639999 1133.041,226.951673 1133.041,225.693 C1133.041,223.883658 1131.44802,221.317183 1128.262,217.9935 C1125.07598,214.669817 1123.483,212.024676 1123.483,210.058 C1123.483,208.091323 1124.36799,206.567172 1126.138,205.4855 C1127.90801,204.403828 1130.04182,203.863 1132.5395,203.863 C1135.03718,203.863 1136.91533,204.305496 1138.174,205.1905 C1139.43267,206.075504 1140.062,207.275159 1140.062,208.7895 C1140.062,210.303841 1138.86235,212.39832 1136.463,215.073 C1136.73833,215.348335 1137.09233,215.712164 1137.525,216.1645 C1137.95767,216.616836 1138.528,217.472327 1139.236,218.731 C1139.944,219.989673 1140.298,221.169661 1140.298,222.271 Z M1134.634,213.008 C1136.28601,211.591993 1137.112,210.195674 1137.112,208.819 C1137.112,207.442326 1136.16801,206.754 1134.28,206.754 C1133.37533,206.754 1132.628,206.940831 1132.038,207.3145 C1131.448,207.688169 1131.153,208.110998 1131.153,208.583 C1131.153,209.448338 1132.01832,210.667659 1133.749,212.241 L1134.634,213.008 Z M1173.279,204.571 C1173.20033,205.554338 1172.866,206.694994 1172.276,207.993 C1170.78133,207.835666 1169.36534,207.757 1168.028,207.757 L1166.966,207.757 C1165.15666,216.528377 1164.252,221.995656 1164.252,224.159 C1164.252,225.299672 1164.49783,225.87 1164.9895,225.87 C1165.48117,225.87 1166.78899,225.378338 1168.913,224.395 L1169.975,226.342 C1166.47432,229.252681 1163.22935,230.708 1160.24,230.708 C1158.86333,230.708 1157.7325,230.275338 1156.8475,229.41 C1155.9625,228.544662 1155.52,227.394174 1155.52,225.9585 C1155.52,224.522826 1155.68716,222.900342 1156.0215,221.091 C1156.35584,219.281658 1156.818,217.06918 1157.408,214.4535 C1157.998,211.83782 1158.43067,209.723675 1158.706,208.111 C1157.25066,208.229001 1156.169,208.346999 1155.461,208.465 C1155.38233,207.992998 1155.343,207.353837 1155.343,206.5475 C1155.343,205.741163 1155.402,205.082336 1155.52,204.571 L1159.237,204.571 C1159.55167,202.446989 1159.709,200.441009 1159.709,198.553 L1159.65,196.724 L1159.65,196.547 C1162.71802,195.484995 1165.60899,194.954 1168.323,194.954 C1168.48033,195.740671 1168.559,196.723994 1168.559,197.904 C1168.559,199.084006 1168.22467,201.306317 1167.556,204.571 L1173.279,204.571 Z M1179.12,191.06 C1179.12,189.761994 1179.002,188.837669 1178.766,188.287 C1181.83402,187.224995 1184.72499,186.694 1187.439,186.694 C1187.793,187.048002 1187.97,187.952659 1187.97,189.408 C1187.97,192.004013 1186.86868,197.98262 1184.666,207.344 C1187.85202,205.023322 1190.64465,203.863 1193.044,203.863 C1194.53867,203.863 1195.6695,204.334995 1196.4365,205.279 C1197.2035,206.223005 1197.587,207.471826 1197.587,209.0255 C1197.587,210.579174 1197.13467,213.116149 1196.23,216.6365 C1195.32533,220.156851 1194.873,222.565994 1194.873,223.864 C1194.873,225.162006 1195.03033,225.811 1195.345,225.811 C1195.65967,225.811 1196.48566,225.457004 1197.823,224.749 L1198.531,224.395 L1199.593,226.46 C1199.239,226.774668 1198.767,227.167998 1198.177,227.64 C1197.587,228.112002 1196.50534,228.741329 1194.932,229.528 C1193.35866,230.314671 1191.91317,230.708 1190.5955,230.708 C1189.27783,230.708 1188.22567,230.285171 1187.439,229.4395 C1186.65233,228.593829 1186.259,227.453174 1186.259,226.0175 C1186.259,224.581826 1186.7015,221.966186 1187.5865,218.1705 C1188.4715,214.374814 1188.914,211.975505 1188.914,210.9725 C1188.914,209.969495 1188.501,209.468 1187.675,209.468 C1186.65233,209.468 1185.37401,209.900662 1183.84,210.766 C1181.67666,220.284714 1180.595,226.459986 1180.595,229.292 C1178.94299,229.921336 1176.13069,230.236 1172.158,230.236 C1172.11867,229.56733 1172.099,228.977336 1172.099,228.466 C1172.099,226.774658 1173.26915,220.992716 1175.6095,211.12 C1177.94985,201.247284 1179.12,194.560684 1179.12,191.06 Z M1201.245,219.793 C1201.245,214.876309 1202.72982,210.992181 1205.6995,208.1405 C1208.66918,205.288819 1212.04198,203.863 1215.818,203.863 C1218.13868,203.863 1220.04633,204.433328 1221.541,205.574 C1223.03567,206.714672 1223.783,208.238824 1223.783,210.1465 C1223.783,212.054176 1223.30117,213.656994 1222.3375,214.955 C1221.37383,216.253006 1220.20367,217.255996 1218.827,217.964 C1216.03432,219.340674 1213.47768,220.205998 1211.157,220.56 L1209.741,220.737 C1210.01633,224.434352 1211.53065,226.283 1214.284,226.283 C1215.228,226.283 1216.23099,226.047002 1217.293,225.575 C1218.35501,225.102998 1219.181,224.631002 1219.771,224.159 L1220.656,223.451 L1222.072,225.339 C1221.75733,225.771669 1221.128,226.341996 1220.184,227.05 C1219.24,227.758004 1218.355,228.347998 1217.529,228.82 C1215.24766,230.078673 1212.75001,230.708 1210.036,230.708 C1207.32199,230.708 1205.17834,229.744343 1203.605,227.817 C1202.03166,225.889657 1201.245,223.215017 1201.245,219.793 Z M1209.682,217.846 C1211.68801,217.491998 1213.28099,216.64634 1214.461,215.309 C1215.64101,213.97166 1216.231,212.241011 1216.231,210.117 C1216.231,207.992989 1215.60167,206.931 1214.343,206.931 C1212.84833,206.931 1211.69784,208.199487 1210.8915,210.7365 C1210.08516,213.273513 1209.682,215.643322 1209.682,217.846 Z M1226.202,230.177 L1225.789,230.177 C1225.71033,229.862332 1225.671,229.144506 1225.671,228.0235 C1225.671,226.902494 1226.20199,223.883691 1227.264,218.967 C1228.32601,214.050309 1228.857,211.238004 1228.857,210.53 C1228.857,209.310661 1228.30634,207.973341 1227.205,206.518 L1226.674,205.81 L1226.733,205.043 C1228.85701,204.452997 1232.25931,204.158 1236.94,204.158 C1237.412,205.180672 1237.648,206.616324 1237.648,208.465 C1238.08067,207.756996 1238.98533,206.813006 1240.362,205.633 C1241.73867,204.452994 1243.15466,203.863 1244.61,203.863 C1246.73401,203.863 1247.796,205.711648 1247.796,209.409 C1247.59933,209.645001 1247.33384,209.949831 1246.9995,210.3235 C1246.66516,210.697169 1245.99651,211.21833 1244.9935,211.887 C1243.99049,212.55567 1243.017,212.968666 1242.073,213.126 C1242.03367,213.126 1241.69934,212.595005 1241.07,211.533 C1240.44066,210.470995 1239.96867,209.94 1239.654,209.94 C1238.67066,210.294002 1237.80534,210.883996 1237.058,211.71 C1235.24866,219.852041 1234.344,225.122655 1234.344,227.522 C1234.344,228.387338 1234.36367,228.996998 1234.403,229.351 C1233.02633,229.901669 1230.29269,230.177 1226.202,230.177 Z M1246.262,219.793 C1246.262,214.876309 1247.74682,210.992181 1250.7165,208.1405 C1253.68618,205.288819 1257.05898,203.863 1260.835,203.863 C1263.15568,203.863 1265.06333,204.433328 1266.558,205.574 C1268.05267,206.714672 1268.8,208.238824 1268.8,210.1465 C1268.8,212.054176 1268.31817,213.656994 1267.3545,214.955 C1266.39083,216.253006 1265.22067,217.255996 1263.844,217.964 C1261.05132,219.340674 1258.49468,220.205998 1256.174,220.56 L1254.758,220.737 C1255.03333,224.434352 1256.54765,226.283 1259.301,226.283 C1260.245,226.283 1261.24799,226.047002 1262.31,225.575 C1263.37201,225.102998 1264.198,224.631002 1264.788,224.159 L1265.673,223.451 L1267.089,225.339 C1266.77433,225.771669 1266.145,226.341996 1265.201,227.05 C1264.257,227.758004 1263.372,228.347998 1262.546,228.82 C1260.26466,230.078673 1257.76701,230.708 1255.053,230.708 C1252.33899,230.708 1250.19534,229.744343 1248.622,227.817 C1247.04866,225.889657 1246.262,223.215017 1246.262,219.793 Z M1254.699,217.846 C1256.70501,217.491998 1258.29799,216.64634 1259.478,215.309 C1260.65801,213.97166 1261.248,212.241011 1261.248,210.117 C1261.248,207.992989 1260.61867,206.931 1259.36,206.931 C1257.86533,206.931 1256.71484,208.199487 1255.9085,210.7365 C1255.10216,213.273513 1254.699,215.643322 1254.699,217.846 Z M1269.685,229.056 C1269.685,226.223986 1270.78632,223.569012 1272.989,221.091 C1275.03434,221.091 1276.72566,221.690827 1278.063,222.8905 C1279.40034,224.090173 1280.069,225.496325 1280.069,227.109 C1280.069,231.12102 1277.66969,235.860639 1272.871,241.328 L1270.393,239.735 C1272.83168,236.037648 1274.14933,233.422008 1274.346,231.888 L1269.685,229.056 Z M1314.171,204.571 C1314.09233,205.554338 1313.758,206.694994 1313.168,207.993 C1311.67333,207.835666 1310.25734,207.757 1308.92,207.757 L1307.858,207.757 C1306.04866,216.528377 1305.144,221.995656 1305.144,224.159 C1305.144,225.299672 1305.38983,225.87 1305.8815,225.87 C1306.37317,225.87 1307.68099,225.378338 1309.805,224.395 L1310.867,226.342 C1307.36632,229.252681 1304.12135,230.708 1301.132,230.708 C1299.75533,230.708 1298.6245,230.275338 1297.7395,229.41 C1296.8545,228.544662 1296.412,227.394174 1296.412,225.9585 C1296.412,224.522826 1296.57916,222.900342 1296.9135,221.091 C1297.24784,219.281658 1297.71,217.06918 1298.3,214.4535 C1298.89,211.83782 1299.32267,209.723675 1299.598,208.111 C1298.14266,208.229001 1297.061,208.346999 1296.353,208.465 C1296.27433,207.992998 1296.235,207.353837 1296.235,206.5475 C1296.235,205.741163 1296.294,205.082336 1296.412,204.571 L1300.129,204.571 C1300.44367,202.446989 1300.601,200.441009 1300.601,198.553 L1300.542,196.724 L1300.542,196.547 C1303.61002,195.484995 1306.50099,194.954 1309.215,194.954 C1309.37233,195.740671 1309.451,196.723994 1309.451,197.904 C1309.451,199.084006 1309.11667,201.306317 1308.448,204.571 L1314.171,204.571 Z M1321.546,230.708 C1318.83199,230.708 1316.70801,229.754176 1315.174,227.8465 C1313.63999,225.938824 1312.873,223.274017 1312.873,219.852 C1312.873,215.485978 1314.04315,211.729682 1316.3835,208.583 C1318.72385,205.436318 1321.95898,203.863 1326.089,203.863 L1328.213,203.981 C1328.88167,203.626998 1329.629,203.45 1330.455,203.45 C1333.56235,203.45 1335.116,206.380304 1335.116,212.241 C1336.72867,212.162333 1338.36099,211.946002 1340.013,211.592 L1340.957,211.356 L1341.311,213.657 C1340.01299,214.207669 1338.26268,214.699331 1336.06,215.132 L1334.88,215.368 C1334.13266,219.498021 1332.61834,223.087151 1330.337,226.1355 C1328.05566,229.183849 1325.12535,230.708 1321.546,230.708 Z M1324.732,225.634 C1326.38401,225.634 1327.86883,224.572011 1329.1865,222.448 C1330.50417,220.323989 1331.41866,218.082012 1331.93,215.722 C1327.72131,215.722 1325.617,214.148682 1325.617,211.002 C1325.617,209.743327 1325.87266,208.563339 1326.384,207.462 L1326.679,206.872 C1326.52167,206.793333 1326.325,206.754 1326.089,206.754 C1325.853,206.754 1325.676,206.793333 1325.558,206.872 C1324.57466,207.501336 1323.65034,208.976322 1322.785,211.297 C1321.91966,213.617678 1321.487,216.272652 1321.487,219.262 C1321.487,223.510021 1322.56866,225.634 1324.732,225.634 Z M1346.267,230.708 C1343.55299,230.708 1341.42901,229.754176 1339.895,227.8465 C1338.36099,225.938824 1337.594,223.274017 1337.594,219.852 C1337.594,215.485978 1338.76415,211.729682 1341.1045,208.583 C1343.44485,205.436318 1346.67998,203.863 1350.81,203.863 L1352.934,203.981 C1353.60267,203.626998 1354.35,203.45 1355.176,203.45 C1358.28335,203.45 1359.837,206.380304 1359.837,212.241 C1361.44967,212.162333 1363.08199,211.946002 1364.734,211.592 L1365.678,211.356 L1366.032,213.657 C1364.73399,214.207669 1362.98368,214.699331 1360.781,215.132 L1359.601,215.368 C1358.85366,219.498021 1357.33934,223.087151 1355.058,226.1355 C1352.77666,229.183849 1349.84635,230.708 1346.267,230.708 Z M1349.453,225.634 C1351.10501,225.634 1352.58983,224.572011 1353.9075,222.448 C1355.22517,220.323989 1356.13966,218.082012 1356.651,215.722 C1352.44231,215.722 1350.338,214.148682 1350.338,211.002 C1350.338,209.743327 1350.59366,208.563339 1351.105,207.462 L1351.4,206.872 C1351.24267,206.793333 1351.046,206.754 1350.81,206.754 C1350.574,206.754 1350.397,206.793333 1350.279,206.872 C1349.29566,207.501336 1348.37134,208.976322 1347.506,211.297 C1346.64066,213.617678 1346.208,216.272652 1346.208,219.262 C1346.208,223.510021 1347.28966,225.634 1349.453,225.634 Z M1367.212,230.708 C1365.83533,230.708 1364.77334,230.295004 1364.026,229.469 C1363.27866,228.642996 1362.905,227.541674 1362.905,226.165 C1362.905,224.788326 1363.41633,223.598505 1364.439,222.5955 C1365.46167,221.592495 1366.67116,221.091 1368.0675,221.091 C1369.46384,221.091 1370.53566,221.494163 1371.283,222.3005 C1372.03034,223.106837 1372.404,224.188493 1372.404,225.5455 C1372.404,226.902507 1371.88284,228.102161 1370.8405,229.1445 C1369.79816,230.186839 1368.58867,230.708 1367.212,230.708 Z" id="Weloseourselvesinbooks.Wefndourselvesthere,too." fill="#3E2E22" fill-rule="nonzero"></path>
        <path d="M948.781744,70 L1357.34523,70" id="Line-16" stroke="#F9F3ED" stroke-width="10" stroke-linecap="square"></path>
    </g>
</svg>