<?xml version="1.0" encoding="UTF-8"?>
<svg width="1440px" height="289px" viewBox="0 0 1440 289" version="1.1" xmlns="http://www.w3.org/2000/svg" xmlns:xlink="http://www.w3.org/1999/xlink">
    <!-- Generator: Sketch 55.2 (78181) - https://sketchapp.com -->
    <title>Banner / Quote / RLR</title>
    <desc>Created with Sketch.</desc>
    <defs>
        <radialGradient cx="100%" cy="0%" fx="100%" fy="0%" r="66.8084561%" gradientTransform="translate(1.000000,0.000000),scale(0.200694,1.000000),rotate(131.547317),translate(-1.000000,-0.000000)" id="radialGradient-1">
            <stop stop-color="#80F1E6" offset="0%"></stop>
            <stop stop-color="#4DB6AC" offset="100%"></stop>
        </radialGradient>
    </defs>
    <g id="Banner-/-Quote-/-RLR" stroke="none" stroke-width="1" fill="none" fill-rule="evenodd">
        <rect id="Rectangle" fill="url(#radialGradient-1)" x="0" y="0" width="1440" height="289"></rect>
        <path d="M1022.125,105.7 C1021.99167,105.7 1021.875,105.683334 1021.775,105.65 C1021.275,105.349998 1020.85834,105.016669 1020.525,104.65 C1020.425,104.483332 1020.35833,104.4 1020.325,104.4 C1020.29167,104.333333 1020.24167,104.3 1020.175,104.3 L1020.075,104.25 L1019.875,104.05 L1015.625,97.75 C1015.425,97.3166645 1015.14167,96.8500025 1014.775,96.35 C1014.54167,96.1166655 1014.34167,95.866668 1014.175,95.6 C1014.04167,95.399999 1013.90833,95.3 1013.775,95.3 C1013.675,95.3 1013.6,95.3499995 1013.55,95.45 C1013.5,95.5500005 1013.45833,95.6833325 1013.425,95.85 C1013.325,96.7500045 1013.275,97.966659 1013.275,99.5 C1013.275,100.966674 1013.19167,102.149996 1013.025,103.05 C1012.925,103.483335 1012.775,103.7 1012.575,103.7 L1012.275,103.7 C1012.20833,103.666666 1012.15,103.641667 1012.1,103.625 L1012.025,103.6 C1010.85833,103.7 1009.10834,103.816666 1006.775,103.95 C1004.50832,104.083334 1002.77501,104.15 1001.575,104.15 C1001.24167,104.15 1000.975,104.116667 1000.775,104.05 L998.325,104.05 L996.525,103.45 L996.375,103.05 C996.375,103.016666 996.366667,102.950001 996.35,102.85 C996.333333,102.75 996.325,102.616668 996.325,102.45 C996.325,102.249999 996.291667,101.883336 996.225,101.35 C996.058333,99.3166565 995.991666,98.5166645 996.025,98.95 C995.958333,98.083329 995.841667,96.583344 995.675,94.45 L995.525,92.6 C995.525,91.999997 995.508333,91.466669 995.475,91 C995.441666,90.533331 995.408334,90.133335 995.375,89.8 L995.275,88.7 C995.175,87.3333265 995.125,86.050006 995.125,84.85 C995.125,84.8166665 995.133333,84.766667 995.15,84.7 C995.166667,84.633333 995.175,84.500001 995.175,84.3 C995.241667,84.099999 995.275,83.7833355 995.275,83.35 L995.325,82.45 L995.375,81.85 C995.375,81.1499965 995.341667,80.13334 995.275,78.8 C995.141666,77.9666625 995.075,76.9000065 995.075,75.6 C995.075,73.733324 995.191665,72.366671 995.425,71.5 C995.725001,70.299994 996.224996,69.7 996.925,69.7 C1000.69169,69.7 1004.52498,69.7499995 1008.425,69.85 C1009.29167,69.85 1010.59166,69.883333 1012.325,69.95 L1014.275,70 C1016.94168,70.066667 1018.79166,70.1 1019.825,70.1 C1024.12502,70.300001 1027.37499,71.3833235 1029.575,73.35 C1030.575,74.1833375 1031.31666,75.1833275 1031.8,76.35 C1032.28334,77.5166725 1032.525,78.76666 1032.525,80.1 C1032.525,81.633341 1032.24167,83.0499935 1031.675,84.35 C1031.20833,85.3833385 1030.54167,86.333329 1029.675,87.2 C1028.84166,88.0333375 1027.89167,88.7 1026.825,89.2 C1027.025,89.3000005 1027.29166,89.516665 1027.625,89.85 C1027.75833,90.0166675 1027.99167,90.233332 1028.325,90.5 L1029.025,91 C1029.125,91.1666675 1029.24167,91.3249992 1029.375,91.475 C1029.50833,91.6250007 1029.64167,91.7833325 1029.775,91.95 L1032.125,94.85 C1033.19167,96.2166735 1033.875,97.2166635 1034.175,97.85 C1034.40833,98.2833355 1034.525,98.6166655 1034.525,98.85 C1034.525,99.183335 1034.39167,99.483332 1034.125,99.75 C1033.85833,100.016668 1033.45834,100.349998 1032.925,100.75 C1032.525,101.050002 1032.05834,101.333332 1031.525,101.6 C1031.025,101.866668 1030.64167,102.116665 1030.375,102.35 L1028.525,103.35 C1027.85833,103.716668 1027.14167,104.033332 1026.375,104.3 C1026.34167,104.3 1026.3,104.316666 1026.25,104.35 C1026.2,104.383333 1026.125,104.416666 1026.025,104.45 C1025.825,104.550001 1025.275,104.733332 1024.375,105 C1024.20833,105.1 1023.925,105.183333 1023.525,105.25 C1023.425,105.316667 1023.30833,105.366667 1023.175,105.4 C1023.04167,105.433334 1022.94167,105.45 1022.875,105.45 L1022.625,105.45 C1022.59167,105.616668 1022.525,105.7 1022.425,105.7 L1022.125,105.7 Z M1013.925,88.05 C1014.95834,88.05 1015.775,87.5333385 1016.375,86.5 C1016.94167,85.566662 1017.25833,84.500006 1017.325,83.3 C1017.39167,82.6 1017.425,81.7666715 1017.425,80.8 L1017.425,80.25 C1017.425,79.4833295 1017.29167,78.6833375 1017.025,77.85 C1016.75833,76.783328 1016.20834,76.016669 1015.375,75.55 C1015.00833,75.2499985 1014.525,75.1 1013.925,75.1 C1013.75833,75.1 1013.625,75.299998 1013.525,75.7 C1013.225,76.433337 1013.05833,77.6 1013.025,79.2 C1012.89167,79.86667 1012.825,80.6499955 1012.825,81.55 L1012.775,83.05 C1012.70833,84.983343 1012.675,86.583327 1012.675,87.85 C1012.675,87.8833335 1012.69167,87.9166665 1012.725,87.95 C1012.75833,87.9833335 1012.79167,88 1012.825,88 L1013.175,88.05 L1013.925,88.05 Z M1040.825,103.8 C1040.75833,103.8 1040.70833,103.733334 1040.675,103.6 C1040.44167,103.299999 1040.275,102.933335 1040.175,102.5 C1040.075,102.333332 1039.99167,102.116668 1039.925,101.85 C1039.625,101.249997 1039.40833,100.416672 1039.275,99.35 C1039.14167,97.816659 1039.075,96.6000045 1039.075,95.7 C1039.04167,95.299998 1039.025,94.7500035 1039.025,94.05 L1039.025,92.85 C1039.025,91.849995 1039.00833,91.0666695 1038.975,90.5 C1038.94167,89.899997 1038.925,88.7166755 1038.925,86.95 C1038.925,82.216643 1039.025,78.5666795 1039.225,76 C1039.225,75.599998 1039.79166,75.300001 1040.925,75.1 L1043.675,75.1 C1045.57501,75.1 1046.99166,75.133333 1047.925,75.2 C1049.32501,75.3000005 1050.74166,75.35 1052.175,75.35 C1052.50833,75.35 1052.75833,75.3333335 1052.925,75.3 L1053.675,75.3 L1053.925,75.5 C1055.02501,75.2666655 1056.15833,75.116667 1057.325,75.05 C1058.49167,74.983333 1059.90832,74.95 1061.575,74.95 C1061.64167,74.95 1061.725,74.9999995 1061.825,75.1 L1063.425,75.1 C1063.69167,75.1 1063.9,75.2499985 1064.05,75.55 C1064.2,75.8500015 1064.325,76.2833305 1064.425,76.85 C1064.55833,77.2833355 1064.65833,77.8166635 1064.725,78.45 C1064.85833,79.2833375 1064.975,79.833332 1065.075,80.1 C1065.075,81.033338 1064.90834,81.5 1064.575,81.5 C1064.54167,81.5 1064.49167,81.45 1064.425,81.35 L1064.225,81.3 C1064.05833,81.2666665 1063.875,81.283333 1063.675,81.35 C1063.475,81.45 1063.25833,81.5 1063.025,81.5 C1062.825,81.5 1062.65833,81.45 1062.525,81.35 C1062.45833,81.3166665 1062.30833,81.3 1062.075,81.3 C1061.775,81.3 1061.425,81.3499995 1061.025,81.45 C1060.89167,81.4833335 1060.63334,81.533333 1060.25,81.6 C1059.86666,81.666667 1059.425,81.7 1058.925,81.7 C1057.49166,81.7 1056.45834,81.733333 1055.825,81.8 C1055.45833,81.8333335 1055.10833,81.9333325 1054.775,82.1 L1054.775,82 C1054.64167,82 1054.525,82.166665 1054.425,82.5 C1054.19167,83.0666695 1054.04167,83.849995 1053.975,84.85 C1053.94167,85.1500015 1053.925,85.4833315 1053.925,85.85 C1053.925,86.2166685 1053.98333,86.466666 1054.1,86.6 C1054.21667,86.733334 1054.40833,86.8 1054.675,86.8 C1054.875,86.8 1055.04167,86.733334 1055.175,86.6 C1055.24167,86.6 1055.325,86.6166665 1055.425,86.65 C1055.525,86.6833335 1055.60833,86.733333 1055.675,86.8 L1059.925,86.8 C1059.95833,86.733333 1060.00833,86.6833335 1060.075,86.65 C1060.14167,86.6166665 1060.20833,86.6 1060.275,86.6 C1060.60833,86.6 1060.85833,86.6499995 1061.025,86.75 C1061.225,86.8500005 1061.625,86.95 1062.225,87.05 C1062.55833,87.05 1062.79167,87.149999 1062.925,87.35 C1063.09167,87.5833345 1063.175,87.799999 1063.175,88 L1064.225,91.3 C1064.325,91.833336 1063.82501,92.1833325 1062.725,92.35 C1062.09166,92.483334 1060.87501,92.55 1059.075,92.55 L1055.425,92.55 C1054.95833,92.55 1054.60833,92.5749998 1054.375,92.625 C1054.14167,92.6750003 1053.99167,92.799999 1053.925,93 C1053.79167,93.1666675 1053.725,93.4333315 1053.725,93.8 L1053.725,94 C1053.725,94.1666675 1053.74167,94.283333 1053.775,94.35 L1053.725,95.45 C1053.69167,95.6833345 1053.675,96.033331 1053.675,96.5 L1053.675,97.75 C1055.17501,97.75 1056.70833,97.7000005 1058.275,97.6 C1059.80834,97.4999995 1061.32499,97.45 1062.825,97.45 C1062.925,97.45 1063.00833,97.5249993 1063.075,97.675 C1063.14167,97.8250008 1063.175,97.999999 1063.175,98.2 C1063.24167,98.400001 1063.275,98.6166655 1063.275,98.85 C1063.34167,99.3500025 1063.44167,99.8166645 1063.575,100.25 L1063.925,101.7 L1063.925,103.25 L1063.525,103.6 L1063.025,103.6 C1062.65833,103.6 1062.425,103.583334 1062.325,103.55 C1062.225,103.483333 1062.10833,103.45 1061.975,103.45 L1061.675,103.6 C1061.54167,103.666667 1061.425,103.733333 1061.325,103.8 L1061.325,103.55 L1060.725,103.6 L1059.975,103.6 C1059.84167,103.6 1059.74167,103.566667 1059.675,103.5 L1059.275,103.45 C1058.04166,103.45 1057.175,103.566665 1056.675,103.8 L1040.825,103.8 Z M1071.075,104.05 C1070.44166,104.05 1070.19167,103.483339 1070.325,102.35 C1070.325,101.949998 1070.40833,101.500002 1070.575,101 C1070.575,100.766666 1070.59167,100.575001 1070.625,100.425 C1070.65833,100.274999 1070.675,100.150001 1070.675,100.05 C1071.44167,96.4166485 1072.29166,92.833351 1073.225,89.3 L1076.625,76 C1076.625,75.933333 1076.675,75.8500005 1076.775,75.75 C1076.875,75.6499995 1076.975,75.566667 1077.075,75.5 L1077.425,75.5 C1077.825,75.5 1078.14167,75.4500005 1078.375,75.35 C1078.575,75.3166665 1078.925,75.3 1079.425,75.3 C1080.225,75.3 1080.825,75.3166665 1081.225,75.35 C1081.825,75.4500005 1082.44166,75.5 1083.075,75.5 L1085.675,75.45 C1085.94167,75.383333 1086.25833,75.35 1086.625,75.35 L1088.825,75.25 L1090.475,75.25 C1091.10834,75.25 1091.725,75.2666665 1092.325,75.3 L1093.725,75.3 C1094.05833,75.3333335 1094.54166,75.35 1095.175,75.35 L1097.075,75.35 C1097.175,75.35 1097.275,75.3666665 1097.375,75.4 C1097.475,75.4333335 1097.55833,75.4666665 1097.625,75.5 C1097.75833,75.566667 1097.925,75.6 1098.125,75.6 L1098.575,75.6 C1098.80833,75.7666675 1098.925,75.9333325 1098.925,76.1 L1102.475,89.3 C1103.57501,93.5333545 1104.44166,97.116652 1105.075,100.05 C1105.075,100.216667 1105.125,100.533331 1105.225,101 C1105.35833,101.66667 1105.425,102.199998 1105.425,102.6 C1105.425,102.833335 1105.39167,103.149998 1105.325,103.55 C1105.15833,103.883335 1104.925,104.05 1104.625,104.05 L1104.075,104.05 C1103.64166,104.05 1103.30833,104.033333 1103.075,104 L1100.075,104 C1099.84167,104 1099.70833,103.983334 1099.675,103.95 L1096.925,103.95 L1096.875,103.85 C1096.80833,103.783333 1096.70833,103.75 1096.575,103.75 L1096.425,103.85 C1096.425,103.916667 1096.39167,103.95 1096.325,103.95 L1095.825,103.95 C1095.65833,103.883333 1095.35834,103.85 1094.925,103.85 C1094.125,103.783333 1093.45834,103.75 1092.925,103.75 C1092.55833,102.983329 1092.125,101.300013 1091.625,98.7 C1090.925,98.8000005 1090.125,98.85 1089.225,98.85 L1086.675,98.85 C1086.54167,99.3500025 1086.45833,99.766665 1086.425,100.1 C1086.39167,100.266668 1086.25833,100.833328 1086.025,101.8 C1085.79167,102.766672 1085.575,103.416665 1085.375,103.75 L1085.075,103.85 C1084.975,103.883333 1084.89167,103.908333 1084.825,103.925 L1084.725,103.95 L1084.625,103.95 C1084.425,103.95 1084.29167,103.916667 1084.225,103.85 C1084.09167,103.783333 1084.00833,103.75 1083.975,103.75 L1082.075,103.85 L1080.675,103.85 C1080.50833,103.883333 1080.375,103.908333 1080.275,103.925 C1080.175,103.941667 1080.10833,103.95 1080.075,103.95 L1075.675,103.95 C1075.375,103.983334 1074.75834,104 1073.825,104 L1072.625,104 C1072.425,104.033333 1072.10834,104.05 1071.675,104.05 L1071.075,104.05 Z M1091.175,93.35 C1090.975,92.216661 1090.85833,91.550001 1090.825,91.35 L1090.425,88.95 C1090.35833,88.483331 1090.29167,88.0583352 1090.225,87.675 C1090.15833,87.2916647 1090.10833,86.933335 1090.075,86.6 C1089.975,86.199998 1089.9,85.8250017 1089.85,85.475 C1089.8,85.1249983 1089.74167,84.8 1089.675,84.5 C1089.64167,84.3 1089.60833,84.0416683 1089.575,83.725 C1089.54167,83.4083318 1089.49167,83.183334 1089.425,83.05 L1089.325,82.45 C1089.325,82.316666 1089.29167,82.2000005 1089.225,82.1 L1089.175,81.8 L1089.075,82.1 L1089.075,82.45 C1089.075,82.4833335 1089.05833,82.5416662 1089.025,82.625 C1088.99167,82.7083338 1088.95833,82.849999 1088.925,83.05 C1088.89167,83.2166675 1088.85833,83.4249988 1088.825,83.675 C1088.79167,83.9250012 1088.74167,84.1999985 1088.675,84.5 L1088.325,86.55 L1087.925,88.85 L1087.775,89.95 C1087.70833,90.216668 1087.64167,90.649997 1087.575,91.25 C1087.275,92.7500075 1087.14167,93.433334 1087.175,93.3 L1089.375,93.3 C1089.40833,93.2666665 1089.45833,93.2250002 1089.525,93.175 C1089.59167,93.1249998 1089.64167,93.1 1089.675,93.1 L1089.825,93.1 C1089.99167,93.1 1090.13333,93.1166665 1090.25,93.15 C1090.36667,93.1833335 1090.475,93.2166665 1090.575,93.25 C1090.775,93.316667 1090.975,93.35 1091.175,93.35 Z M1118.875,104 C1117.60833,103.966667 1115.42502,103.95 1112.325,103.95 C1111.85833,103.95 1111.54167,103.650003 1111.375,103.05 C1111.275,102.716665 1111.225,102.133338 1111.225,101.3 C1111.225,99.7999925 1111.19167,98.483339 1111.125,97.35 C1111.125,96.3166615 1111.09167,94.433347 1111.025,91.7 L1110.975,85.7 L1110.975,76.25 C1110.975,76.0166655 1111.1,75.766668 1111.35,75.5 C1111.6,75.233332 1111.84167,75.1 1112.075,75.1 L1114.975,75.15 C1115.44167,75.1833335 1116.125,75.2 1117.025,75.2 C1117.99167,75.2333335 1119.19166,75.25 1120.625,75.25 C1122.75834,75.25 1124.42499,75.2333335 1125.625,75.2 C1126.79167,75.133333 1128.74165,75.1 1131.475,75.1 C1133.34168,75.1 1135.05833,75.43333 1136.625,76.1 C1138.59168,76.9333375 1140.15833,78.2333245 1141.325,80 C1142.65834,82.066677 1143.325,84.7499835 1143.325,88.05 C1143.325,91.0166815 1143,93.49999 1142.35,95.5 C1141.7,97.50001 1140.65834,99.1166605 1139.225,100.35 C1137.75833,101.616673 1135.83335,102.541664 1133.45,103.125 C1131.06665,103.708336 1128.09168,104 1124.525,104 L1118.875,104 Z M1124.875,98.35 C1125.60834,98.35 1126.09167,98.316667 1126.325,98.25 C1126.55833,98.183333 1126.725,98.1000005 1126.825,98 C1127.325,97.4999975 1127.79166,96.016679 1128.225,93.55 C1128.59167,91.2499885 1128.775,89.10001 1128.775,87.1 L1128.775,86.3 C1128.775,85.1333275 1128.69167,84.016672 1128.525,82.95 C1128.39167,81.6499935 1128.125,80.5833375 1127.725,79.75 C1127.49167,79.3833315 1127.19167,79.2 1126.825,79.2 C1126.525,79.2 1126.15834,79.2833325 1125.725,79.45 L1125.375,79.6 C1125.375,80.3666705 1125.34167,82.08332 1125.275,84.75 L1125.225,87.85 C1125.225,88.51667 1125.20833,89.0333315 1125.175,89.4 L1125.125,90.95 L1124.875,98.35 Z" id="Read" fill="#FFFFFF" fill-rule="nonzero"></path>
        <path d="M1022.225,224.7 C1022.09167,224.7 1021.975,224.683334 1021.875,224.65 C1021.375,224.349998 1020.95834,224.016669 1020.625,223.65 C1020.525,223.483332 1020.45833,223.4 1020.425,223.4 C1020.39167,223.333333 1020.34167,223.3 1020.275,223.3 L1020.175,223.25 L1019.975,223.05 L1015.725,216.75 C1015.525,216.316665 1015.24167,215.850003 1014.875,215.35 C1014.64167,215.116666 1014.44167,214.866668 1014.275,214.6 C1014.14167,214.399999 1014.00833,214.3 1013.875,214.3 C1013.775,214.3 1013.7,214.349999 1013.65,214.45 C1013.6,214.550001 1013.55833,214.683333 1013.525,214.85 C1013.425,215.750004 1013.375,216.966659 1013.375,218.5 C1013.375,219.966674 1013.29167,221.149995 1013.125,222.05 C1013.025,222.483336 1012.875,222.7 1012.675,222.7 L1012.375,222.7 C1012.30833,222.666666 1012.25,222.641667 1012.2,222.625 L1012.125,222.6 C1010.95833,222.7 1009.20835,222.816666 1006.875,222.95 C1004.60832,223.083334 1002.87501,223.15 1001.675,223.15 C1001.34167,223.15 1001.075,223.116667 1000.875,223.05 L998.425,223.05 L996.625,222.45 L996.475,222.05 C996.475,222.016666 996.466667,221.95 996.45,221.85 C996.433333,221.75 996.425,221.616668 996.425,221.45 C996.425,221.249999 996.391667,220.883336 996.325,220.35 C996.158333,218.316656 996.091666,217.516664 996.125,217.95 C996.058333,217.083329 995.941667,215.583344 995.775,213.45 L995.625,211.6 C995.625,210.999997 995.608333,210.466669 995.575,210 C995.541667,209.533331 995.508334,209.133335 995.475,208.8 L995.375,207.7 C995.275,206.333326 995.225,205.050006 995.225,203.85 C995.225,203.816666 995.233333,203.766667 995.25,203.7 C995.266667,203.633333 995.275,203.500001 995.275,203.3 C995.341667,203.099999 995.375,202.783335 995.375,202.35 L995.425,201.45 L995.475,200.85 C995.475,200.149996 995.441667,199.13334 995.375,197.8 C995.241666,196.966662 995.175,195.900007 995.175,194.6 C995.175,192.733324 995.291666,191.366671 995.525,190.5 C995.825001,189.299994 996.324996,188.7 997.025,188.7 C1000.79169,188.7 1004.62498,188.75 1008.525,188.85 C1009.39167,188.85 1010.69166,188.883333 1012.425,188.95 L1014.375,189 C1017.04168,189.066667 1018.89166,189.1 1019.925,189.1 C1024.22502,189.300001 1027.47499,190.383323 1029.675,192.35 C1030.675,193.183337 1031.41666,194.183327 1031.9,195.35 C1032.38334,196.516672 1032.625,197.76666 1032.625,199.1 C1032.625,200.633341 1032.34167,202.049993 1031.775,203.35 C1031.30833,204.383338 1030.64167,205.333329 1029.775,206.2 C1028.94166,207.033338 1027.99167,207.7 1026.925,208.2 C1027.125,208.300001 1027.39167,208.516665 1027.725,208.85 C1027.85833,209.016667 1028.09166,209.233332 1028.425,209.5 L1029.125,210 C1029.225,210.166668 1029.34167,210.324999 1029.475,210.475 C1029.60833,210.625001 1029.74167,210.783333 1029.875,210.95 L1032.225,213.85 C1033.29167,215.216674 1033.975,216.216663 1034.275,216.85 C1034.50833,217.283335 1034.625,217.616666 1034.625,217.85 C1034.625,218.183335 1034.49167,218.483332 1034.225,218.75 C1033.95833,219.016668 1033.55834,219.349998 1033.025,219.75 C1032.625,220.050002 1032.15834,220.333332 1031.625,220.6 C1031.125,220.866668 1030.74167,221.116666 1030.475,221.35 L1028.625,222.35 C1027.95833,222.716668 1027.24167,223.033332 1026.475,223.3 C1026.44167,223.3 1026.4,223.316666 1026.35,223.35 C1026.3,223.383333 1026.225,223.416666 1026.125,223.45 C1025.925,223.550001 1025.375,223.733332 1024.475,224 C1024.30833,224.1 1024.025,224.183333 1023.625,224.25 C1023.525,224.316667 1023.40833,224.366667 1023.275,224.4 C1023.14167,224.433334 1023.04167,224.45 1022.975,224.45 L1022.725,224.45 C1022.69167,224.616668 1022.625,224.7 1022.525,224.7 L1022.225,224.7 Z M1014.025,207.05 C1015.05834,207.05 1015.875,206.533339 1016.475,205.5 C1017.04167,204.566662 1017.35833,203.500006 1017.425,202.3 C1017.49167,201.6 1017.525,200.766672 1017.525,199.8 L1017.525,199.25 C1017.525,198.483329 1017.39167,197.683337 1017.125,196.85 C1016.85833,195.783328 1016.30834,195.016669 1015.475,194.55 C1015.10833,194.249999 1014.625,194.1 1014.025,194.1 C1013.85833,194.1 1013.725,194.299998 1013.625,194.7 C1013.325,195.433337 1013.15833,196.6 1013.125,198.2 C1012.99167,198.86667 1012.925,199.649995 1012.925,200.55 L1012.875,202.05 C1012.80833,203.983343 1012.775,205.583327 1012.775,206.85 C1012.775,206.883333 1012.79167,206.916666 1012.825,206.95 C1012.85833,206.983334 1012.89167,207 1012.925,207 L1013.275,207.05 L1014.025,207.05 Z M1040.925,222.8 C1040.85833,222.8 1040.80833,222.733334 1040.775,222.6 C1040.54167,222.299999 1040.375,221.933335 1040.275,221.5 C1040.175,221.333332 1040.09167,221.116668 1040.025,220.85 C1039.725,220.249997 1039.50833,219.416672 1039.375,218.35 C1039.24167,216.816659 1039.175,215.600005 1039.175,214.7 C1039.14167,214.299998 1039.125,213.750003 1039.125,213.05 L1039.125,211.85 C1039.125,210.849995 1039.10833,210.066669 1039.075,209.5 C1039.04167,208.899997 1039.025,207.716676 1039.025,205.95 C1039.025,201.216643 1039.125,197.566679 1039.325,195 C1039.325,194.599998 1039.89166,194.300001 1041.025,194.1 L1043.775,194.1 C1045.67501,194.1 1047.09166,194.133333 1048.025,194.2 C1049.42501,194.300001 1050.84166,194.35 1052.275,194.35 C1052.60833,194.35 1052.85833,194.333333 1053.025,194.3 L1053.775,194.3 L1054.025,194.5 C1055.12501,194.266665 1056.25833,194.116667 1057.425,194.05 C1058.59167,193.983333 1060.00833,193.95 1061.675,193.95 C1061.74167,193.95 1061.825,194 1061.925,194.1 L1063.525,194.1 C1063.79167,194.1 1064,194.249999 1064.15,194.55 C1064.3,194.850002 1064.425,195.283331 1064.525,195.85 C1064.65833,196.283335 1064.75833,196.816664 1064.825,197.45 C1064.95833,198.283338 1065.075,198.833332 1065.175,199.1 C1065.175,200.033338 1065.00833,200.5 1064.675,200.5 C1064.64167,200.5 1064.59167,200.45 1064.525,200.35 L1064.325,200.3 C1064.15833,200.266666 1063.975,200.283333 1063.775,200.35 C1063.575,200.45 1063.35833,200.5 1063.125,200.5 C1062.925,200.5 1062.75833,200.45 1062.625,200.35 C1062.55833,200.316666 1062.40833,200.3 1062.175,200.3 C1061.875,200.3 1061.525,200.349999 1061.125,200.45 C1060.99167,200.483334 1060.73334,200.533333 1060.35,200.6 C1059.96666,200.666667 1059.525,200.7 1059.025,200.7 C1057.59166,200.7 1056.55834,200.733333 1055.925,200.8 C1055.55833,200.833333 1055.20834,200.933333 1054.875,201.1 L1054.875,201 C1054.74167,201 1054.625,201.166665 1054.525,201.5 C1054.29167,202.066669 1054.14167,202.849995 1054.075,203.85 C1054.04167,204.150002 1054.025,204.483331 1054.025,204.85 C1054.025,205.216668 1054.08333,205.466666 1054.2,205.6 C1054.31667,205.733334 1054.50833,205.8 1054.775,205.8 C1054.975,205.8 1055.14167,205.733334 1055.275,205.6 C1055.34167,205.6 1055.425,205.616667 1055.525,205.65 C1055.625,205.683334 1055.70833,205.733333 1055.775,205.8 L1060.025,205.8 C1060.05833,205.733333 1060.10833,205.683334 1060.175,205.65 C1060.24167,205.616667 1060.30833,205.6 1060.375,205.6 C1060.70834,205.6 1060.95833,205.649999 1061.125,205.75 C1061.325,205.85 1061.725,205.95 1062.325,206.05 C1062.65834,206.05 1062.89167,206.149999 1063.025,206.35 C1063.19167,206.583335 1063.275,206.799999 1063.275,207 L1064.325,210.3 C1064.425,210.833336 1063.92501,211.183333 1062.825,211.35 C1062.19166,211.483334 1060.97501,211.55 1059.175,211.55 L1055.525,211.55 C1055.05833,211.55 1054.70833,211.575 1054.475,211.625 C1054.24167,211.675 1054.09167,211.799999 1054.025,212 C1053.89167,212.166668 1053.825,212.433332 1053.825,212.8 L1053.825,213 C1053.825,213.166668 1053.84167,213.283333 1053.875,213.35 L1053.825,214.45 C1053.79167,214.683335 1053.775,215.033331 1053.775,215.5 L1053.775,216.75 C1055.27501,216.75 1056.80833,216.7 1058.375,216.6 C1059.90834,216.5 1061.42499,216.45 1062.925,216.45 C1063.025,216.45 1063.10833,216.524999 1063.175,216.675 C1063.24167,216.825001 1063.275,216.999999 1063.275,217.2 C1063.34167,217.400001 1063.375,217.616666 1063.375,217.85 C1063.44167,218.350003 1063.54167,218.816665 1063.675,219.25 L1064.025,220.7 L1064.025,222.25 L1063.625,222.6 L1063.125,222.6 C1062.75833,222.6 1062.525,222.583334 1062.425,222.55 C1062.325,222.483333 1062.20833,222.45 1062.075,222.45 L1061.775,222.6 C1061.64167,222.666667 1061.525,222.733333 1061.425,222.8 L1061.425,222.55 L1060.825,222.6 L1060.075,222.6 C1059.94167,222.6 1059.84167,222.566667 1059.775,222.5 L1059.375,222.45 C1058.14166,222.45 1057.275,222.566665 1056.775,222.8 L1040.925,222.8 Z M1072.075,223.15 C1071.575,223.15 1071.24167,222.850003 1071.075,222.25 C1070.975,221.916665 1070.925,221.316671 1070.925,220.45 C1070.925,217.88332 1070.89167,215.65001 1070.825,213.75 C1070.725,210.849986 1070.675,207.833349 1070.675,204.7 L1070.675,195.1 C1070.675,194.833332 1070.8,194.583335 1071.05,194.35 C1071.3,194.116666 1071.55833,194 1071.825,194 C1074.22501,194 1075.89166,194.016666 1076.825,194.05 L1080.475,194.1 C1081.47501,194.1 1083.14165,194.066667 1085.475,194 C1086.675,193.966667 1088.65832,193.95 1091.425,193.95 C1093.45834,193.95 1095.20833,194.199997 1096.675,194.7 C1098.54168,195.300003 1100.12499,196.26666 1101.425,197.6 C1102.75834,199.200008 1103.425,201.316654 1103.425,203.95 C1103.425,208.283355 1102.30834,211.483323 1100.075,213.55 C1098.04166,215.383342 1095.09169,216.3 1091.225,216.3 L1085.275,216.3 C1085.275,217.300005 1085.24167,217.899999 1085.175,218.1 C1085.175,218.333335 1085.15833,218.5 1085.125,218.6 C1085.09167,218.7 1085.075,218.766666 1085.075,218.8 C1085.075,218.900001 1085.10833,219 1085.175,219.1 L1085.175,219.8 L1085.275,220.45 L1085.275,220.8 C1085.275,221.700005 1085.075,222.333331 1084.675,222.7 C1084.50833,222.833334 1084.26667,222.916666 1083.95,222.95 C1083.63333,222.983334 1083.29167,223 1082.925,223 L1080.225,223 L1078.825,223.05 C1077.42499,223.116667 1076.29167,223.15 1075.425,223.15 L1072.075,223.15 Z M1087.675,211.05 C1088.20834,211.05 1088.64167,210.483339 1088.975,209.35 C1089.20833,208.583329 1089.39167,207.400008 1089.525,205.8 C1089.55833,204.999996 1089.575,204.066672 1089.575,203 L1089.575,202.55 C1089.575,201.816663 1089.49167,201.11667 1089.325,200.45 C1089.15833,199.449995 1088.875,198.783335 1088.475,198.45 C1088.24167,198.216666 1087.975,198.1 1087.675,198.1 C1087.40833,198.1 1087.175,198.266665 1086.975,198.6 C1086.60833,199.300004 1086.34167,200.466658 1086.175,202.1 C1086.00833,203.033338 1085.925,203.83333 1085.925,204.5 C1085.75833,206.033341 1085.675,208.183319 1085.675,210.95 L1085.75,210.975 C1085.8,210.991667 1085.85833,211 1085.925,211 C1085.95833,211.033333 1086.14167,211.05 1086.475,211.05 L1087.675,211.05 Z M1109.625,222.8 C1109.55833,222.8 1109.50833,222.733334 1109.475,222.6 C1109.24167,222.299999 1109.075,221.933335 1108.975,221.5 C1108.875,221.333332 1108.79167,221.116668 1108.725,220.85 C1108.425,220.249997 1108.20833,219.416672 1108.075,218.35 C1107.94167,216.816659 1107.875,215.600005 1107.875,214.7 C1107.84167,214.299998 1107.825,213.750003 1107.825,213.05 L1107.825,211.85 C1107.825,210.849995 1107.80833,210.066669 1107.775,209.5 C1107.74167,208.899997 1107.725,207.716676 1107.725,205.95 C1107.725,201.216643 1107.825,197.566679 1108.025,195 C1108.025,194.599998 1108.59166,194.300001 1109.725,194.1 L1112.475,194.1 C1114.37501,194.1 1115.79166,194.133333 1116.725,194.2 C1118.12501,194.300001 1119.54166,194.35 1120.975,194.35 C1121.30833,194.35 1121.55833,194.333333 1121.725,194.3 L1122.475,194.3 L1122.725,194.5 C1123.82501,194.266665 1124.95833,194.116667 1126.125,194.05 C1127.29167,193.983333 1128.70833,193.95 1130.375,193.95 C1130.44167,193.95 1130.525,194 1130.625,194.1 L1132.225,194.1 C1132.49167,194.1 1132.7,194.249999 1132.85,194.55 C1133,194.850002 1133.125,195.283331 1133.225,195.85 C1133.35833,196.283335 1133.45833,196.816664 1133.525,197.45 C1133.65833,198.283338 1133.775,198.833332 1133.875,199.1 C1133.875,200.033338 1133.70834,200.5 1133.375,200.5 C1133.34167,200.5 1133.29167,200.45 1133.225,200.35 L1133.025,200.3 C1132.85833,200.266666 1132.675,200.283333 1132.475,200.35 C1132.275,200.45 1132.05833,200.5 1131.825,200.5 C1131.625,200.5 1131.45833,200.45 1131.325,200.35 C1131.25833,200.316666 1131.10833,200.3 1130.875,200.3 C1130.575,200.3 1130.225,200.349999 1129.825,200.45 C1129.69167,200.483334 1129.43334,200.533333 1129.05,200.6 C1128.66666,200.666667 1128.225,200.7 1127.725,200.7 C1126.29166,200.7 1125.25834,200.733333 1124.625,200.8 C1124.25833,200.833333 1123.90834,200.933333 1123.575,201.1 L1123.575,201 C1123.44167,201 1123.325,201.166665 1123.225,201.5 C1122.99167,202.066669 1122.84167,202.849995 1122.775,203.85 C1122.74167,204.150002 1122.725,204.483331 1122.725,204.85 C1122.725,205.216668 1122.78333,205.466666 1122.9,205.6 C1123.01667,205.733334 1123.20833,205.8 1123.475,205.8 C1123.675,205.8 1123.84167,205.733334 1123.975,205.6 C1124.04167,205.6 1124.125,205.616667 1124.225,205.65 C1124.325,205.683334 1124.40833,205.733333 1124.475,205.8 L1128.725,205.8 C1128.75833,205.733333 1128.80833,205.683334 1128.875,205.65 C1128.94167,205.616667 1129.00833,205.6 1129.075,205.6 C1129.40834,205.6 1129.65833,205.649999 1129.825,205.75 C1130.025,205.85 1130.425,205.95 1131.025,206.05 C1131.35834,206.05 1131.59167,206.149999 1131.725,206.35 C1131.89167,206.583335 1131.975,206.799999 1131.975,207 L1133.025,210.3 C1133.125,210.833336 1132.62501,211.183333 1131.525,211.35 C1130.89166,211.483334 1129.67501,211.55 1127.875,211.55 L1124.225,211.55 C1123.75833,211.55 1123.40833,211.575 1123.175,211.625 C1122.94167,211.675 1122.79167,211.799999 1122.725,212 C1122.59167,212.166668 1122.525,212.433332 1122.525,212.8 L1122.525,213 C1122.525,213.166668 1122.54167,213.283333 1122.575,213.35 L1122.525,214.45 C1122.49167,214.683335 1122.475,215.033331 1122.475,215.5 L1122.475,216.75 C1123.97501,216.75 1125.50833,216.7 1127.075,216.6 C1128.60834,216.5 1130.12499,216.45 1131.625,216.45 C1131.725,216.45 1131.80833,216.524999 1131.875,216.675 C1131.94167,216.825001 1131.975,216.999999 1131.975,217.2 C1132.04167,217.400001 1132.075,217.616666 1132.075,217.85 C1132.14167,218.350003 1132.24167,218.816665 1132.375,219.25 L1132.725,220.7 L1132.725,222.25 L1132.325,222.6 L1131.825,222.6 C1131.45833,222.6 1131.225,222.583334 1131.125,222.55 C1131.025,222.483333 1130.90833,222.45 1130.775,222.45 L1130.475,222.6 C1130.34167,222.666667 1130.225,222.733333 1130.125,222.8 L1130.125,222.55 L1129.525,222.6 L1128.775,222.6 C1128.64167,222.6 1128.54167,222.566667 1128.475,222.5 L1128.075,222.45 C1126.84166,222.45 1125.975,222.566665 1125.475,222.8 L1109.625,222.8 Z M1139.875,223.05 C1139.24166,223.05 1138.99167,222.483339 1139.125,221.35 C1139.125,220.949998 1139.20833,220.500002 1139.375,220 C1139.375,219.766665 1139.39167,219.575001 1139.425,219.425 C1139.45833,219.274999 1139.475,219.150001 1139.475,219.05 C1140.24167,215.416649 1141.09166,211.833351 1142.025,208.3 L1145.425,195 C1145.425,194.933333 1145.475,194.85 1145.575,194.75 C1145.675,194.65 1145.775,194.566667 1145.875,194.5 L1146.225,194.5 C1146.625,194.5 1146.94167,194.45 1147.175,194.35 C1147.375,194.316666 1147.725,194.3 1148.225,194.3 C1149.025,194.3 1149.625,194.316666 1150.025,194.35 C1150.625,194.45 1151.24166,194.5 1151.875,194.5 L1154.475,194.45 C1154.74167,194.383333 1155.05833,194.35 1155.425,194.35 L1157.625,194.25 L1159.275,194.25 C1159.90834,194.25 1160.525,194.266666 1161.125,194.3 L1162.525,194.3 C1162.85834,194.333333 1163.34166,194.35 1163.975,194.35 L1165.875,194.35 C1165.975,194.35 1166.075,194.366667 1166.175,194.4 C1166.275,194.433334 1166.35833,194.466667 1166.425,194.5 C1166.55833,194.566667 1166.725,194.6 1166.925,194.6 L1167.375,194.6 C1167.60833,194.766667 1167.725,194.933333 1167.725,195.1 L1171.275,208.3 C1172.37501,212.533355 1173.24166,216.116652 1173.875,219.05 C1173.875,219.216667 1173.925,219.533331 1174.025,220 C1174.15833,220.66667 1174.225,221.199998 1174.225,221.6 C1174.225,221.833335 1174.19167,222.149998 1174.125,222.55 C1173.95833,222.883335 1173.725,223.05 1173.425,223.05 L1172.875,223.05 C1172.44166,223.05 1172.10833,223.033333 1171.875,223 L1168.875,223 C1168.64167,223 1168.50833,222.983334 1168.475,222.95 L1165.725,222.95 L1165.675,222.85 C1165.60833,222.783333 1165.50833,222.75 1165.375,222.75 L1165.225,222.85 C1165.225,222.916667 1165.19167,222.95 1165.125,222.95 L1164.625,222.95 C1164.45833,222.883333 1164.15834,222.85 1163.725,222.85 C1162.925,222.783333 1162.25834,222.75 1161.725,222.75 C1161.35833,221.983329 1160.925,220.300013 1160.425,217.7 C1159.725,217.800001 1158.925,217.85 1158.025,217.85 L1155.475,217.85 C1155.34167,218.350003 1155.25833,218.766665 1155.225,219.1 C1155.19167,219.266668 1155.05833,219.833328 1154.825,220.8 C1154.59167,221.766672 1154.375,222.416665 1154.175,222.75 L1153.875,222.85 C1153.775,222.883333 1153.69167,222.908333 1153.625,222.925 L1153.525,222.95 L1153.425,222.95 C1153.225,222.95 1153.09167,222.916667 1153.025,222.85 C1152.89167,222.783333 1152.80833,222.75 1152.775,222.75 L1150.875,222.85 L1149.475,222.85 C1149.30833,222.883333 1149.175,222.908333 1149.075,222.925 C1148.975,222.941667 1148.90833,222.95 1148.875,222.95 L1144.475,222.95 C1144.175,222.983334 1143.55834,223 1142.625,223 L1141.425,223 C1141.225,223.033333 1140.90834,223.05 1140.475,223.05 L1139.875,223.05 Z M1159.975,212.35 C1159.775,211.216661 1159.65833,210.550001 1159.625,210.35 L1159.225,207.95 C1159.15833,207.483331 1159.09167,207.058335 1159.025,206.675 C1158.95833,206.291665 1158.90833,205.933335 1158.875,205.6 C1158.775,205.199998 1158.7,204.825002 1158.65,204.475 C1158.6,204.124998 1158.54167,203.8 1158.475,203.5 C1158.44167,203.3 1158.40833,203.041668 1158.375,202.725 C1158.34167,202.408332 1158.29167,202.183334 1158.225,202.05 L1158.125,201.45 C1158.125,201.316666 1158.09167,201.2 1158.025,201.1 L1157.975,200.8 L1157.875,201.1 L1157.875,201.45 C1157.875,201.483334 1157.85833,201.541666 1157.825,201.625 C1157.79167,201.708334 1157.75833,201.849999 1157.725,202.05 C1157.69167,202.216667 1157.65833,202.424999 1157.625,202.675 C1157.59167,202.925001 1157.54167,203.199998 1157.475,203.5 L1157.125,205.55 L1156.725,207.85 L1156.575,208.95 C1156.50833,209.216668 1156.44167,209.649997 1156.375,210.25 C1156.075,211.750007 1155.94167,212.433334 1155.975,212.3 L1158.175,212.3 C1158.20833,212.266666 1158.25833,212.225 1158.325,212.175 C1158.39167,212.125 1158.44167,212.1 1158.475,212.1 L1158.625,212.1 C1158.79167,212.1 1158.93333,212.116667 1159.05,212.15 C1159.16667,212.183334 1159.275,212.216667 1159.375,212.25 C1159.575,212.316667 1159.775,212.35 1159.975,212.35 Z M1196.775,223.15 L1186.125,223.15 C1185.825,222.683331 1185.625,221.833339 1185.525,220.6 C1185.39167,219.499995 1185.325,217.900011 1185.325,215.8 L1185.375,210.3 C1185.40833,208.96666 1185.425,206.850014 1185.425,203.95 L1185.275,203.8 L1180.325,203.8 C1179.59166,203.8 1179.10833,202.966675 1178.875,201.3 C1178.74167,200.399995 1178.675,199.083342 1178.675,197.35 L1178.675,196.7 C1178.74167,196.466666 1178.775,196.100002 1178.775,195.6 L1178.775,194.6 L1178.825,194.2 L1179.025,194 L1179.925,194.05 L1180.925,194.05 C1182.39167,194.05 1183.50833,194.033333 1184.275,194 L1194.425,194 C1194.85834,194.033333 1195.475,194.05 1196.275,194.05 L1197.525,194.05 C1197.65833,193.983333 1197.875,193.95 1198.175,193.95 C1198.40833,193.883333 1198.625,193.85 1198.825,193.85 C1199.45834,193.85 1199.94167,193.883333 1200.275,193.95 C1200.94167,194.016667 1201.44167,194.05 1201.775,194.05 L1203.075,194 L1205.025,194 C1206.025,194 1206.70833,194.016666 1207.075,194.05 L1207.775,194.1 C1207.80833,194.133333 1207.85833,194.175 1207.925,194.225 C1207.99167,194.275 1208.025,194.316666 1208.025,194.35 L1208.025,202.85 C1208.025,203.050001 1207.91667,203.266665 1207.7,203.5 C1207.48333,203.733335 1207.275,203.883333 1207.075,203.95 C1205.97499,203.716666 1204.54168,203.6 1202.775,203.6 L1200.875,203.6 C1200.375,203.6 1200.04167,204.233327 1199.875,205.5 C1199.80833,205.866669 1199.775,206.399996 1199.775,207.1 L1199.775,208.6 C1199.775,209.26667 1199.79167,209.766665 1199.825,210.1 L1199.825,211.5 C1199.825,212.866673 1199.75833,214.133328 1199.625,215.3 C1199.55833,216.166671 1199.525,216.799998 1199.525,217.2 C1199.45833,217.600002 1199.425,218.149996 1199.425,218.85 C1199.425,219.85 1199.39167,220.68333 1199.325,221.35 C1199.29167,222.383339 1198.90834,222.933333 1198.175,223 C1197.375,223.1 1196.90833,223.15 1196.775,223.15 Z" id="Repeat" fill="#FFFFFF" fill-rule="nonzero"></path>
        <path d="M1021.84,173 C1016.34664,173 1012.34668,172.973334 1009.84,172.92 C1007.54666,172.92 1005.78667,172.893334 1004.56,172.84 L998,172.76 C997.519998,172.76 997.066669,172.546669 996.64,172.12 C996.213331,171.693331 996,171.240002 996,170.76 L996,145.48 L995.92,138.92 C995.92,136.733322 995.973333,133.986683 996.08,130.68 C996.08,129.986663 996.159999,128.200014 996.32,125.32 L996.32,123.48 C996.32,121.986659 996.61333,120.786671 997.2,119.88 C997.466668,119.399998 997.89333,119.16 998.48,119.16 C1001.09335,119.16 1003.94665,119.213333 1007.04,119.32 C1007.46667,119.373334 1008.08,119.4 1008.88,119.4 C1010.64001,119.4 1011.94666,119.426666 1012.8,119.48 L1019,119.48 C1020.04001,119.48 1020.85333,119.613332 1021.44,119.88 C1022.4,120.413336 1022.88,121.63999 1022.88,123.56 L1022.8,124.2 C1022.8,124.360001 1022.74667,124.759997 1022.64,125.4 C1022.48,126.200004 1022.4,126.786665 1022.4,127.16 C1022.4,127.74667 1022.48,128.493329 1022.64,129.4 C1022.74667,130.040003 1022.8,130.466666 1022.8,130.68 L1022.88,131.16 L1022.88,153.48 C1022.88,153.906669 1023.12,154.173333 1023.6,154.28 C1023.76,154.333334 1024.10666,154.36 1024.64,154.36 L1030.48,154.36 C1031.92,154.306666 1034.10665,154.28 1037.04,154.28 C1037.62667,154.28 1038.10666,154.453332 1038.48,154.8 C1038.85334,155.146668 1039.04,155.506665 1039.04,155.88 L1039.04,171.32 C1039.04,171.746669 1038.82667,172.093332 1038.4,172.36 C1037.92,172.573334 1037.36,172.706666 1036.72,172.76 C1036.02666,172.920001 1034.93334,173 1033.44,173 L1021.84,173 Z M1076.24,174.92 C1069.8933,174.92 1064.88002,174.413338 1061.2,173.4 C1056.07997,172.06666 1052.18668,169.586685 1049.52,165.96 C1046.42665,161.639978 1044.88,155.640038 1044.88,147.96 C1044.88,142.466639 1045.49333,137.800019 1046.72,133.96 C1047.94667,130.119981 1049.83999,126.973346 1052.4,124.52 C1054.96001,122.066654 1058.25331,120.266672 1062.28,119.12 C1066.30669,117.973328 1071.22664,117.4 1077.04,117.4 C1081.57336,117.4 1085.83998,118.093326 1089.84,119.48 C1094.74669,121.240009 1098.55999,123.933315 1101.28,127.56 C1104.64002,131.880022 1106.32,137.559965 1106.32,144.6 C1106.32,152.813374 1105.09335,159.21331 1102.64,163.8 C1100.18665,168.013354 1096.64002,170.999991 1092,172.76 C1088.21331,174.200007 1082.96003,174.92 1076.24,174.92 Z M1075.6,167.16 C1076.24,167.16 1076.74666,166.760004 1077.12,165.96 C1077.92,164.253325 1078.48,161.560018 1078.8,157.88 C1079.12,154.519983 1079.28,151.346682 1079.28,148.36 L1079.28,143.16 C1079.28,140.813322 1079.12,137.960017 1078.8,134.6 C1078.48,130.973315 1077.92,128.226676 1077.12,126.36 C1076.69333,125.453329 1076.18667,125 1075.6,125 C1074.42666,125 1073.57334,126.119989 1073.04,128.36 C1072.50666,131.453349 1072.24,134.253321 1072.24,136.76 C1072.08,138.893344 1072,142.226644 1072,146.76 C1072,149.800015 1072.08,152.306657 1072.24,154.28 C1072.24,156.786679 1072.50666,159.693317 1073.04,163 C1073.57334,165.773347 1074.42666,167.16 1075.6,167.16 Z M1131.12,173 C1130.48,173 1129.76,172.920001 1128.96,172.76 C1128.16,172.599999 1127.44,172.52 1126.8,172.52 C1126.64,172.52 1126.56,172.546666 1126.56,172.6 L1126.16,172.6 C1125.62666,172.279998 1125.36,171.986668 1125.36,171.72 L1119.76,146.36 C1118.21333,140.813306 1116.64001,134.226705 1115.04,126.6 C1114.98667,126.439999 1114.94667,126.173335 1114.92,125.8 C1114.89333,125.426665 1114.82667,125.080002 1114.72,124.76 C1114.45333,123.693328 1114.32,122.733338 1114.32,121.88 C1114.32,121.239997 1114.4,120.680002 1114.56,120.2 C1114.66667,119.506663 1115.06666,119.16 1115.76,119.16 L1118.56,119.16 C1118.98667,119.266667 1119.68,119.32 1120.64,119.32 L1124.24,119.4 L1132.32,119.4 C1132.37333,119.453334 1132.48,119.506666 1132.64,119.56 L1133.12,119.72 C1133.22667,119.72 1133.32,119.693334 1133.4,119.64 C1133.48,119.586666 1133.54667,119.56 1133.6,119.56 C1133.81333,119.453333 1134.02667,119.4 1134.24,119.4 L1134.56,119.4 L1135.36,119.48 C1136.05334,119.533334 1137.51999,119.56 1139.76,119.56 C1140.34667,119.666667 1141.14666,119.72 1142.16,119.72 C1142.48,120.360003 1143.01333,122.30665 1143.76,125.56 L1144.64,130.12 C1144.85333,131.240006 1145.22666,132.919989 1145.76,135.16 C1145.76,135.213334 1145.77333,135.346666 1145.8,135.56 C1145.82667,135.773334 1145.86667,136.039998 1145.92,136.36 C1146.02667,136.786669 1146.12,137.253331 1146.2,137.76 C1146.28,138.266669 1146.4,138.81333 1146.56,139.4 C1146.61333,139.773335 1146.82666,141.026656 1147.2,143.16 L1148.56,149.8 L1148.8,151 L1148.8,151.32 C1148.90667,151.373334 1148.96,151.506666 1148.96,151.72 L1149.04,152.2 L1149.12,151.72 C1149.12,151.399998 1149.2,151.16 1149.36,151 C1149.36,150.946666 1149.37333,150.826668 1149.4,150.64 L1149.52,149.8 C1149.94667,147.666656 1150.37333,145.453345 1150.8,143.16 L1151.6,139.4 C1151.70667,138.759997 1151.81333,138.200002 1151.92,137.72 C1152.02667,137.239998 1152.10667,136.786669 1152.16,136.36 L1152.4,135.16 C1152.66667,134.039994 1153.01333,132.360011 1153.44,130.12 L1154.32,125.96 C1154.42667,125.37333 1154.69333,124.04001 1155.12,121.96 C1155.38667,121.106662 1155.68,120.360003 1156,119.72 C1156.74667,119.72 1157.33333,119.693334 1157.76,119.64 L1159.76,119.56 L1161.36,119.48 L1162,119.4 L1162.24,119.4 C1162.34667,119.4 1162.4,119.453333 1162.4,119.56 C1162.45333,119.56 1162.49333,119.586666 1162.52,119.64 L1162.56,119.72 C1162.77333,119.72 1162.94667,119.693334 1163.08,119.64 C1163.21333,119.586666 1163.30667,119.56 1163.36,119.56 L1163.36,119.4 L1169.04,119.4 C1169.68,119.4 1170.21333,119.373334 1170.64,119.32 L1172.64,119.32 C1173.65334,119.32 1174.34666,119.266667 1174.72,119.16 L1177.6,119.16 C1178.56,119.16 1179.04,119.906659 1179.04,121.4 L1178.96,122.36 C1178.96,122.893336 1178.85333,123.693328 1178.64,124.76 C1178.48,125.293336 1178.38667,125.706665 1178.36,126 C1178.33333,126.293335 1178.29333,126.493333 1178.24,126.6 C1176.85333,133.640035 1175.30668,140.226636 1173.6,146.36 L1168,171.72 C1168,171.880001 1167.73334,172.173331 1167.2,172.6 L1166.96,172.6 L1166.56,172.52 C1166.18666,172.52 1165.84,172.599999 1165.52,172.76 C1165.2,172.920001 1164.88,173 1164.56,173 C1163.86666,173 1163.14667,172.920001 1162.4,172.76 C1161.54666,172.653333 1160.82667,172.6 1160.24,172.6 C1153.62663,172.866668 1143.92006,173 1131.12,173 Z M1194.56,173 C1194.29333,173 1193.89334,172.96 1193.36,172.88 C1192.82666,172.8 1192.18667,172.733334 1191.44,172.68 L1189.76,172.28 C1189.49333,172.226666 1189.29333,172.16 1189.16,172.08 C1189.02667,172 1188.98667,171.933334 1189.04,171.88 C1189.04,170.493326 1188.96,168.653345 1188.8,166.36 C1188.8,165.559996 1188.77333,164.853336 1188.72,164.24 C1188.66667,163.626664 1188.61333,163.106669 1188.56,162.68 L1188.4,159.24 C1188.4,158.333329 1188.34667,157.186674 1188.24,155.8 L1188.16,153.32 C1188.16,151.293323 1188.13333,149.720006 1188.08,148.6 C1188.02667,147.479994 1188,145.133351 1188,141.56 C1188,138.199983 1188.02667,134.733351 1188.08,131.16 C1188.13333,127.586649 1188.29333,124.200016 1188.56,121 C1188.56,120.41333 1189.19999,119.933335 1190.48,119.56 C1191.28,119.453333 1192.61332,119.4 1194.48,119.4 C1198.80002,119.4 1201.97332,119.320001 1204,119.16 C1210.29336,119.053333 1215.03998,119 1218.24,119 L1221.76,119 C1226.13336,119.106667 1229.49332,119.266666 1231.84,119.48 C1232.69334,119.48 1233.30666,120.493323 1233.68,122.52 C1233.84,122.893335 1234.02667,123.853326 1234.24,125.4 C1234.4,126.200004 1234.61333,127.186661 1234.88,128.36 C1234.93333,128.680002 1234.94667,128.986665 1234.92,129.28 C1234.89333,129.573335 1234.88,129.746666 1234.88,129.8 C1234.82667,130.333336 1234.53334,130.6 1234,130.6 C1233.78667,130.546666 1233.46667,130.52 1233.04,130.52 C1230.79999,130.52 1228.05335,130.706665 1224.8,131.08 L1220.56,131.4 C1218.79999,131.613334 1217.41334,131.746666 1216.4,131.8 C1216.24,131.8 1216.02667,132.119997 1215.76,132.76 C1215.54667,133.453337 1215.30667,135.053321 1215.04,137.56 L1214.88,139.56 C1214.88,140.253337 1214.96,140.693332 1215.12,140.88 C1215.28,141.066668 1215.62666,141.16 1216.16,141.16 L1223.28,141.16 C1225.36001,141.16 1227.73332,141.293332 1230.4,141.56 L1231.36,141.56 C1232.05334,141.720001 1232.48,141.986665 1232.64,142.36 C1232.85333,142.680002 1232.98667,143.026665 1233.04,143.4 L1233.36,150.52 L1233.36,150.76 C1233.36,151.666671 1232.40001,152.199999 1230.48,152.36 C1229.35999,152.626668 1227.22668,152.76 1224.08,152.76 C1221.35999,152.76 1219.6,152.733334 1218.8,152.68 C1217.25333,152.68 1216.32,152.706666 1216,152.76 C1215.41333,152.920001 1215.04,153.226664 1214.88,153.68 C1214.72,154.133336 1214.64,154.893328 1214.64,155.96 C1214.64,156.653337 1214.58667,157.639994 1214.48,158.92 C1214.42667,159.560003 1214.4,160.573326 1214.4,161.96 C1217.86668,161.96 1220.42666,161.906667 1222.08,161.8 C1223.89334,161.639999 1226.45332,161.56 1229.76,161.56 C1229.97333,161.56 1230.18667,161.746665 1230.4,162.12 C1230.66667,162.653336 1231.09333,163.853324 1231.68,165.72 C1232,166.786672 1232.32,168.119992 1232.64,169.72 C1232.74667,170.093335 1232.8,170.493331 1232.8,170.92 C1232.8,172.040006 1232.26667,172.6 1231.2,172.6 C1229.81333,172.6 1227.94668,172.653333 1225.6,172.76 C1224.37333,172.866667 1222.45335,172.92 1219.84,172.92 C1214.23997,172.92 1210.02668,172.946666 1207.2,173 L1194.56,173 Z" id="LOVE" fill="#FFF28E" fill-rule="nonzero"></path>
        <g id="Group-12" transform="translate(832.000000, 66.000000)">
            <path d="M21,124 L59,124" id="Line-7" stroke="#FFFFFF" stroke-width="6" stroke-linecap="round"></path>
            <path d="M21,138 L59,138" id="Line-7" stroke="#FFFFFF" stroke-width="6" stroke-linecap="round"></path>
            <path d="M46.9760797,76.310757 C46.9919036,76.209004 47,76.1051904 47,76 L47,1 L22,1 L22,76 C22,76.1051904 22.0080964,76.209004 22.0239203,76.310757 L34.5,62.9182507 L46.9760797,76.310757 Z" id="Combined-Shape" stroke="#FFFFFF" stroke-width="2" fill="#FFFFFF"></path>
            <rect id="Rectangle" stroke="#FFFFFF" stroke-width="8" x="4" y="4" width="107" height="157" rx="6"></rect>
            <rect id="Rectangle" fill="#FFFFFF" x="19" y="99" width="75" height="11"></rect>
        </g>
    </g>
</svg>