<?xml version="1.0" encoding="UTF-8"?>
<svg width="1440px" height="289px" viewBox="0 0 1440 289" version="1.1" xmlns="http://www.w3.org/2000/svg" xmlns:xlink="http://www.w3.org/1999/xlink">
    <!-- Generator: Sketch 55.2 (78181) - https://sketchapp.com -->
    <title>Banner / Quote / Maybe</title>
    <desc>Created with Sketch.</desc>
    <g id="Banner-/-Quote-/-Maybe" stroke="none" stroke-width="1" fill="none" fill-rule="evenodd">
        <rect id="Rectangle" fill="#F1D3DF" x="0" y="0" width="1440" height="289"></rect>
        <path d="M1078.28,125.832 C1078.28,126.008668 1078.1475,126.167666 1077.8825,126.309 C1077.6175,126.450334 1077.30834,126.521 1076.955,126.521 C1076.81367,126.521 1076.61933,126.4945 1076.372,126.4415 C1076.12467,126.3885 1075.98333,126.326667 1075.948,126.256 C1075.45333,124.312657 1074.27851,122.166178 1072.4235,119.8165 C1070.56849,117.466822 1068.82834,116.292 1067.203,116.292 L1066.408,116.292 C1065.59533,116.292 1065.01234,116.459832 1064.659,116.7955 C1064.30566,117.131168 1064.129,117.65233 1064.129,118.359 L1064.129,143.481 C1064.129,144.89434 1064.46466,145.936663 1065.136,146.608 C1065.80734,147.279337 1067.16766,147.720999 1069.217,147.933 C1069.323,147.933 1069.42017,148.083165 1069.5085,148.3835 C1069.59683,148.683835 1069.641,148.922332 1069.641,149.099 C1069.641,149.311001 1069.59683,149.558332 1069.5085,149.841 C1069.42017,150.123668 1069.323,150.265 1069.217,150.265 C1067.52099,150.265 1065.78084,150.220834 1063.9965,150.1325 C1062.21216,150.044166 1060.52501,150 1058.935,150 C1057.30966,150 1055.61368,150.044166 1053.847,150.1325 C1052.08032,150.220834 1050.33134,150.265 1048.6,150.265 C1048.494,150.265 1048.39683,150.123668 1048.3085,149.841 C1048.22017,149.558332 1048.176,149.311001 1048.176,149.099 C1048.176,148.922332 1048.22017,148.692668 1048.3085,148.41 C1048.39683,148.127332 1048.494,147.968334 1048.6,147.933 C1050.68468,147.685665 1052.05383,147.244003 1052.7075,146.608 C1053.36117,145.971997 1053.688,144.929674 1053.688,143.481 L1053.688,118.359 C1053.688,117.581663 1053.529,117.042835 1053.211,116.7425 C1052.893,116.442165 1052.29234,116.292 1051.409,116.292 L1050.985,116.292 C1049.53633,116.292 1047.75201,117.378489 1045.632,119.5515 C1043.51199,121.724511 1042.01034,123.959322 1041.127,126.256 C1041.09167,126.362001 1040.95917,126.432666 1040.7295,126.468 C1040.49983,126.503334 1040.31433,126.521 1040.173,126.521 C1039.855,126.521 1039.54583,126.450334 1039.2455,126.309 C1038.94517,126.167666 1038.795,126.008668 1038.795,125.832 C1039.14834,124.065325 1039.52816,121.901179 1039.9345,119.3395 C1040.34084,116.777821 1040.63233,114.649008 1040.809,112.953 C1042.04567,113.165001 1043.97132,113.341666 1046.586,113.483 C1049.20068,113.624334 1053.31697,113.695 1058.935,113.695 C1063.74036,113.695 1067.74182,113.624334 1070.9395,113.483 C1074.13718,113.341666 1076.24833,113.165001 1077.273,112.953 C1077.379,114.649008 1077.52033,116.662988 1077.697,118.995 C1077.87367,121.327012 1078.068,123.605989 1078.28,125.832 Z M1090.788,116.928 C1090.788,118.270673 1090.311,119.418995 1089.357,120.373 C1088.403,121.327005 1087.27234,121.804 1085.965,121.804 C1084.65766,121.804 1083.527,121.327005 1082.573,120.373 C1081.619,119.418995 1081.142,118.270673 1081.142,116.928 C1081.142,115.62066 1081.619,114.490005 1082.573,113.536 C1083.527,112.581995 1084.65766,112.105 1085.965,112.105 C1087.27234,112.105 1088.403,112.581995 1089.357,113.536 C1090.311,114.490005 1090.788,115.62066 1090.788,116.928 Z M1094.763,149.099 C1094.763,149.311001 1094.71883,149.558332 1094.6305,149.841 C1094.54217,150.123668 1094.445,150.265 1094.339,150.265 C1093.24366,150.265 1091.87451,150.220834 1090.2315,150.1325 C1088.58849,150.044166 1087.14867,150 1085.912,150 C1084.71066,150 1083.38567,150.044166 1081.937,150.1325 C1080.48833,150.220834 1079.23401,150.265 1078.174,150.265 C1078.068,150.265 1077.97083,150.123668 1077.8825,149.841 C1077.79417,149.558332 1077.75,149.311001 1077.75,149.099 C1077.75,148.922332 1077.79417,148.692668 1077.8825,148.41 C1077.97083,148.127332 1078.068,147.968334 1078.174,147.933 C1079.48134,147.791666 1080.40883,147.438336 1080.9565,146.873 C1081.50417,146.307664 1081.778,145.177008 1081.778,143.481 L1081.778,135.531 C1081.778,134.11766 1081.50417,133.199002 1080.9565,132.775 C1080.40883,132.350998 1079.48134,132.068334 1078.174,131.927 C1078.068,131.891666 1077.97083,131.741501 1077.8825,131.4765 C1077.79417,131.211499 1077.75,130.990668 1077.75,130.814 C1077.75,130.637332 1077.79417,130.407668 1077.8825,130.125 C1077.97083,129.842332 1078.068,129.701 1078.174,129.701 C1079.87001,129.347665 1081.77799,128.773504 1083.898,127.9785 C1086.01801,127.183496 1087.66099,126.503336 1088.827,125.938 C1088.933,125.867333 1089.10967,125.779001 1089.357,125.673 C1089.60433,125.566999 1089.81633,125.514 1089.993,125.514 C1090.417,125.514 1090.72617,125.584666 1090.9205,125.726 C1091.11483,125.867334 1091.19433,126.026332 1091.159,126.203 C1091.08833,127.439673 1091,128.941325 1090.894,130.708 C1090.788,132.474675 1090.735,133.958661 1090.735,135.16 L1090.735,143.481 C1090.735,145.141675 1091.01766,146.27233 1091.583,146.873 C1092.14834,147.47367 1093.06699,147.826999 1094.339,147.933 C1094.445,147.933 1094.54217,148.083165 1094.6305,148.3835 C1094.71883,148.683835 1094.763,148.922332 1094.763,149.099 Z M1145.749,149.099 C1145.749,149.311001 1145.70483,149.558332 1145.6165,149.841 C1145.52817,150.123668 1145.431,150.265 1145.325,150.265 C1144.22966,150.265 1142.96651,150.220834 1141.5355,150.1325 C1140.10449,150.044166 1138.77067,150 1137.534,150 C1136.29733,150 1135.06951,150.044166 1133.8505,150.1325 C1132.63149,150.220834 1131.49201,150.265 1130.432,150.265 C1130.326,150.265 1130.22883,150.132501 1130.1405,149.8675 C1130.05217,149.602499 1130.008,149.346335 1130.008,149.099 C1130.008,148.922332 1130.05217,148.692668 1130.1405,148.41 C1130.22883,148.127332 1130.326,147.968334 1130.432,147.933 C1131.45667,147.791666 1132.09267,147.447169 1132.34,146.8995 C1132.58733,146.351831 1132.711,145.212342 1132.711,143.481 L1132.711,135.107 C1132.711,133.410992 1132.499,132.165504 1132.075,131.3705 C1131.651,130.575496 1130.85601,130.178 1129.69,130.178 C1128.41799,130.178 1127.48167,130.47833 1126.881,131.079 C1126.28033,131.67967 1125.609,132.63366 1124.867,133.941 L1124.867,143.481 C1124.867,145.141675 1124.9995,146.27233 1125.2645,146.873 C1125.5295,147.47367 1126.15666,147.826999 1127.146,147.933 C1127.252,147.933 1127.34917,148.083165 1127.4375,148.3835 C1127.52583,148.683835 1127.57,148.922332 1127.57,149.099 C1127.57,149.346335 1127.52583,149.602499 1127.4375,149.8675 C1127.34917,150.132501 1127.252,150.265 1127.146,150.265 C1126.05066,150.265 1125.079,150.220834 1124.231,150.1325 C1123.383,150.044166 1122.34067,150 1121.104,150 C1119.86733,150 1118.56001,150.044166 1117.182,150.1325 C1115.80399,150.220834 1114.58501,150.265 1113.525,150.265 C1113.419,150.265 1113.32183,150.123668 1113.2335,149.841 C1113.14517,149.558332 1113.101,149.311001 1113.101,149.099 C1113.101,148.922332 1113.14517,148.692668 1113.2335,148.41 C1113.32183,148.127332 1113.419,147.968334 1113.525,147.933 C1114.54967,147.791666 1115.1945,147.447169 1115.4595,146.8995 C1115.7245,146.351831 1115.857,145.212342 1115.857,143.481 L1115.857,135.107 C1115.857,133.410992 1115.57434,132.165504 1115.009,131.3705 C1114.44366,130.575496 1113.56034,130.178 1112.359,130.178 C1111.26366,130.178 1110.40684,130.548996 1109.7885,131.291 C1109.17016,132.033004 1108.56067,133.11066 1107.96,134.524 L1107.96,143.481 C1107.96,145.141675 1108.10133,146.27233 1108.384,146.873 C1108.66667,147.47367 1109.30266,147.826999 1110.292,147.933 C1110.398,147.933 1110.49517,148.083165 1110.5835,148.3835 C1110.67183,148.683835 1110.716,148.922332 1110.716,149.099 C1110.716,149.311001 1110.67183,149.558332 1110.5835,149.841 C1110.49517,150.123668 1110.398,150.265 1110.292,150.265 C1109.19666,150.265 1108.03951,150.220834 1106.8205,150.1325 C1105.60149,150.044166 1104.37367,150 1103.137,150 C1101.93566,150 1100.61067,150.044166 1099.162,150.1325 C1097.71333,150.220834 1096.45901,150.265 1095.399,150.265 C1095.293,150.265 1095.19583,150.132501 1095.1075,149.8675 C1095.01917,149.602499 1094.975,149.346335 1094.975,149.099 C1094.975,148.922332 1095.01917,148.692668 1095.1075,148.41 C1095.19583,148.127332 1095.293,147.968334 1095.399,147.933 C1096.95367,147.756332 1097.93416,147.411836 1098.3405,146.8995 C1098.74684,146.387164 1098.95,145.247676 1098.95,143.481 L1098.95,135.107 C1098.95,133.69366 1098.78217,132.775002 1098.4465,132.351 C1098.11083,131.926998 1097.30701,131.644334 1096.035,131.503 C1095.929,131.467666 1095.83183,131.317501 1095.7435,131.0525 C1095.65517,130.787499 1095.611,130.566668 1095.611,130.39 C1095.611,130.213332 1095.65517,129.983668 1095.7435,129.701 C1095.83183,129.418332 1095.929,129.277 1096.035,129.277 C1097.20101,128.994332 1098.80866,128.464337 1100.858,127.687 C1102.90734,126.909663 1104.49733,126.256003 1105.628,125.726 C1105.734,125.655333 1105.91067,125.567001 1106.158,125.461 C1106.40533,125.354999 1106.61733,125.302 1106.794,125.302 C1107.218,125.302 1107.52717,125.372666 1107.7215,125.514 C1107.91583,125.655334 1108.013,125.814332 1108.013,125.991 L1107.748,131.079 C1108.73734,129.135657 1109.97399,127.766504 1111.458,126.9715 C1112.94201,126.176496 1114.42599,125.779 1115.91,125.779 C1117.81801,125.779 1119.58466,126.255995 1121.21,127.21 C1122.83534,128.164005 1123.913,129.471325 1124.443,131.132 C1125.50301,129.259324 1126.81033,127.899004 1128.365,127.051 C1129.91967,126.202996 1131.59799,125.779 1133.4,125.779 C1136.05001,125.779 1138.09933,126.600492 1139.548,128.2435 C1140.99667,129.886508 1141.721,131.750323 1141.721,133.835 L1141.721,143.481 C1141.721,145.212342 1141.933,146.351831 1142.357,146.8995 C1142.781,147.447169 1143.77033,147.791666 1145.325,147.933 C1145.431,147.933 1145.52817,148.083165 1145.6165,148.3835 C1145.70483,148.683835 1145.749,148.922332 1145.749,149.099 Z M1171.984,136.061 C1171.984,136.308335 1171.89567,136.502666 1171.719,136.644 C1171.54233,136.785334 1171.295,136.856 1170.977,136.856 L1156.349,136.856 C1156.31367,137.103335 1156.296,137.430165 1156.296,137.8365 L1156.296,138.976 C1156.296,141.944015 1156.78183,144.010994 1157.7535,145.177 C1158.72517,146.343006 1160.12966,146.926 1161.967,146.926 C1163.23901,146.926 1164.66999,146.608003 1166.26,145.972 C1167.85001,145.335997 1168.99833,144.541005 1169.705,143.587 C1169.74033,143.516333 1169.84633,143.542833 1170.023,143.6665 C1170.19967,143.790167 1170.35867,143.904999 1170.5,144.011 C1170.67667,144.187668 1170.82683,144.373166 1170.9505,144.5675 C1171.07417,144.761834 1171.136,144.947332 1171.136,145.124 C1171.136,145.194667 1171.12717,145.265333 1171.1095,145.336 C1171.09183,145.406667 1171.04767,145.477333 1170.977,145.548 C1170.09366,146.820006 1168.78634,148.056661 1167.055,149.258 C1165.32366,150.459339 1163.00935,151.06 1160.112,151.06 C1156.33131,151.06 1153.15135,149.841012 1150.572,147.403 C1147.99265,144.964988 1146.703,142.08535 1146.703,138.764 C1146.703,135.018648 1147.93082,131.918179 1150.3865,129.4625 C1152.84218,127.006821 1156.08398,125.779 1160.112,125.779 C1163.78669,125.779 1166.68399,126.768323 1168.804,128.747 C1170.92401,130.725677 1171.984,133.163652 1171.984,136.061 Z M1163.186,132.086 C1163.186,131.025995 1162.9475,130.125004 1162.4705,129.383 C1161.9935,128.640996 1161.278,128.27 1160.324,128.27 C1159.15799,128.27 1158.29234,128.835328 1157.727,129.966 C1157.16166,131.096672 1156.79067,132.580657 1156.614,134.418 L1160.96,134.312 C1161.73734,134.276666 1162.30266,134.126501 1162.656,133.8615 C1163.00934,133.596499 1163.186,133.004671 1163.186,132.086 Z M1206.328,128.694 C1206.328,129.082669 1206.26617,129.497831 1206.1425,129.9395 C1206.01883,130.381169 1205.851,130.602 1205.639,130.602 L1197.742,130.39 L1197.742,144.117 C1197.742,145.106338 1197.94516,145.839498 1198.3515,146.3165 C1198.75784,146.793502 1199.45566,147.032 1200.445,147.032 C1201.22234,147.032 1201.9555,146.828835 1202.6445,146.4225 C1203.3335,146.016165 1203.92533,145.51267 1204.42,144.912 C1204.56133,144.699999 1204.738,144.629333 1204.95,144.7 C1205.162,144.770667 1205.35633,144.894332 1205.533,145.071 C1205.67433,145.247668 1205.80683,145.468499 1205.9305,145.7335 C1206.05417,145.998501 1206.116,146.219332 1206.116,146.396 L1206.116,146.608 C1206.116,146.678667 1206.08067,146.731666 1206.01,146.767 C1205.268,147.721005 1204.13734,148.630829 1202.618,149.4965 C1201.09866,150.362171 1199.31434,150.795 1197.265,150.795 C1194.36765,150.795 1192.17701,150.026508 1190.693,148.4895 C1189.20899,146.952492 1188.48467,144.452684 1188.52,140.99 L1188.626,131.026 C1188.626,130.813999 1188.573,130.637334 1188.467,130.496 C1188.361,130.354666 1188.202,130.284 1187.99,130.284 L1184.704,130.284 C1184.56267,130.284 1184.439,130.125002 1184.333,129.807 C1184.227,129.488998 1184.174,129.259334 1184.174,129.118 C1184.174,128.976666 1184.227,128.755835 1184.333,128.4555 C1184.439,128.155165 1184.545,127.969667 1184.651,127.899 C1186.62968,126.838995 1188.61716,125.593507 1190.6135,124.1625 C1192.60984,122.731493 1194.29699,121.30934 1195.675,119.896 C1195.74567,119.789999 1195.9135,119.692834 1196.1785,119.6045 C1196.4435,119.516166 1196.66433,119.472 1196.841,119.472 C1197.08833,119.472 1197.3445,119.516166 1197.6095,119.6045 C1197.8745,119.692834 1198.007,119.789999 1198.007,119.896 L1197.795,126.839 L1205.639,126.839 C1205.851,126.839 1206.01883,127.068664 1206.1425,127.528 C1206.26617,127.987336 1206.328,128.375998 1206.328,128.694 Z M1235.955,138.605 C1235.955,141.961683 1234.76251,144.885488 1232.3775,147.3765 C1229.99249,149.867512 1226.50336,151.113 1221.91,151.113 C1217.35198,151.113 1213.86285,149.876346 1211.4425,147.403 C1209.02215,144.929654 1207.812,141.997017 1207.812,138.605 C1207.812,135.248317 1209.01332,132.271513 1211.416,129.6745 C1213.81868,127.077487 1217.31664,125.779 1221.91,125.779 C1226.39736,125.779 1229.85999,127.059821 1232.298,129.6215 C1234.73601,132.183179 1235.955,135.17765 1235.955,138.605 Z M1226.309,138.552 C1226.309,135.159983 1226.02634,132.607175 1225.461,130.8935 C1224.89566,129.179825 1223.71201,128.323 1221.91,128.323 C1220.10799,128.323 1218.9155,129.197491 1218.3325,130.9465 C1217.7495,132.695509 1217.458,135.23065 1217.458,138.552 C1217.458,141.97935 1217.7495,144.505659 1218.3325,146.131 C1218.9155,147.756341 1220.10799,148.569 1221.91,148.569 C1223.67668,148.569 1224.8515,147.747508 1225.4345,146.1045 C1226.0175,144.461492 1226.309,141.944017 1226.309,138.552 Z M1299.926,149.099 C1299.926,149.311001 1299.88183,149.558332 1299.7935,149.841 C1299.70517,150.123668 1299.608,150.265 1299.502,150.265 C1298.40666,150.265 1297.14351,150.220834 1295.7125,150.1325 C1294.28149,150.044166 1292.94767,150 1291.711,150 C1290.47433,150 1289.24651,150.044166 1288.0275,150.1325 C1286.80849,150.220834 1285.66901,150.265 1284.609,150.265 C1284.503,150.265 1284.40583,150.132501 1284.3175,149.8675 C1284.22917,149.602499 1284.185,149.346335 1284.185,149.099 C1284.185,148.922332 1284.22917,148.692668 1284.3175,148.41 C1284.40583,148.127332 1284.503,147.968334 1284.609,147.933 C1285.63367,147.791666 1286.26967,147.447169 1286.517,146.8995 C1286.76433,146.351831 1286.888,145.212342 1286.888,143.481 L1286.888,135.107 C1286.888,133.410992 1286.676,132.165504 1286.252,131.3705 C1285.828,130.575496 1285.03301,130.178 1283.867,130.178 C1282.59499,130.178 1281.65867,130.47833 1281.058,131.079 C1280.45733,131.67967 1279.786,132.63366 1279.044,133.941 L1279.044,143.481 C1279.044,145.141675 1279.1765,146.27233 1279.4415,146.873 C1279.7065,147.47367 1280.33366,147.826999 1281.323,147.933 C1281.429,147.933 1281.52617,148.083165 1281.6145,148.3835 C1281.70283,148.683835 1281.747,148.922332 1281.747,149.099 C1281.747,149.346335 1281.70283,149.602499 1281.6145,149.8675 C1281.52617,150.132501 1281.429,150.265 1281.323,150.265 C1280.22766,150.265 1279.256,150.220834 1278.408,150.1325 C1277.56,150.044166 1276.51767,150 1275.281,150 C1274.04433,150 1272.73701,150.044166 1271.359,150.1325 C1269.98099,150.220834 1268.76201,150.265 1267.702,150.265 C1267.596,150.265 1267.49883,150.123668 1267.4105,149.841 C1267.32217,149.558332 1267.278,149.311001 1267.278,149.099 C1267.278,148.922332 1267.32217,148.692668 1267.4105,148.41 C1267.49883,148.127332 1267.596,147.968334 1267.702,147.933 C1268.72667,147.791666 1269.3715,147.447169 1269.6365,146.8995 C1269.9015,146.351831 1270.034,145.212342 1270.034,143.481 L1270.034,135.107 C1270.034,133.410992 1269.75134,132.165504 1269.186,131.3705 C1268.62066,130.575496 1267.73734,130.178 1266.536,130.178 C1265.44066,130.178 1264.58384,130.548996 1263.9655,131.291 C1263.34716,132.033004 1262.73767,133.11066 1262.137,134.524 L1262.137,143.481 C1262.137,145.141675 1262.27833,146.27233 1262.561,146.873 C1262.84367,147.47367 1263.47966,147.826999 1264.469,147.933 C1264.575,147.933 1264.67217,148.083165 1264.7605,148.3835 C1264.84883,148.683835 1264.893,148.922332 1264.893,149.099 C1264.893,149.311001 1264.84883,149.558332 1264.7605,149.841 C1264.67217,150.123668 1264.575,150.265 1264.469,150.265 C1263.37366,150.265 1262.21651,150.220834 1260.9975,150.1325 C1259.77849,150.044166 1258.55067,150 1257.314,150 C1256.11266,150 1254.78767,150.044166 1253.339,150.1325 C1251.89033,150.220834 1250.63601,150.265 1249.576,150.265 C1249.47,150.265 1249.37283,150.132501 1249.2845,149.8675 C1249.19617,149.602499 1249.152,149.346335 1249.152,149.099 C1249.152,148.922332 1249.19617,148.692668 1249.2845,148.41 C1249.37283,148.127332 1249.47,147.968334 1249.576,147.933 C1251.13067,147.756332 1252.11116,147.411836 1252.5175,146.8995 C1252.92384,146.387164 1253.127,145.247676 1253.127,143.481 L1253.127,135.107 C1253.127,133.69366 1252.95917,132.775002 1252.6235,132.351 C1252.28783,131.926998 1251.48401,131.644334 1250.212,131.503 C1250.106,131.467666 1250.00883,131.317501 1249.9205,131.0525 C1249.83217,130.787499 1249.788,130.566668 1249.788,130.39 C1249.788,130.213332 1249.83217,129.983668 1249.9205,129.701 C1250.00883,129.418332 1250.106,129.277 1250.212,129.277 C1251.37801,128.994332 1252.98566,128.464337 1255.035,127.687 C1257.08434,126.909663 1258.67433,126.256003 1259.805,125.726 C1259.911,125.655333 1260.08767,125.567001 1260.335,125.461 C1260.58233,125.354999 1260.79433,125.302 1260.971,125.302 C1261.395,125.302 1261.70417,125.372666 1261.8985,125.514 C1262.09283,125.655334 1262.19,125.814332 1262.19,125.991 L1261.925,131.079 C1262.91434,129.135657 1264.15099,127.766504 1265.635,126.9715 C1267.11901,126.176496 1268.60299,125.779 1270.087,125.779 C1271.99501,125.779 1273.76166,126.255995 1275.387,127.21 C1277.01234,128.164005 1278.09,129.471325 1278.62,131.132 C1279.68001,129.259324 1280.98733,127.899004 1282.542,127.051 C1284.09667,126.202996 1285.77499,125.779 1287.577,125.779 C1290.22701,125.779 1292.27633,126.600492 1293.725,128.2435 C1295.17367,129.886508 1295.898,131.750323 1295.898,133.835 L1295.898,143.481 C1295.898,145.212342 1296.11,146.351831 1296.534,146.8995 C1296.958,147.447169 1297.94733,147.791666 1299.502,147.933 C1299.608,147.933 1299.70517,148.083165 1299.7935,148.3835 C1299.88183,148.683835 1299.926,148.922332 1299.926,149.099 Z M1328.016,147.721 C1327.98067,147.827001 1327.963,147.915333 1327.963,147.986 C1327.963,148.056667 1327.91,148.127333 1327.804,148.198 C1327.13266,148.975337 1326.09034,149.611331 1324.677,150.106 C1323.26366,150.600669 1321.81501,150.848 1320.331,150.848 C1318.88233,150.848 1317.7075,150.52117 1316.8065,149.8675 C1315.9055,149.21383 1315.31367,148.339339 1315.031,147.244 C1314.21833,148.480673 1313.18484,149.390497 1311.9305,149.9735 C1310.67616,150.556503 1309.13034,150.848 1307.293,150.848 C1305.27899,150.848 1303.57417,150.388671 1302.1785,149.47 C1300.78283,148.551329 1300.085,147.155676 1300.085,145.283 C1300.085,143.198323 1301.23332,141.50234 1303.53,140.195 C1305.82668,138.88766 1309.67797,137.633339 1315.084,136.432 L1315.243,131.238 C1315.243,130.142661 1315.084,129.418335 1314.766,129.065 C1314.448,128.711665 1313.918,128.535 1313.176,128.535 C1312.434,128.535 1311.75384,128.676332 1311.1355,128.959 C1310.51716,129.241668 1310.17267,129.824662 1310.102,130.708 C1309.92533,132.898678 1309.466,134.417996 1308.724,135.266 C1307.982,136.114004 1306.88667,136.538 1305.438,136.538 C1304.13066,136.538 1303.1325,136.15817 1302.4435,135.3985 C1301.7545,134.63883 1301.41,133.729005 1301.41,132.669 C1301.41,130.902325 1302.84982,129.277007 1305.7295,127.793 C1308.60918,126.308993 1311.83332,125.567 1315.402,125.567 C1318.65268,125.567 1320.86983,126.379659 1322.0535,128.005 C1323.23717,129.630341 1323.776,131.838653 1323.67,134.63 L1323.405,143.852 C1323.33433,145.088673 1323.511,145.892498 1323.935,146.2635 C1324.359,146.634502 1324.76533,146.82 1325.154,146.82 C1325.472,146.82 1325.77233,146.767001 1326.055,146.661 C1326.33767,146.554999 1326.585,146.413668 1326.797,146.237 C1326.93833,146.130999 1327.17683,146.263498 1327.5125,146.6345 C1327.84817,147.005502 1328.016,147.367665 1328.016,147.721 Z M1314.978,138.393 C1312.89332,138.887669 1311.39167,139.558996 1310.473,140.407 C1309.55433,141.255004 1309.095,142.473992 1309.095,144.064 C1309.095,144.947338 1309.3335,145.653997 1309.8105,146.184 C1310.2875,146.714003 1310.95,146.979 1311.798,146.979 C1312.50467,146.979 1313.1495,146.758169 1313.7325,146.3165 C1314.3155,145.874831 1314.67767,145.035673 1314.819,143.799 L1314.978,138.393 Z M1361.247,149.099 C1361.247,149.346335 1361.20283,149.602499 1361.1145,149.8675 C1361.02617,150.132501 1360.929,150.265 1360.823,150.265 C1359.72766,150.265 1358.65001,150.212001 1357.59,150.106 C1356.52999,149.999999 1355.38167,149.947 1354.145,149.947 C1352.90833,149.947 1351.47734,149.999999 1349.852,150.106 C1348.22666,150.212001 1346.88401,150.265 1345.824,150.265 C1345.718,150.265 1345.62083,150.123668 1345.5325,149.841 C1345.44417,149.558332 1345.4,149.311001 1345.4,149.099 C1345.4,148.922332 1345.44417,148.692668 1345.5325,148.41 C1345.62083,148.127332 1345.718,147.968334 1345.824,147.933 C1346.354,147.862333 1346.73383,147.756334 1346.9635,147.615 C1347.19317,147.473666 1347.308,147.261668 1347.308,146.979 C1347.308,146.696332 1347.21967,146.343002 1347.043,145.919 C1346.86633,145.494998 1346.47767,144.965003 1345.877,144.329 L1342.008,140.036 C1341.83133,139.859332 1341.62817,139.726834 1341.3985,139.6385 C1341.16883,139.550166 1340.85967,139.506 1340.471,139.506 L1340.471,143.481 C1340.471,145.035674 1340.64766,146.148663 1341.001,146.82 C1341.35434,147.491337 1341.88433,147.862333 1342.591,147.933 C1342.697,147.933 1342.79417,148.083165 1342.8825,148.3835 C1342.97083,148.683835 1343.015,148.922332 1343.015,149.099 C1343.015,149.311001 1342.97083,149.558332 1342.8825,149.841 C1342.79417,150.123668 1342.697,150.265 1342.591,150.265 C1341.49566,150.265 1340.40917,150.212001 1339.3315,150.106 C1338.25383,149.999999 1337.09667,149.947 1335.86,149.947 C1334.65866,149.947 1333.29834,149.999999 1331.779,150.106 C1330.25966,150.212001 1328.97001,150.265 1327.91,150.265 C1327.804,150.265 1327.70683,150.132501 1327.6185,149.8675 C1327.53017,149.602499 1327.486,149.346335 1327.486,149.099 C1327.486,148.922332 1327.53017,148.692668 1327.6185,148.41 C1327.70683,148.127332 1327.804,147.968334 1327.91,147.933 C1329.21734,147.791666 1330.136,147.456003 1330.666,146.926 C1331.196,146.395997 1331.461,145.247676 1331.461,143.481 L1331.461,121.592 C1331.461,120.213993 1331.18717,119.295336 1330.6395,118.836 C1330.09183,118.376664 1329.18201,118.076334 1327.91,117.935 C1327.804,117.899666 1327.70683,117.749501 1327.6185,117.4845 C1327.53017,117.219499 1327.486,116.998668 1327.486,116.822 C1327.486,116.645332 1327.53017,116.424501 1327.6185,116.1595 C1327.70683,115.894499 1327.804,115.762 1327.91,115.762 C1329.60601,115.373331 1331.46982,114.79917 1333.5015,114.0395 C1335.53318,113.27983 1337.22033,112.582003 1338.563,111.946 C1338.669,111.875333 1338.84567,111.787001 1339.093,111.681 C1339.34033,111.574999 1339.55233,111.522 1339.729,111.522 C1340.153,111.522 1340.46217,111.601499 1340.6565,111.7605 C1340.85083,111.919501 1340.93033,112.069666 1340.895,112.211 C1340.82433,113.447673 1340.736,114.966991 1340.63,116.769 C1340.524,118.571009 1340.471,120.037328 1340.471,121.168 L1340.471,137.174 C1340.71833,137.174 1340.96567,137.138667 1341.213,137.068 C1341.46033,136.997333 1341.70767,136.856001 1341.955,136.644 L1346.778,132.669 C1347.48467,132.06833 1347.97933,131.573669 1348.262,131.185 C1348.54467,130.796331 1348.686,130.460668 1348.686,130.178 C1348.686,129.824665 1348.51817,129.550834 1348.1825,129.3565 C1347.84683,129.162166 1347.16667,129.012001 1346.142,128.906 C1346.036,128.906 1345.93883,128.764668 1345.8505,128.482 C1345.76217,128.199332 1345.718,127.952001 1345.718,127.74 C1345.718,127.527999 1345.76217,127.280668 1345.8505,126.998 C1345.93883,126.715332 1346.036,126.574 1346.142,126.574 C1347.27267,126.574 1348.32383,126.626999 1349.2955,126.733 C1350.26717,126.839001 1351.26533,126.892 1352.29,126.892 C1353.10267,126.892 1353.986,126.839001 1354.94,126.733 C1355.894,126.626999 1356.90099,126.574 1357.961,126.574 C1358.067,126.574 1358.16417,126.715332 1358.2525,126.998 C1358.34083,127.280668 1358.385,127.527999 1358.385,127.74 C1358.385,127.916668 1358.34083,128.155165 1358.2525,128.4555 C1358.16417,128.755835 1358.067,128.906 1357.961,128.906 C1357.07766,128.976667 1356.01767,129.276997 1354.781,129.807 C1353.54433,130.337003 1352.06034,131.290993 1350.329,132.669 L1347.785,134.789 L1355.682,144.329 C1356.67134,145.389005 1357.59,146.236997 1358.438,146.873 C1359.286,147.509003 1360.081,147.862333 1360.823,147.933 C1360.929,147.933 1361.02617,148.083165 1361.1145,148.3835 C1361.20283,148.683835 1361.247,148.922332 1361.247,149.099 Z M1385.839,136.061 C1385.839,136.308335 1385.75067,136.502666 1385.574,136.644 C1385.39733,136.785334 1385.15,136.856 1384.832,136.856 L1370.204,136.856 C1370.16867,137.103335 1370.151,137.430165 1370.151,137.8365 L1370.151,138.976 C1370.151,141.944015 1370.63683,144.010994 1371.6085,145.177 C1372.58017,146.343006 1373.98466,146.926 1375.822,146.926 C1377.09401,146.926 1378.52499,146.608003 1380.115,145.972 C1381.70501,145.335997 1382.85333,144.541005 1383.56,143.587 C1383.59533,143.516333 1383.70133,143.542833 1383.878,143.6665 C1384.05467,143.790167 1384.21367,143.904999 1384.355,144.011 C1384.53167,144.187668 1384.68183,144.373166 1384.8055,144.5675 C1384.92917,144.761834 1384.991,144.947332 1384.991,145.124 C1384.991,145.194667 1384.98217,145.265333 1384.9645,145.336 C1384.94683,145.406667 1384.90267,145.477333 1384.832,145.548 C1383.94866,146.820006 1382.64134,148.056661 1380.91,149.258 C1379.17866,150.459339 1376.86435,151.06 1373.967,151.06 C1370.18631,151.06 1367.00635,149.841012 1364.427,147.403 C1361.84765,144.964988 1360.558,142.08535 1360.558,138.764 C1360.558,135.018648 1361.78582,131.918179 1364.2415,129.4625 C1366.69718,127.006821 1369.93898,125.779 1373.967,125.779 C1377.64169,125.779 1380.53899,126.768323 1382.659,128.747 C1384.77901,130.725677 1385.839,133.163652 1385.839,136.061 Z M1377.041,132.086 C1377.041,131.025995 1376.8025,130.125004 1376.3255,129.383 C1375.8485,128.640996 1375.133,128.27 1374.179,128.27 C1373.01299,128.27 1372.14734,128.835328 1371.582,129.966 C1371.01666,131.096672 1370.64567,132.580657 1370.469,134.418 L1374.815,134.312 C1375.59234,134.276666 1376.15766,134.126501 1376.511,133.8615 C1376.86434,133.596499 1377.041,133.004671 1377.041,132.086 Z" id="Timetomake" fill="#3E2E22" fill-rule="nonzero"></path>
        <path d="M1235.602,231.099 C1235.602,231.311001 1235.55783,231.558332 1235.4695,231.841 C1235.38117,232.123668 1235.284,232.265 1235.178,232.265 C1234.08266,232.265 1232.81951,232.220834 1231.3885,232.1325 C1229.95749,232.044166 1228.62367,232 1227.387,232 C1226.18566,232 1225.00201,232.044166 1223.836,232.1325 C1222.66999,232.220834 1221.55701,232.265 1220.497,232.265 C1220.391,232.265 1220.29383,232.123668 1220.2055,231.841 C1220.11717,231.558332 1220.073,231.311001 1220.073,231.099 C1220.073,230.922332 1220.11717,230.692668 1220.2055,230.41 C1220.29383,230.127332 1220.391,229.968334 1220.497,229.933 C1221.20367,229.826999 1221.73366,229.482503 1222.087,228.8995 C1222.44034,228.316497 1222.617,227.177008 1222.617,225.481 L1222.617,217.107 C1222.617,215.340325 1222.405,214.07717 1221.981,213.3175 C1221.557,212.55783 1220.74434,212.178 1219.543,212.178 C1218.51833,212.178 1217.688,212.522497 1217.052,213.2115 C1216.416,213.900503 1215.78,215.004659 1215.144,216.524 L1215.144,225.481 C1215.144,227.035674 1215.31183,228.148663 1215.6475,228.82 C1215.98317,229.491337 1216.50433,229.862333 1217.211,229.933 C1217.317,229.933 1217.41417,230.083165 1217.5025,230.3835 C1217.59083,230.683835 1217.635,230.922332 1217.635,231.099 C1217.635,231.346335 1217.59083,231.602499 1217.5025,231.8675 C1217.41417,232.132501 1217.317,232.265 1217.211,232.265 C1216.11566,232.265 1215.00267,232.220834 1213.872,232.1325 C1212.74133,232.044166 1211.55767,232 1210.321,232 C1209.08433,232 1207.75051,232.044166 1206.3195,232.1325 C1204.88849,232.220834 1203.64301,232.265 1202.583,232.265 C1202.477,232.265 1202.37983,232.132501 1202.2915,231.8675 C1202.20317,231.602499 1202.159,231.346335 1202.159,231.099 C1202.159,230.922332 1202.20317,230.692668 1202.2915,230.41 C1202.37983,230.127332 1202.477,229.968334 1202.583,229.933 C1204.13767,229.756332 1205.11816,229.411836 1205.5245,228.8995 C1205.93084,228.387164 1206.134,227.247676 1206.134,225.481 L1206.134,203.592 C1206.134,202.213993 1205.869,201.304169 1205.339,200.8625 C1204.809,200.420831 1203.89034,200.129334 1202.583,199.988 C1202.477,199.952666 1202.37983,199.802501 1202.2915,199.5375 C1202.20317,199.272499 1202.159,199.051668 1202.159,198.875 C1202.159,198.698332 1202.20317,198.468668 1202.2915,198.186 C1202.37983,197.903332 1202.477,197.762 1202.583,197.762 C1204.24367,197.408665 1206.16049,196.825671 1208.3335,196.013 C1210.50651,195.200329 1212.12299,194.529003 1213.183,193.999 C1213.289,193.928333 1213.46567,193.840001 1213.713,193.734 C1213.96033,193.627999 1214.17233,193.575 1214.349,193.575 C1214.80834,193.575 1215.12633,193.645666 1215.303,193.787 C1215.47967,193.928334 1215.568,194.087332 1215.568,194.264 C1215.462,195.606673 1215.36483,197.161325 1215.2765,198.928 C1215.18817,200.694676 1215.144,202.125661 1215.144,203.221 L1215.144,212.655 C1215.92134,210.994325 1217.06966,209.766504 1218.589,208.9715 C1220.10834,208.176496 1221.62766,207.779 1223.147,207.779 C1225.79701,207.779 1227.86399,208.600492 1229.348,210.2435 C1230.83201,211.886508 1231.574,213.750323 1231.574,215.835 L1231.574,225.481 C1231.574,227.177008 1231.786,228.307664 1232.21,228.873 C1232.634,229.438336 1233.62333,229.791666 1235.178,229.933 C1235.284,229.933 1235.38117,230.083165 1235.4695,230.3835 C1235.55783,230.683835 1235.602,230.922332 1235.602,231.099 Z M1263.692,229.721 C1263.65667,229.827001 1263.639,229.915333 1263.639,229.986 C1263.639,230.056667 1263.586,230.127333 1263.48,230.198 C1262.80866,230.975337 1261.76634,231.611331 1260.353,232.106 C1258.93966,232.600669 1257.49101,232.848 1256.007,232.848 C1254.55833,232.848 1253.3835,232.52117 1252.4825,231.8675 C1251.5815,231.21383 1250.98967,230.339339 1250.707,229.244 C1249.89433,230.480673 1248.86084,231.390497 1247.6065,231.9735 C1246.35216,232.556503 1244.80634,232.848 1242.969,232.848 C1240.95499,232.848 1239.25017,232.388671 1237.8545,231.47 C1236.45883,230.551329 1235.761,229.155676 1235.761,227.283 C1235.761,225.198323 1236.90932,223.50234 1239.206,222.195 C1241.50268,220.88766 1245.35397,219.633339 1250.76,218.432 L1250.919,213.238 C1250.919,212.142661 1250.76,211.418335 1250.442,211.065 C1250.124,210.711665 1249.594,210.535 1248.852,210.535 C1248.11,210.535 1247.42984,210.676332 1246.8115,210.959 C1246.19316,211.241668 1245.84867,211.824662 1245.778,212.708 C1245.60133,214.898678 1245.142,216.417996 1244.4,217.266 C1243.658,218.114004 1242.56267,218.538 1241.114,218.538 C1239.80666,218.538 1238.8085,218.15817 1238.1195,217.3985 C1237.4305,216.63883 1237.086,215.729005 1237.086,214.669 C1237.086,212.902325 1238.52582,211.277007 1241.4055,209.793 C1244.28518,208.308993 1247.50932,207.567 1251.078,207.567 C1254.32868,207.567 1256.54583,208.379659 1257.7295,210.005 C1258.91317,211.630341 1259.452,213.838653 1259.346,216.63 L1259.081,225.852 C1259.01033,227.088673 1259.187,227.892498 1259.611,228.2635 C1260.035,228.634502 1260.44133,228.82 1260.83,228.82 C1261.148,228.82 1261.44833,228.767001 1261.731,228.661 C1262.01367,228.554999 1262.261,228.413668 1262.473,228.237 C1262.61433,228.130999 1262.85283,228.263498 1263.1885,228.6345 C1263.52417,229.005502 1263.692,229.367665 1263.692,229.721 Z M1250.654,220.393 C1248.56932,220.887669 1247.06767,221.558996 1246.149,222.407 C1245.23033,223.255004 1244.771,224.473992 1244.771,226.064 C1244.771,226.947338 1245.0095,227.653997 1245.4865,228.184 C1245.9635,228.714003 1246.626,228.979 1247.474,228.979 C1248.18067,228.979 1248.8255,228.758169 1249.4085,228.3165 C1249.9915,227.874831 1250.35367,227.035673 1250.495,225.799 L1250.654,220.393 Z M1294.432,219.704 C1294.432,223.343352 1293.23951,226.479154 1290.8545,229.1115 C1288.46949,231.743846 1285.19235,233.06 1281.023,233.06 C1279.92766,233.06 1278.9825,232.954001 1278.1875,232.742 C1277.3925,232.529999 1276.677,232.247335 1276.041,231.894 L1276.041,239.208 C1276.041,240.904008 1276.32366,242.034664 1276.889,242.6 C1277.45434,243.165336 1278.51433,243.518666 1280.069,243.66 C1280.175,243.66 1280.27217,243.810165 1280.3605,244.1105 C1280.44883,244.410835 1280.493,244.649332 1280.493,244.826 C1280.493,245.038001 1280.44883,245.285332 1280.3605,245.568 C1280.27217,245.850668 1280.175,245.992 1280.069,245.992 C1278.93833,245.992 1277.54267,245.947834 1275.882,245.8595 C1274.22133,245.771166 1272.77267,245.727 1271.536,245.727 C1270.29933,245.727 1268.91251,245.771166 1267.3755,245.8595 C1265.83849,245.947834 1264.54001,245.992 1263.48,245.992 C1263.374,245.992 1263.27683,245.859501 1263.1885,245.5945 C1263.10017,245.329499 1263.056,245.073335 1263.056,244.826 C1263.056,244.649332 1263.10017,244.419668 1263.1885,244.137 C1263.27683,243.854332 1263.374,243.695334 1263.48,243.66 C1265.03467,243.483332 1266.01516,243.138836 1266.4215,242.6265 C1266.82784,242.114164 1267.031,240.974675 1267.031,239.208 L1267.031,217.213 C1267.031,215.834993 1266.86317,214.916336 1266.5275,214.457 C1266.19183,213.997664 1265.38801,213.697334 1264.116,213.556 C1264.01,213.520666 1263.91283,213.370501 1263.8245,213.1055 C1263.73617,212.840499 1263.692,212.619668 1263.692,212.443 C1263.692,212.266332 1263.73617,212.045501 1263.8245,211.7805 C1263.91283,211.515499 1264.01,211.383 1264.116,211.383 C1265.31734,211.064998 1266.96916,210.508504 1269.0715,209.7135 C1271.17384,208.918496 1272.71966,208.273669 1273.709,207.779 C1273.815,207.708333 1273.99167,207.620001 1274.239,207.514 C1274.48633,207.407999 1274.69833,207.355 1274.875,207.355 C1275.299,207.355 1275.60817,207.434499 1275.8025,207.5935 C1275.99683,207.752501 1276.07633,207.902666 1276.041,208.044 L1275.829,212.178 C1276.42967,211.047328 1277.37483,210.031505 1278.6645,209.1305 C1279.95417,208.229495 1281.64132,207.779 1283.726,207.779 C1287.04735,207.779 1289.66199,208.927322 1291.57,211.224 C1293.47801,213.520678 1294.432,216.347317 1294.432,219.704 Z M1284.15,227.548 C1284.43267,226.699996 1284.61817,225.657673 1284.7065,224.421 C1284.79483,223.184327 1284.839,221.753341 1284.839,220.128 C1284.839,217.265986 1284.43267,215.199006 1283.62,213.927 C1282.80733,212.654994 1281.74734,212.019 1280.44,212.019 C1279.34466,212.019 1278.52317,212.230998 1277.9755,212.655 C1277.42783,213.079002 1276.783,213.962327 1276.041,215.305 L1276.041,226.541 C1276.041,227.777673 1276.359,228.758163 1276.995,229.4825 C1277.631,230.206837 1278.62033,230.569 1279.963,230.569 C1281.12901,230.569 1282.04766,230.304003 1282.719,229.774 C1283.39034,229.243997 1283.86733,228.502005 1284.15,227.548 Z M1327.557,219.704 C1327.557,223.343352 1326.36451,226.479154 1323.9795,229.1115 C1321.59449,231.743846 1318.31735,233.06 1314.148,233.06 C1313.05266,233.06 1312.1075,232.954001 1311.3125,232.742 C1310.5175,232.529999 1309.802,232.247335 1309.166,231.894 L1309.166,239.208 C1309.166,240.904008 1309.44866,242.034664 1310.014,242.6 C1310.57934,243.165336 1311.63933,243.518666 1313.194,243.66 C1313.3,243.66 1313.39717,243.810165 1313.4855,244.1105 C1313.57383,244.410835 1313.618,244.649332 1313.618,244.826 C1313.618,245.038001 1313.57383,245.285332 1313.4855,245.568 C1313.39717,245.850668 1313.3,245.992 1313.194,245.992 C1312.06333,245.992 1310.66767,245.947834 1309.007,245.8595 C1307.34633,245.771166 1305.89767,245.727 1304.661,245.727 C1303.42433,245.727 1302.03751,245.771166 1300.5005,245.8595 C1298.96349,245.947834 1297.66501,245.992 1296.605,245.992 C1296.499,245.992 1296.40183,245.859501 1296.3135,245.5945 C1296.22517,245.329499 1296.181,245.073335 1296.181,244.826 C1296.181,244.649332 1296.22517,244.419668 1296.3135,244.137 C1296.40183,243.854332 1296.499,243.695334 1296.605,243.66 C1298.15967,243.483332 1299.14016,243.138836 1299.5465,242.6265 C1299.95284,242.114164 1300.156,240.974675 1300.156,239.208 L1300.156,217.213 C1300.156,215.834993 1299.98817,214.916336 1299.6525,214.457 C1299.31683,213.997664 1298.51301,213.697334 1297.241,213.556 C1297.135,213.520666 1297.03783,213.370501 1296.9495,213.1055 C1296.86117,212.840499 1296.817,212.619668 1296.817,212.443 C1296.817,212.266332 1296.86117,212.045501 1296.9495,211.7805 C1297.03783,211.515499 1297.135,211.383 1297.241,211.383 C1298.44234,211.064998 1300.09416,210.508504 1302.1965,209.7135 C1304.29884,208.918496 1305.84466,208.273669 1306.834,207.779 C1306.94,207.708333 1307.11667,207.620001 1307.364,207.514 C1307.61133,207.407999 1307.82333,207.355 1308,207.355 C1308.424,207.355 1308.73317,207.434499 1308.9275,207.5935 C1309.12183,207.752501 1309.20133,207.902666 1309.166,208.044 L1308.954,212.178 C1309.55467,211.047328 1310.49983,210.031505 1311.7895,209.1305 C1313.07917,208.229495 1314.76632,207.779 1316.851,207.779 C1320.17235,207.779 1322.78699,208.927322 1324.695,211.224 C1326.60301,213.520678 1327.557,216.347317 1327.557,219.704 Z M1317.275,227.548 C1317.55767,226.699996 1317.74317,225.657673 1317.8315,224.421 C1317.91983,223.184327 1317.964,221.753341 1317.964,220.128 C1317.964,217.265986 1317.55767,215.199006 1316.745,213.927 C1315.93233,212.654994 1314.87234,212.019 1313.565,212.019 C1312.46966,212.019 1311.64817,212.230998 1311.1005,212.655 C1310.55283,213.079002 1309.908,213.962327 1309.166,215.305 L1309.166,226.541 C1309.166,227.777673 1309.484,228.758163 1310.12,229.4825 C1310.756,230.206837 1311.74533,230.569 1313.088,230.569 C1314.25401,230.569 1315.17266,230.304003 1315.844,229.774 C1316.51534,229.243997 1316.99233,228.502005 1317.275,227.548 Z M1356.389,218.061 C1356.389,218.308335 1356.30067,218.502666 1356.124,218.644 C1355.94733,218.785334 1355.7,218.856 1355.382,218.856 L1340.754,218.856 C1340.71867,219.103335 1340.701,219.430165 1340.701,219.8365 L1340.701,220.976 C1340.701,223.944015 1341.18683,226.010994 1342.1585,227.177 C1343.13017,228.343006 1344.53466,228.926 1346.372,228.926 C1347.64401,228.926 1349.07499,228.608003 1350.665,227.972 C1352.25501,227.335997 1353.40333,226.541005 1354.11,225.587 C1354.14533,225.516333 1354.25133,225.542833 1354.428,225.6665 C1354.60467,225.790167 1354.76367,225.904999 1354.905,226.011 C1355.08167,226.187668 1355.23183,226.373166 1355.3555,226.5675 C1355.47917,226.761834 1355.541,226.947332 1355.541,227.124 C1355.541,227.194667 1355.53217,227.265333 1355.5145,227.336 C1355.49683,227.406667 1355.45267,227.477333 1355.382,227.548 C1354.49866,228.820006 1353.19134,230.056661 1351.46,231.258 C1349.72866,232.459339 1347.41435,233.06 1344.517,233.06 C1340.73631,233.06 1337.55635,231.841012 1334.977,229.403 C1332.39765,226.964988 1331.108,224.08535 1331.108,220.764 C1331.108,217.018648 1332.33582,213.918179 1334.7915,211.4625 C1337.24718,209.006821 1340.48898,207.779 1344.517,207.779 C1348.19169,207.779 1351.08899,208.768323 1353.209,210.747 C1355.32901,212.725677 1356.389,215.163652 1356.389,218.061 Z M1347.591,214.086 C1347.591,213.025995 1347.3525,212.125004 1346.8755,211.383 C1346.3985,210.640996 1345.683,210.27 1344.729,210.27 C1343.56299,210.27 1342.69734,210.835328 1342.132,211.966 C1341.56666,213.096672 1341.19567,214.580657 1341.019,216.418 L1345.365,216.312 C1346.14234,216.276666 1346.70766,216.126501 1347.061,215.8615 C1347.41434,215.596499 1347.591,215.004671 1347.591,214.086 Z M1391.899,231.152 C1391.899,231.364001 1391.85483,231.611332 1391.7665,231.894 C1391.67817,232.176668 1391.581,232.318 1391.475,232.318 C1390.37966,232.318 1389.11651,232.265001 1387.6855,232.159 C1386.25449,232.052999 1384.92067,232 1383.684,232 C1382.48266,232 1381.29901,232.052999 1380.133,232.159 C1378.96699,232.265001 1377.85401,232.318 1376.794,232.318 C1376.688,232.318 1376.59083,232.176668 1376.5025,231.894 C1376.41417,231.611332 1376.37,231.364001 1376.37,231.152 C1376.37,230.939999 1376.41417,230.701501 1376.5025,230.4365 C1376.59083,230.171499 1376.688,230.021334 1376.794,229.986 C1377.50067,229.879999 1378.03066,229.535503 1378.384,228.9525 C1378.73734,228.369497 1378.914,227.230008 1378.914,225.534 L1378.914,217.107 C1378.914,215.340325 1378.71084,214.086004 1378.3045,213.344 C1377.89816,212.601996 1377.07667,212.231 1375.84,212.231 C1374.81533,212.231 1373.985,212.575497 1373.349,213.2645 C1372.713,213.953503 1372.077,215.057659 1371.441,216.577 L1371.441,225.534 C1371.441,227.088674 1371.60883,228.201663 1371.9445,228.873 C1372.28017,229.544337 1372.80133,229.915333 1373.508,229.986 C1373.614,229.986 1373.71117,230.118499 1373.7995,230.3835 C1373.88783,230.648501 1373.932,230.904665 1373.932,231.152 C1373.932,231.399335 1373.88783,231.655499 1373.7995,231.9205 C1373.71117,232.185501 1373.614,232.318 1373.508,232.318 C1372.41266,232.318 1371.29967,232.265001 1370.169,232.159 C1369.03833,232.052999 1367.85467,232 1366.618,232 C1365.38133,232 1364.04751,232.052999 1362.6165,232.159 C1361.18549,232.265001 1359.94001,232.318 1358.88,232.318 C1358.774,232.318 1358.67683,232.185501 1358.5885,231.9205 C1358.50017,231.655499 1358.456,231.399335 1358.456,231.152 C1358.456,230.904665 1358.50017,230.657335 1358.5885,230.41 C1358.67683,230.162665 1358.774,230.021334 1358.88,229.986 C1360.43467,229.773999 1361.41516,229.411836 1361.8215,228.8995 C1362.22784,228.387164 1362.431,227.265342 1362.431,225.534 L1362.431,217.213 C1362.431,215.728993 1362.272,214.783835 1361.954,214.3775 C1361.636,213.971165 1360.82334,213.697334 1359.516,213.556 C1359.41,213.556 1359.31283,213.414668 1359.2245,213.132 C1359.13617,212.849332 1359.092,212.619668 1359.092,212.443 C1359.092,212.266332 1359.13617,212.045501 1359.2245,211.7805 C1359.31283,211.515499 1359.41,211.383 1359.516,211.383 C1360.71734,211.064998 1362.36916,210.508504 1364.4715,209.7135 C1366.57384,208.918496 1368.11966,208.273669 1369.109,207.779 C1369.215,207.708333 1369.39167,207.620001 1369.639,207.514 C1369.88633,207.407999 1370.09833,207.355 1370.275,207.355 C1370.699,207.355 1371.00817,207.434499 1371.2025,207.5935 C1371.39683,207.752501 1371.47633,207.902666 1371.441,208.044 L1371.229,213.132 C1371.93567,211.400658 1373.05749,210.075671 1374.5945,209.157 C1376.13151,208.238329 1377.74799,207.779 1379.444,207.779 C1382.09401,207.779 1384.16099,208.609325 1385.645,210.27 C1387.12901,211.930675 1387.871,213.785656 1387.871,215.835 L1387.871,225.534 C1387.871,227.230008 1388.083,228.351831 1388.507,228.8995 C1388.931,229.447169 1389.92033,229.809332 1391.475,229.986 C1391.581,229.986 1391.67817,230.136165 1391.7665,230.4365 C1391.85483,230.736835 1391.899,230.975332 1391.899,231.152 Z M1404.301,228.29 C1404.301,229.59734 1403.83284,230.727995 1402.8965,231.682 C1401.96016,232.636005 1400.82067,233.113 1399.478,233.113 C1398.17066,233.113 1397.04,232.636005 1396.086,231.682 C1395.132,230.727995 1394.655,229.59734 1394.655,228.29 C1394.655,226.98266 1395.132,225.852005 1396.086,224.898 C1397.04,223.943995 1398.17066,223.467 1399.478,223.467 C1400.82067,223.467 1401.96016,223.943995 1402.8965,224.898 C1403.83284,225.852005 1404.301,226.98266 1404.301,228.29 Z" id="happen." fill="#3E2E22" fill-rule="nonzero"></path>
        <path d="M1060.95459,231.094238 L1057.12451,232.672852 L1057.20215,231.948242 L1057.40918,230.033203 L1057.59033,228.22168 L1058.88428,216.602051 L1059.06543,215.282227 C1059.13444,214.592119 1059.16895,213.919274 1059.16895,213.263672 C1059.16895,211.590161 1058.66,210.753418 1057.64209,210.753418 C1056.05484,210.753418 1054.20452,212.375147 1052.09106,215.618652 C1049.97761,218.862158 1048.757,221.950343 1048.4292,224.883301 L1047.75635,231.094238 L1043.90039,232.672852 L1043.97803,231.948242 L1044.18506,230.033203 L1044.39209,228.22168 L1045.71191,216.213867 L1045.86719,214.842285 C1045.98796,213.772618 1046.04834,212.909997 1046.04834,212.254395 C1046.04834,211.150222 1045.7723,210.598145 1045.22021,210.598145 C1043.92626,210.598145 1042.52882,212.064601 1041.02783,214.997559 C1040.63102,214.669757 1040.43262,214.385092 1040.43262,214.143555 C1040.43262,213.108393 1041.37719,211.698007 1043.26636,209.912354 C1045.15553,208.1267 1046.65218,207.233887 1047.75635,207.233887 C1049.24008,207.233887 1049.98193,208.18277 1049.98193,210.080566 C1049.98193,210.563642 1049.9388,211.210608 1049.85254,212.021484 L1049.64551,214.117676 L1049.43848,215.877441 L1049.23145,217.714844 L1049.95605,216.576172 C1053.82066,210.347951 1057.41779,207.233887 1060.74756,207.233887 C1062.35206,207.233887 1063.1543,208.3898 1063.1543,210.70166 C1063.1543,211.098472 1063.08529,211.935215 1062.94727,213.211914 L1062.68848,215.592773 L1062.32617,218.827637 C1063.93067,215.497867 1065.83275,212.733165 1068.03247,210.533447 C1070.23219,208.333729 1072.19465,207.233887 1073.91992,207.233887 C1075.62794,207.233887 1076.48193,208.338042 1076.48193,210.546387 C1076.48193,211.495285 1076.38705,212.625319 1076.19727,213.936523 L1074.82568,223.537598 C1074.53239,225.521657 1074.38574,227.057123 1074.38574,228.144043 C1074.38574,229.058436 1074.6359,229.515625 1075.13623,229.515625 C1075.72282,229.515625 1076.46036,229.023931 1077.34888,228.040527 C1078.23739,227.057124 1078.94905,225.944342 1079.48389,224.702148 C1079.94971,225.012697 1080.18262,225.297362 1080.18262,225.556152 C1080.18262,226.643072 1079.22079,228.100902 1077.29712,229.929688 C1075.37344,231.758473 1073.84229,232.672852 1072.70361,232.672852 C1071.23713,232.672852 1070.50391,231.689463 1070.50391,229.722656 C1070.50391,228.480463 1070.69368,226.556816 1071.07324,223.95166 L1071.979,217.714844 C1072.01351,217.490559 1072.07389,216.998864 1072.16016,216.239746 C1072.19466,215.929198 1072.25505,215.402999 1072.34131,214.661133 C1072.42757,213.919267 1072.4707,213.349937 1072.4707,212.953125 C1072.4707,211.486646 1071.98764,210.753418 1071.02148,210.753418 C1069.39973,210.753418 1067.5149,212.375147 1065.36694,215.618652 C1063.21898,218.862158 1061.98112,221.950343 1061.65332,224.883301 L1060.95459,231.094238 Z M1098.66016,221.726074 C1096.7106,224.935075 1094.56699,227.561757 1092.22925,229.606201 C1089.89151,231.650645 1087.86003,232.672852 1086.13477,232.672852 C1083.77115,232.672852 1082.58936,230.766458 1082.58936,226.953613 C1082.58936,221.708795 1084.31029,217.167093 1087.7522,213.328369 C1091.19411,209.489646 1095.27,207.570312 1099.97998,207.570312 C1101.77426,207.570312 1103.3011,207.794594 1104.56055,208.243164 C1104.47428,208.553712 1104.42253,208.743489 1104.40527,208.8125 L1104.09473,210.184082 C1103.88769,211.13298 1103.77555,211.685058 1103.7583,211.840332 L1102.10205,223.278809 L1101.86914,224.935059 C1101.64486,226.574064 1101.53271,227.669594 1101.53271,228.22168 C1101.53271,228.963545 1101.74837,229.334473 1102.17969,229.334473 C1103.62891,229.334473 1105.11262,227.712744 1106.63086,224.469238 C1107.09668,224.745281 1107.32959,225.02132 1107.32959,225.297363 C1107.32959,225.901207 1106.58774,227.117504 1105.104,228.946289 C1103.08544,231.430676 1101.21355,232.672852 1099.48828,232.672852 C1098.22883,232.672852 1097.59912,231.827482 1097.59912,230.136719 C1097.59912,229.619138 1097.6595,228.903162 1097.78027,227.98877 L1098.03906,225.918457 L1098.37549,223.641113 L1098.66016,221.726074 Z M1100.13525,211.452148 C1098.56526,210.572261 1096.97804,210.132324 1095.37354,210.132324 C1092.95816,210.132324 1090.931,211.607407 1089.29199,214.557617 C1087.65299,217.507827 1086.8335,221.165343 1086.8335,225.530273 C1086.8335,227.773123 1087.49771,228.894531 1088.82617,228.894531 C1090.36166,228.894531 1092.2163,227.721366 1094.39014,225.375 C1097.32309,222.217758 1099.10009,218.508485 1099.72119,214.24707 L1100.13525,211.452148 Z M1128.73145,221.700195 C1126.98892,224.87469 1125.16448,227.49706 1123.25806,229.567383 C1121.35163,231.637706 1119.7946,232.672852 1118.58691,232.672852 C1116.93066,232.672852 1116.01628,230.930356 1115.84375,227.445312 L1115.6626,223.848145 L1115.32617,216.524414 L1115.24854,214.428223 C1115.09326,211.650539 1114.58431,210.261719 1113.72168,210.261719 C1112.37597,210.261719 1111.06479,211.538399 1109.78809,214.091797 C1109.33952,213.781248 1109.11523,213.444826 1109.11523,213.08252 C1109.11523,212.150874 1109.95198,210.943204 1111.62549,209.459473 C1113.299,207.975741 1114.66194,207.233887 1115.71436,207.233887 C1116.80127,207.233887 1117.56901,207.721268 1118.01758,208.696045 C1118.46615,209.670822 1118.75944,211.469388 1118.89746,214.091797 L1119.36328,223.149414 C1119.53581,226.599952 1120.08789,228.325195 1121.01953,228.325195 C1122.417,228.325195 1124.15087,226.725032 1126.22119,223.524658 C1128.29151,220.324284 1129.61995,217.180028 1130.20654,214.091797 L1131.21582,208.8125 L1135.82227,207.208008 C1135.23567,208.726245 1134.63184,211.020818 1134.01074,214.091797 L1130.54297,231.456543 C1129.18001,238.254103 1127.07521,243.274561 1124.22852,246.518066 C1119.9671,251.34882 1115.03291,253.76416 1109.42578,253.76416 C1108.2526,253.76416 1106.93279,253.505374 1105.46631,252.987793 L1108.64941,249.494141 C1110.27117,250.218754 1111.96191,250.581055 1113.72168,250.581055 C1117.31024,250.581055 1120.00162,249.416516 1121.7959,247.087402 C1123.59018,244.758289 1125.09114,240.488312 1126.29883,234.277344 L1128.73145,221.700195 Z M1145.13867,218.206543 C1147.00196,214.963037 1149.06363,212.323415 1151.32373,210.287598 C1153.58383,208.25178 1155.57649,207.233887 1157.30176,207.233887 C1159.78615,207.233887 1161.02832,209.34731 1161.02832,213.574219 C1161.02832,218.750026 1159.38503,223.170961 1156.09839,226.837158 C1152.81175,230.503355 1148.848,232.336426 1144.20703,232.336426 C1143.62044,232.336426 1143.10287,232.310547 1142.6543,232.258789 L1140.55811,232.051758 C1140.43734,232.051758 1140.10954,232.034505 1139.57471,232 C1139.95427,230.688796 1140.22168,229.317227 1140.37695,227.885254 L1142.86133,205.551758 C1143.46517,200.186171 1145.4492,195.614277 1148.81348,191.835938 C1152.17775,188.057598 1155.93878,186.168457 1160.09668,186.168457 C1160.95931,186.168457 1161.78743,186.263345 1162.58105,186.453125 L1158.77686,190.179688 C1157.79345,189.886392 1156.87045,189.739746 1156.00781,189.739746 C1150.86651,189.739746 1147.85596,193.74231 1146.97607,201.747559 L1145.13867,218.206543 Z M1144,228.45459 C1145.6045,229.334477 1147.20898,229.774414 1148.81348,229.774414 C1151.19435,229.774414 1153.12662,228.398533 1154.61035,225.646729 C1156.09408,222.894924 1156.83594,219.310732 1156.83594,214.894043 C1156.83594,212.323392 1156.13721,211.038086 1154.73975,211.038086 C1153.187,211.038086 1151.36687,212.202625 1149.2793,214.531738 C1146.44986,217.688981 1144.79362,221.398253 1144.31055,225.659668 L1144,228.45459 Z M1179.91992,223.770508 C1180.35124,224.063804 1180.56689,224.408852 1180.56689,224.805664 C1180.56689,225.340497 1180.01482,226.254876 1178.91064,227.548828 C1175.96043,230.964861 1173.04477,232.672852 1170.16357,232.672852 C1168.4038,232.672852 1166.9546,231.974128 1165.81592,230.57666 C1164.67724,229.179192 1164.10791,227.393566 1164.10791,225.219727 C1164.10791,221.286113 1165.59593,217.305115 1168.57202,213.276611 C1171.54811,209.248108 1174.49396,207.233887 1177.40967,207.233887 C1179.5145,207.233887 1180.56689,208.363921 1180.56689,210.624023 C1180.56689,213.160169 1179.33766,215.635893 1176.87915,218.05127 C1174.42064,220.466646 1171.42303,222.148758 1167.88623,223.097656 C1168.23128,227.255555 1169.87027,229.334473 1172.80322,229.334473 C1175.70167,229.334473 1178.07388,227.479836 1179.91992,223.770508 Z M1167.98975,219.94043 C1168.49007,220.112957 1168.94726,220.199219 1169.36133,220.199219 C1171.50066,220.199219 1173.37255,219.543626 1174.97705,218.232422 C1176.58155,216.921217 1177.38379,215.385751 1177.38379,213.625977 C1177.38379,211.607412 1176.35727,210.598145 1174.3042,210.598145 C1172.82047,210.598145 1171.47909,211.482332 1170.28003,213.250732 C1169.08097,215.019133 1168.31755,217.24901 1167.98975,219.94043 Z" id="maybe" fill="#3E2E22" fill-rule="nonzero"></path>
        <g id="Typewriter" transform="translate(824.000000, 101.000000)">
            <path d="M36.9615385,18 L84.9587541,18" id="Line-15" stroke="#3E2E22" fill="#3E2E22" stroke-linecap="round"></path>
            <path d="M37.9705882,29 L134.437301,29" id="Line-15" stroke="#3E2E22" fill="#3E2E22" stroke-linecap="round"></path>
            <path d="M36.9795918,38 L130.081418,38" id="Line-15" stroke="#3E2E22" fill="#3E2E22" stroke-linecap="round"></path>
            <path d="M37.975,48 L113.090412,48" id="Line-15" stroke="#3E2E22" fill="#3E2E22" stroke-linecap="round"></path>
            <path d="M35.9745763,95 L149.120382,95" id="Line-8" stroke="#3E2E22" stroke-width="2" stroke-linecap="round" stroke-dasharray="6"></path>
            <path d="M35.9745763,106 L149.120382,106" id="Line-8" stroke="#3E2E22" stroke-width="2" stroke-linecap="round" stroke-dasharray="6"></path>
            <path d="M35.9745763,116 L149.120382,116" id="Line-8" stroke="#3E2E22" stroke-width="2" stroke-linecap="round" stroke-dasharray="6"></path>
            <path d="M60.9833333,129 L117.783139,129" id="Line-14" stroke="#3E2E22" stroke-width="3" stroke-linecap="round"></path>
            <path d="M27,68 L149,68 L149,3 C149,1.8954305 148.104569,1 147,1 L29,1 C27.8954305,1 27,1.8954305 27,3 L27,68 Z" id="Rectangle" stroke="#3E2E22" stroke-width="2"></path>
            <rect id="Rectangle" stroke="#3E2E22" stroke-width="2" x="165" y="59" width="11" height="17" rx="5.5"></rect>
            <rect id="Rectangle" stroke="#3E2E22" stroke-width="2" x="1" y="59" width="11" height="17" rx="5.5"></rect>
            <path d="M6,93.3 L6,140 C6,141.104569 6.8954305,142 8,142 L166,142 C167.104569,142 168,141.104569 168,140 L168,93.3 L156.47619,93.3 C152.057912,93.3 148.47619,89.718278 148.47619,85.3 L148.47619,66 L125.095238,66 L125.095238,75.55 C125.095238,79.968278 121.513516,83.55 117.095238,83.55 L58.8571429,83.55 C54.4388649,83.55 50.8571429,79.968278 50.8571429,75.55 L50.8571429,66 L25.5238095,66 L25.5238095,85.3 C25.5238095,89.718278 21.9420875,93.3 17.5238095,93.3 L6,93.3 Z" id="Combined-Shape" stroke="#3E2E22" stroke-width="2"></path>
            <rect id="Rectangle" fill="#3E2E22" x="11" y="65" width="155" height="4" rx="2"></rect>
        </g>
    </g>
</svg>