<?xml version="1.0" encoding="UTF-8"?>
<svg width="1440px" height="289px" viewBox="0 0 1440 289" version="1.1" xmlns="http://www.w3.org/2000/svg" xmlns:xlink="http://www.w3.org/1999/xlink">
    <!-- Generator: Sketch 55.2 (78181) - https://sketchapp.com -->
    <title>Banner / Quote / Somewhere</title>
    <desc>Created with Sketch.</desc>
    <g id="Banner-/-Quote-/-Somewhere" stroke="none" stroke-width="1" fill="none" fill-rule="evenodd">
        <rect id="Rectangle" fill="#F2EECD" x="0" y="0" width="1440" height="289"></rect>
        <path d="M789.566,77.795 L789.566,80.09 L769.451,80.09 L769.451,95.534 L786.191,95.534 L786.191,97.775 L769.451,97.775 L769.451,113.705 L789.566,113.705 L789.566,116 L766.67,116 L766.67,77.795 L789.566,77.795 Z M807.197,116 L804.929,116 L793.589,89.135 L795.614,89.135 C795.866001,89.135 796.068499,89.2024993 796.2215,89.3375 C796.374501,89.4725007 796.487,89.6209992 796.559,89.783 L805.415,110.978 C805.595001,111.392002 805.73,111.787998 805.82,112.166 L806.09,113.3 C806.18,112.921998 806.2745,112.539502 806.3735,112.1525 C806.4725,111.765498 806.602999,111.374002 806.765,110.978 L815.675,89.783 C815.765,89.584999 815.886499,89.4275006 816.0395,89.3105 C816.192501,89.1934994 816.376999,89.135 816.593,89.135 L818.537,89.135 L807.197,116 Z M833.225,88.703 C834.737008,88.703 836.136494,88.9639974 837.4235,89.486 C838.710506,90.0080026 839.826495,90.768495 840.7715,91.7675 C841.716505,92.766505 842.454497,93.9949927 842.9855,95.453 C843.516503,96.9110073 843.782,98.5849906 843.782,100.475 C843.782,100.871002 843.723501,101.140999 843.6065,101.285 C843.489499,101.429001 843.305001,101.501 843.053,101.501 L823.64,101.501 L823.64,102.014 C823.64,104.03001 823.873998,105.802992 824.342,107.333 C824.810002,108.863008 825.475996,110.145495 826.34,111.1805 C827.204004,112.215505 828.247994,112.993997 829.472,113.516 C830.696006,114.038003 832.063992,114.299 833.576,114.299 C834.926007,114.299 836.095995,114.150501 837.086,113.8535 C838.076005,113.556499 838.908497,113.223502 839.5835,112.8545 C840.258503,112.485498 840.793998,112.152501 841.19,111.8555 C841.586002,111.558499 841.873999,111.41 842.054,111.41 C842.288001,111.41 842.467999,111.499999 842.594,111.68 L843.296,112.544 C842.863998,113.084003 842.292504,113.587998 841.5815,114.056 C840.870496,114.524002 840.078504,114.924498 839.2055,115.2575 C838.332496,115.590502 837.396505,115.855999 836.3975,116.054 C835.398495,116.252001 834.395005,116.351 833.387,116.351 C831.550991,116.351 829.877008,116.031503 828.365,115.3925 C826.852992,114.753497 825.557005,113.822006 824.477,112.598 C823.396995,111.373994 822.564503,109.875509 821.9795,108.1025 C821.394497,106.329491 821.102,104.300011 821.102,102.014 C821.102,100.08799 821.376497,98.3105081 821.9255,96.6815 C822.474503,95.0524919 823.266495,93.6485059 824.3015,92.4695 C825.336505,91.2904941 826.605492,90.3680033 828.1085,89.702 C829.611508,89.0359967 831.31699,88.703 833.225,88.703 Z M833.252,90.62 C831.865993,90.62 830.624005,90.8359978 829.526,91.268 C828.427995,91.7000022 827.478504,92.3209959 826.6775,93.131 C825.876496,93.9410041 825.228502,94.9129943 824.7335,96.047 C824.238498,97.1810057 823.910001,98.449993 823.748,99.854 L841.46,99.854 C841.46,98.4139928 841.262002,97.1225057 840.866,95.9795 C840.469998,94.8364943 839.912004,93.869004 839.192,93.077 C838.471996,92.284996 837.608005,91.6775021 836.6,91.2545 C835.591995,90.8314979 834.476006,90.62 833.252,90.62 Z M850.694,116 L850.694,89.135 L852.044,89.135 C852.350002,89.135 852.570499,89.1979994 852.7055,89.324 C852.840501,89.4500006 852.917,89.6659985 852.935,89.972 L853.151,95.642 C854.015004,93.4639891 855.166993,91.7585062 856.607,90.5255 C858.047007,89.2924938 859.819989,88.676 861.926,88.676 C862.736004,88.676 863.482997,88.7614991 864.167,88.9325 C864.851003,89.1035009 865.498997,89.3509984 866.111,89.675 L865.76,91.457 C865.706,91.7450014 865.526002,91.889 865.22,91.889 C865.111999,91.889 864.959001,91.8530004 864.761,91.781 C864.562999,91.7089996 864.315501,91.6280005 864.0185,91.538 C863.721499,91.4479995 863.357002,91.3670004 862.925,91.295 C862.492998,91.2229996 861.998003,91.187 861.44,91.187 C859.40599,91.187 857.736507,91.8169937 856.4315,93.077 C855.126493,94.3370063 854.069004,96.1549881 853.259,98.531 L853.259,116 L850.694,116 Z M877.991,124.64 C877.882999,124.892001 877.743501,125.098999 877.5725,125.261 C877.401499,125.423001 877.154002,125.504 876.83,125.504 L874.994,125.504 L879.719,115.001 L868.352,89.135 L870.485,89.135 C870.755001,89.135 870.966499,89.2024993 871.1195,89.3375 C871.272501,89.4725007 871.385,89.6209992 871.457,89.783 L880.502,110.681 C880.610001,110.951001 880.7045,111.225499 880.7855,111.5045 C880.8665,111.783501 880.943,112.066999 881.015,112.355 C881.105,112.066999 881.1995,111.783501 881.2985,111.5045 C881.3975,111.225499 881.500999,110.951001 881.609,110.681 L890.546,89.783 C890.636,89.584999 890.761999,89.4275006 890.924,89.3105 C891.086001,89.1934994 891.265999,89.135 891.464,89.135 L893.435,89.135 L877.991,124.64 Z M905.774,116.432 C903.955991,116.432 902.538505,115.928005 901.5215,114.92 C900.504495,113.911995 899.996,112.355011 899.996,110.249 L899.996,91.889 L896.135,91.889 C895.936999,91.889 895.775001,91.8350005 895.649,91.727 C895.522999,91.6189995 895.46,91.466001 895.46,91.268 L895.46,90.269 L900.05,89.945 L900.698,80.333 C900.716,80.1709992 900.783499,80.0270006 900.9005,79.901 C901.017501,79.7749994 901.174999,79.712 901.373,79.712 L902.588,79.712 L902.588,89.972 L911.039,89.972 L911.039,91.889 L902.588,91.889 L902.588,110.114 C902.588,110.852004 902.682499,111.486497 902.8715,112.0175 C903.060501,112.548503 903.321498,112.984998 903.6545,113.327 C903.987502,113.669002 904.378998,113.920999 904.829,114.083 C905.279002,114.245001 905.764997,114.326 906.287,114.326 C906.935003,114.326 907.492998,114.231501 907.961,114.0425 C908.429002,113.853499 908.833998,113.646501 909.176,113.4215 C909.518002,113.196499 909.796999,112.989501 910.013,112.8005 C910.229001,112.611499 910.399999,112.517 910.526,112.517 C910.670001,112.517 910.813999,112.606999 910.958,112.787 L911.66,113.921 C910.975997,114.677004 910.107505,115.284498 909.0545,115.7435 C908.001495,116.202502 906.908006,116.432 905.774,116.432 Z M917.681,116 L917.681,76.715 L920.246,76.715 L920.246,93.725 C921.488006,92.1949924 922.905492,90.9755045 924.4985,90.0665 C926.091508,89.1574955 927.87799,88.703 929.858,88.703 C931.334007,88.703 932.634494,88.9369977 933.7595,89.405 C934.884506,89.8730023 935.815996,90.5479956 936.554,91.43 C937.292004,92.3120044 937.849998,93.3739938 938.228,94.616 C938.606002,95.8580062 938.795,97.2619922 938.795,98.828 L938.795,116 L936.23,116 L936.23,98.828 C936.23,96.3079874 935.654006,94.3325072 934.502,92.9015 C933.349994,91.4704928 931.586012,90.755 929.21,90.755 C927.445991,90.755 925.808008,91.2094955 924.296,92.1185 C922.783992,93.0275045 921.434006,94.2739921 920.246,95.858 L920.246,116 L917.681,116 Z M950.216,89.135 L950.216,116 L947.651,116 L947.651,89.135 L950.216,89.135 Z M951.35,79.874 C951.35,80.1980016 951.282501,80.4994986 951.1475,80.7785 C951.012499,81.0575014 950.837001,81.3049989 950.621,81.521 C950.404999,81.7370011 950.153001,81.9079994 949.865,82.034 C949.576999,82.1600006 949.271002,82.223 948.947,82.223 C948.622998,82.223 948.317001,82.1600006 948.029,82.034 C947.740999,81.9079994 947.489001,81.7370011 947.273,81.521 C947.056999,81.3049989 946.886001,81.0575014 946.76,80.7785 C946.633999,80.4994986 946.571,80.1980016 946.571,79.874 C946.571,79.5499984 946.633999,79.2395015 946.76,78.9425 C946.886001,78.6454985 947.056999,78.3890011 947.273,78.173 C947.489001,77.9569989 947.740999,77.7860006 948.029,77.66 C948.317001,77.5339994 948.622998,77.471 948.947,77.471 C949.271002,77.471 949.576999,77.5339994 949.865,77.66 C950.153001,77.7860006 950.404999,77.9569989 950.621,78.173 C950.837001,78.3890011 951.012499,78.6454985 951.1475,78.9425 C951.282501,79.2395015 951.35,79.5499984 951.35,79.874 Z M959.72,116 L959.72,89.135 L961.124,89.135 C961.592002,89.135 961.862,89.3599978 961.934,89.81 L962.177,93.86 C963.401006,92.3119923 964.827492,91.0655047 966.4565,90.1205 C968.085508,89.1754953 969.89899,88.703 971.897,88.703 C973.373007,88.703 974.673494,88.9369977 975.7985,89.405 C976.923506,89.8730023 977.854996,90.5479956 978.593,91.43 C979.331004,92.3120044 979.888998,93.3739938 980.267,94.616 C980.645002,95.8580062 980.834,97.2619922 980.834,98.828 L980.834,116 L978.269,116 L978.269,98.828 C978.269,96.3079874 977.693006,94.3325072 976.541,92.9015 C975.388994,91.4704928 973.625012,90.755 971.249,90.755 C969.484991,90.755 967.847008,91.2094955 966.335,92.1185 C964.822992,93.0275045 963.473006,94.2739921 962.285,95.858 L962.285,116 L959.72,116 Z M997.79,88.676 C998.960006,88.676 1000.0445,88.8199986 1001.0435,89.108 C1002.0425,89.3960014 1002.938,89.8009974 1003.73,90.323 L1010.615,90.323 L1010.615,91.214 C1010.615,91.6640022 1010.363,91.9069998 1009.859,91.943 L1005.782,92.24 C1006.286,92.9240034 1006.673,93.6934957 1006.943,94.5485 C1007.213,95.4035043 1007.348,96.3169951 1007.348,97.289 C1007.348,98.5850065 1007.114,99.7594947 1006.646,100.8125 C1006.178,101.865505 1005.5255,102.765496 1004.6885,103.5125 C1003.8515,104.259504 1002.84801,104.839998 1001.678,105.254 C1000.50799,105.668002 999.212007,105.875 997.79,105.875 C996.241992,105.875 994.838006,105.641002 993.578,105.173 C992.821996,105.605002 992.228002,106.117997 991.796,106.712 C991.363998,107.306003 991.148,107.881997 991.148,108.44 C991.148,109.214004 991.417997,109.807998 991.958,110.222 C992.498003,110.636002 993.213496,110.937499 994.1045,111.1265 C994.995504,111.315501 996.012494,111.437 997.1555,111.491 C998.298506,111.545 999.459494,111.6035 1000.6385,111.6665 C1001.81751,111.7295 1002.97849,111.841999 1004.1215,112.004 C1005.26451,112.166001 1006.2815,112.449498 1007.1725,112.8545 C1008.0635,113.259502 1008.779,113.826496 1009.319,114.5555 C1009.859,115.284504 1010.129,116.251994 1010.129,117.458 C1010.129,118.574006 1009.85,119.644995 1009.292,120.671 C1008.734,121.697005 1007.92851,122.605996 1006.8755,123.398 C1005.82249,124.190004 1004.54901,124.824498 1003.055,125.3015 C1001.56099,125.778502 999.887009,126.017 998.033,126.017 C996.142991,126.017 994.487007,125.823502 993.065,125.4365 C991.642993,125.049498 990.450505,124.527503 989.4875,123.8705 C988.524495,123.213497 987.800002,122.453004 987.314,121.589 C986.827998,120.724996 986.585,119.807005 986.585,118.835 C986.585,117.412993 987.052995,116.189005 987.989,115.163 C988.925005,114.136995 990.211992,113.345003 991.85,112.787 C990.949995,112.480998 990.234503,112.040003 989.7035,111.464 C989.172497,110.887997 988.907,110.087005 988.907,109.061 C988.907,108.682998 988.978999,108.287002 989.123,107.873 C989.267001,107.458998 989.482999,107.049502 989.771,106.6445 C990.059001,106.239498 990.405498,105.857002 990.8105,105.497 C991.215502,105.136998 991.687997,104.813001 992.228,104.525 C990.949994,103.786996 989.955504,102.806006 989.2445,101.582 C988.533496,100.357994 988.178,98.9270082 988.178,97.289 C988.178,95.9929935 988.407498,94.8185053 988.8665,93.7655 C989.325502,92.7124947 989.973496,91.8080038 990.8105,91.052 C991.647504,90.2959962 992.659994,89.7110021 993.848,89.297 C995.036006,88.8829979 996.349993,88.676 997.79,88.676 Z M1007.753,117.809 C1007.753,116.962996 1007.5325,116.283503 1007.0915,115.7705 C1006.6505,115.257497 1006.061,114.857001 1005.323,114.569 C1004.585,114.280999 1003.7345,114.078501 1002.7715,113.9615 C1001.8085,113.844499 1000.80051,113.759 999.7475,113.705 C998.694495,113.651 997.637005,113.597 996.575,113.543 C995.512995,113.489 994.523005,113.381001 993.605,113.219 C992.920997,113.489001 992.286503,113.799498 991.7015,114.1505 C991.116497,114.501502 990.617002,114.897498 990.203,115.3385 C989.788998,115.779502 989.465001,116.265497 989.231,116.7965 C988.996999,117.327503 988.88,117.907997 988.88,118.538 C988.88,119.330004 989.082498,120.063497 989.4875,120.7385 C989.892502,121.413503 990.486496,121.998498 991.2695,122.4935 C992.052504,122.988502 993.010994,123.379999 994.145,123.668 C995.279006,123.956001 996.583993,124.1 998.06,124.1 C999.428007,124.1 1000.70149,123.947002 1001.8805,123.641 C1003.05951,123.334998 1004.0855,122.903003 1004.9585,122.345 C1005.8315,121.786997 1006.5155,121.121004 1007.0105,120.347 C1007.5055,119.572996 1007.753,118.727005 1007.753,117.809 Z M997.79,104.12 C998.942006,104.12 999.967995,103.953502 1000.868,103.6205 C1001.768,103.287498 1002.524,102.824003 1003.136,102.23 C1003.748,101.635997 1004.2115,100.925004 1004.5265,100.097 C1004.8415,99.2689959 1004.999,98.351005 1004.999,97.343 C1004.999,96.334995 1004.837,95.4125042 1004.513,94.5755 C1004.189,93.7384958 1003.7165,93.023003 1003.0955,92.429 C1002.4745,91.834997 1001.7185,91.3760016 1000.8275,91.052 C999.936496,90.7279984 998.924006,90.566 997.79,90.566 C996.655994,90.566 995.639004,90.7279984 994.739,91.052 C993.838996,91.3760016 993.078503,91.834997 992.4575,92.429 C991.836497,93.023003 991.364002,93.7384958 991.04,94.5755 C990.715998,95.4125042 990.554,96.334995 990.554,97.343 C990.554,98.351005 990.715998,99.2689959 991.04,100.097 C991.364002,100.925004 991.836497,101.635997 992.4575,102.23 C993.078503,102.824003 993.838996,103.287498 994.739,103.6205 C995.639004,103.953502 996.655994,104.12 997.79,104.12 Z M1041.395,92.456 C1041.269,92.7080013 1041.071,92.834 1040.801,92.834 C1040.603,92.834 1040.3465,92.7215011 1040.0315,92.4965 C1039.7165,92.2714989 1039.3025,92.0195014 1038.7895,91.7405 C1038.2765,91.4614986 1037.6465,91.2095011 1036.8995,90.9845 C1036.1525,90.7594989 1035.23901,90.647 1034.159,90.647 C1033.187,90.647 1032.3005,90.7864986 1031.4995,91.0655 C1030.6985,91.3445014 1030.0145,91.7179977 1029.4475,92.186 C1028.8805,92.6540023 1028.4395,93.1984969 1028.1245,93.8195 C1027.8095,94.4405031 1027.652,95.0929966 1027.652,95.777 C1027.652,96.6230042 1027.868,97.3249972 1028.3,97.883 C1028.732,98.4410028 1029.299,98.917998 1030.001,99.314 C1030.703,99.710002 1031.4995,100.051999 1032.3905,100.34 C1033.2815,100.628001 1034.195,100.915999 1035.131,101.204 C1036.067,101.492001 1036.9805,101.811498 1037.8715,102.1625 C1038.7625,102.513502 1039.559,102.949997 1040.261,103.472 C1040.963,103.994003 1041.53,104.632996 1041.962,105.389 C1042.394,106.145004 1042.61,107.062995 1042.61,108.143 C1042.61,109.313006 1042.3985,110.401995 1041.9755,111.41 C1041.5525,112.418005 1040.9405,113.290996 1040.1395,114.029 C1039.3385,114.767004 1038.35301,115.351998 1037.183,115.784 C1036.01299,116.216002 1034.68101,116.432 1033.187,116.432 C1031.29699,116.432 1029.66801,116.130503 1028.3,115.5275 C1026.93199,114.924497 1025.70801,114.137005 1024.628,113.165 L1025.249,112.247 C1025.339,112.102999 1025.438,111.995 1025.546,111.923 C1025.654,111.851 1025.807,111.815 1026.005,111.815 C1026.239,111.815 1026.527,111.958999 1026.869,112.247 C1027.211,112.535001 1027.6565,112.845498 1028.2055,113.1785 C1028.7545,113.511502 1029.4385,113.821999 1030.2575,114.11 C1031.0765,114.398001 1032.08899,114.542 1033.295,114.542 C1034.42901,114.542 1035.428,114.384502 1036.292,114.0695 C1037.156,113.754498 1037.876,113.327003 1038.452,112.787 C1039.028,112.246997 1039.4645,111.612504 1039.7615,110.8835 C1040.0585,110.154496 1040.207,109.385004 1040.207,108.575 C1040.207,107.674995 1039.991,106.928003 1039.559,106.334 C1039.127,105.739997 1038.56,105.236002 1037.858,104.822 C1037.156,104.407998 1036.3595,104.057001 1035.4685,103.769 C1034.5775,103.480999 1033.6595,103.193001 1032.7145,102.905 C1031.7695,102.616999 1030.8515,102.302002 1029.9605,101.96 C1029.0695,101.617998 1028.273,101.186003 1027.571,100.664 C1026.869,100.141997 1026.302,99.5075037 1025.87,98.7605 C1025.438,98.0134963 1025.222,97.0820056 1025.222,95.966 C1025.222,95.0119952 1025.429,94.0940044 1025.843,93.212 C1026.257,92.3299956 1026.8465,91.5560033 1027.6115,90.89 C1028.3765,90.2239967 1029.30799,89.693002 1030.406,89.297 C1031.50401,88.900998 1032.73699,88.703 1034.105,88.703 C1035.74301,88.703 1037.19649,88.9369977 1038.4655,89.405 C1039.73451,89.8730023 1040.89999,90.5929951 1041.962,91.565 L1041.395,92.456 Z M1057.163,116.432 C1055.34499,116.432 1053.92751,115.928005 1052.9105,114.92 C1051.89349,113.911995 1051.385,112.355011 1051.385,110.249 L1051.385,91.889 L1047.524,91.889 C1047.326,91.889 1047.164,91.8350005 1047.038,91.727 C1046.912,91.6189995 1046.849,91.466001 1046.849,91.268 L1046.849,90.269 L1051.439,89.945 L1052.087,80.333 C1052.105,80.1709992 1052.1725,80.0270006 1052.2895,79.901 C1052.4065,79.7749994 1052.564,79.712 1052.762,79.712 L1053.977,79.712 L1053.977,89.972 L1062.428,89.972 L1062.428,91.889 L1053.977,91.889 L1053.977,110.114 C1053.977,110.852004 1054.0715,111.486497 1054.2605,112.0175 C1054.4495,112.548503 1054.7105,112.984998 1055.0435,113.327 C1055.3765,113.669002 1055.768,113.920999 1056.218,114.083 C1056.668,114.245001 1057.154,114.326 1057.676,114.326 C1058.324,114.326 1058.882,114.231501 1059.35,114.0425 C1059.818,113.853499 1060.223,113.646501 1060.565,113.4215 C1060.907,113.196499 1061.186,112.989501 1061.402,112.8005 C1061.618,112.611499 1061.789,112.517 1061.915,112.517 C1062.059,112.517 1062.203,112.606999 1062.347,112.787 L1063.049,113.921 C1062.365,114.677004 1061.49651,115.284498 1060.4435,115.7435 C1059.39049,116.202502 1058.29701,116.432 1057.163,116.432 Z M1086.215,116 C1085.675,116 1085.342,115.748003 1085.216,115.244 L1084.838,111.815 C1084.1,112.535004 1083.3665,113.182997 1082.6375,113.759 C1081.9085,114.335003 1081.148,114.820998 1080.356,115.217 C1079.564,115.613002 1078.709,115.914499 1077.791,116.1215 C1076.873,116.328501 1075.86501,116.432 1074.767,116.432 C1073.849,116.432 1072.958,116.297001 1072.094,116.027 C1071.23,115.756999 1070.465,115.343003 1069.799,114.785 C1069.133,114.226997 1068.5975,113.511504 1068.1925,112.6385 C1067.7875,111.765496 1067.585,110.717006 1067.585,109.493 C1067.585,108.358994 1067.909,107.306005 1068.557,106.334 C1069.205,105.361995 1070.21749,104.516004 1071.5945,103.796 C1072.97151,103.075996 1074.74449,102.500002 1076.9135,102.068 C1079.08251,101.635998 1081.68798,101.384 1084.73,101.312 L1084.73,98.504 C1084.73,96.0199876 1084.19451,94.1075067 1083.1235,92.7665 C1082.05249,91.4254933 1080.46401,90.755 1078.358,90.755 C1077.06199,90.755 1075.9595,90.9349982 1075.0505,91.295 C1074.1415,91.6550018 1073.372,92.0509978 1072.742,92.483 C1072.112,92.9150022 1071.599,93.3109982 1071.203,93.671 C1070.807,94.0310018 1070.474,94.211 1070.204,94.211 C1069.844,94.211 1069.574,94.0490016 1069.394,93.725 L1068.935,92.942 C1070.33901,91.537993 1071.81499,90.4760036 1073.363,89.756 C1074.91101,89.0359964 1076.66599,88.676 1078.628,88.676 C1080.06801,88.676 1081.32799,88.9054977 1082.408,89.3645 C1083.48801,89.8235023 1084.3835,90.4804957 1085.0945,91.3355 C1085.8055,92.1905043 1086.341,93.2254939 1086.701,94.4405 C1087.061,95.6555061 1087.241,97.0099925 1087.241,98.504 L1087.241,116 L1086.215,116 Z M1075.415,114.569 C1076.45901,114.569 1077.4175,114.456501 1078.2905,114.2315 C1079.1635,114.006499 1079.9735,113.691502 1080.7205,113.2865 C1081.4675,112.881498 1082.165,112.400003 1082.813,111.842 C1083.461,111.283997 1084.1,110.681003 1084.73,110.033 L1084.73,103.04 C1082.17399,103.112 1079.97351,103.305498 1078.1285,103.6205 C1076.28349,103.935502 1074.76251,104.362997 1073.5655,104.903 C1072.36849,105.443003 1071.4865,106.086496 1070.9195,106.8335 C1070.3525,107.580504 1070.069,108.430995 1070.069,109.385 C1070.069,110.285004 1070.2175,111.063497 1070.5145,111.7205 C1070.8115,112.377503 1071.203,112.917498 1071.689,113.3405 C1072.175,113.763502 1072.742,114.073999 1073.39,114.272 C1074.038,114.470001 1074.713,114.569 1075.415,114.569 Z M1095.341,116 L1095.341,89.135 L1096.691,89.135 C1096.997,89.135 1097.2175,89.1979994 1097.3525,89.324 C1097.4875,89.4500006 1097.564,89.6659985 1097.582,89.972 L1097.798,95.642 C1098.662,93.4639891 1099.81399,91.7585062 1101.254,90.5255 C1102.69401,89.2924938 1104.46699,88.676 1106.573,88.676 C1107.383,88.676 1108.13,88.7614991 1108.814,88.9325 C1109.498,89.1035009 1110.146,89.3509984 1110.758,89.675 L1110.407,91.457 C1110.353,91.7450014 1110.173,91.889 1109.867,91.889 C1109.759,91.889 1109.606,91.8530004 1109.408,91.781 C1109.21,91.7089996 1108.9625,91.6280005 1108.6655,91.538 C1108.3685,91.4479995 1108.004,91.3670004 1107.572,91.295 C1107.14,91.2229996 1106.645,91.187 1106.087,91.187 C1104.05299,91.187 1102.38351,91.8169937 1101.0785,93.077 C1099.77349,94.3370063 1098.716,96.1549881 1097.906,98.531 L1097.906,116 L1095.341,116 Z M1124.123,116.432 C1122.30499,116.432 1120.88751,115.928005 1119.8705,114.92 C1118.85349,113.911995 1118.345,112.355011 1118.345,110.249 L1118.345,91.889 L1114.484,91.889 C1114.286,91.889 1114.124,91.8350005 1113.998,91.727 C1113.872,91.6189995 1113.809,91.466001 1113.809,91.268 L1113.809,90.269 L1118.399,89.945 L1119.047,80.333 C1119.065,80.1709992 1119.1325,80.0270006 1119.2495,79.901 C1119.3665,79.7749994 1119.524,79.712 1119.722,79.712 L1120.937,79.712 L1120.937,89.972 L1129.388,89.972 L1129.388,91.889 L1120.937,91.889 L1120.937,110.114 C1120.937,110.852004 1121.0315,111.486497 1121.2205,112.0175 C1121.4095,112.548503 1121.6705,112.984998 1122.0035,113.327 C1122.3365,113.669002 1122.728,113.920999 1123.178,114.083 C1123.628,114.245001 1124.114,114.326 1124.636,114.326 C1125.284,114.326 1125.842,114.231501 1126.31,114.0425 C1126.778,113.853499 1127.183,113.646501 1127.525,113.4215 C1127.867,113.196499 1128.146,112.989501 1128.362,112.8005 C1128.578,112.611499 1128.749,112.517 1128.875,112.517 C1129.019,112.517 1129.163,112.606999 1129.307,112.787 L1130.009,113.921 C1129.325,114.677004 1128.45651,115.284498 1127.4035,115.7435 C1126.35049,116.202502 1125.25701,116.432 1124.123,116.432 Z M1150.826,92.456 C1150.7,92.7080013 1150.502,92.834 1150.232,92.834 C1150.034,92.834 1149.7775,92.7215011 1149.4625,92.4965 C1149.1475,92.2714989 1148.7335,92.0195014 1148.2205,91.7405 C1147.7075,91.4614986 1147.0775,91.2095011 1146.3305,90.9845 C1145.5835,90.7594989 1144.67001,90.647 1143.59,90.647 C1142.618,90.647 1141.7315,90.7864986 1140.9305,91.0655 C1140.1295,91.3445014 1139.4455,91.7179977 1138.8785,92.186 C1138.3115,92.6540023 1137.8705,93.1984969 1137.5555,93.8195 C1137.2405,94.4405031 1137.083,95.0929966 1137.083,95.777 C1137.083,96.6230042 1137.299,97.3249972 1137.731,97.883 C1138.163,98.4410028 1138.73,98.917998 1139.432,99.314 C1140.134,99.710002 1140.9305,100.051999 1141.8215,100.34 C1142.7125,100.628001 1143.626,100.915999 1144.562,101.204 C1145.498,101.492001 1146.4115,101.811498 1147.3025,102.1625 C1148.1935,102.513502 1148.99,102.949997 1149.692,103.472 C1150.394,103.994003 1150.961,104.632996 1151.393,105.389 C1151.825,106.145004 1152.041,107.062995 1152.041,108.143 C1152.041,109.313006 1151.8295,110.401995 1151.4065,111.41 C1150.9835,112.418005 1150.3715,113.290996 1149.5705,114.029 C1148.7695,114.767004 1147.78401,115.351998 1146.614,115.784 C1145.44399,116.216002 1144.11201,116.432 1142.618,116.432 C1140.72799,116.432 1139.09901,116.130503 1137.731,115.5275 C1136.36299,114.924497 1135.13901,114.137005 1134.059,113.165 L1134.68,112.247 C1134.77,112.102999 1134.869,111.995 1134.977,111.923 C1135.085,111.851 1135.238,111.815 1135.436,111.815 C1135.67,111.815 1135.958,111.958999 1136.3,112.247 C1136.642,112.535001 1137.0875,112.845498 1137.6365,113.1785 C1138.1855,113.511502 1138.8695,113.821999 1139.6885,114.11 C1140.5075,114.398001 1141.51999,114.542 1142.726,114.542 C1143.86001,114.542 1144.859,114.384502 1145.723,114.0695 C1146.587,113.754498 1147.307,113.327003 1147.883,112.787 C1148.459,112.246997 1148.8955,111.612504 1149.1925,110.8835 C1149.4895,110.154496 1149.638,109.385004 1149.638,108.575 C1149.638,107.674995 1149.422,106.928003 1148.99,106.334 C1148.558,105.739997 1147.991,105.236002 1147.289,104.822 C1146.587,104.407998 1145.7905,104.057001 1144.8995,103.769 C1144.0085,103.480999 1143.0905,103.193001 1142.1455,102.905 C1141.2005,102.616999 1140.2825,102.302002 1139.3915,101.96 C1138.5005,101.617998 1137.704,101.186003 1137.002,100.664 C1136.3,100.141997 1135.733,99.5075037 1135.301,98.7605 C1134.869,98.0134963 1134.653,97.0820056 1134.653,95.966 C1134.653,95.0119952 1134.86,94.0940044 1135.274,93.212 C1135.688,92.3299956 1136.2775,91.5560033 1137.0425,90.89 C1137.8075,90.2239967 1138.73899,89.693002 1139.837,89.297 C1140.93501,88.900998 1142.16799,88.703 1143.536,88.703 C1145.17401,88.703 1146.62749,88.9369977 1147.8965,89.405 C1149.16551,89.8730023 1150.33099,90.5929951 1151.393,91.565 L1150.826,92.456 Z" id="Everythingstarts" fill="#3E2E22" fill-rule="nonzero"></path>
        <path d="M790.039,156.637 C790.039,158.27 789.329,159.264 787.909,159.619 C784.075,160.471 780.525,162.033 777.188,164.234 C773.07,166.932 771.011,169.63 771.011,172.47 C771.011,174.316 773.496,176.517 778.537,178.931 C781.661,180.493 783.933,181.913 785.282,183.191 C787.412,185.25 788.477,187.735 788.477,190.646 C788.477,194.835 786.347,198.385 782.229,201.225 C778.466,203.852 774.49,205.201 770.372,205.201 C766.041,205.201 763.911,203.994 763.911,201.58 C763.911,200.728 764.195,200.018 764.763,199.45 C765.26,198.74 765.899,198.385 766.751,198.385 C767.177,198.385 767.816,198.527 768.739,198.74 C769.52,198.953 770.159,199.024 770.585,199.024 C773.07,199.024 775.626,198.314 778.253,196.823 C781.164,195.119 782.655,192.989 782.655,190.575 C782.655,188.587 780.028,186.315 774.916,183.901 C771.721,182.481 769.52,181.132 768.384,179.996 C766.254,178.008 765.189,175.523 765.189,172.399 C765.189,168.636 767.035,165.086 770.869,161.749 C773.638,159.193 777.117,157.134 781.377,155.43 C782.3,153.868 783.862,153.087 786.063,153.087 C787.057,153.087 788.051,153.442 788.903,154.01 C789.613,154.649 790.039,155.501 790.039,156.637 Z M841.301,179.428 C841.301,186.102 839.1,191.498 834.698,195.758 C830.296,200.018 824.9,202.148 818.652,202.148 C812.83,202.148 807.718,200.373 803.245,196.681 C798.346,192.705 795.932,187.948 795.932,182.41 C795.932,177.298 797.707,172.47 801.328,168.068 C804.452,164.234 808.712,161.039 814.108,158.341 C814.534,157.063 815.386,156.211 816.806,155.785 C817.516,155.643 818.794,155.501 820.64,155.501 C826.888,155.501 831.929,157.915 835.834,162.601 C839.455,167.145 841.301,172.754 841.301,179.428 Z M835.479,179.925 C835.479,170.127 831.503,164.163 823.693,161.891 C823.267,162.104 822.841,162.246 822.273,162.246 C817.729,162.814 813.256,165.086 808.854,168.92 C804.097,173.038 801.754,177.156 801.754,181.416 C801.754,185.889 803.6,189.51 807.363,192.208 C810.7,194.764 814.676,195.971 819.362,195.971 C823.906,195.971 827.74,194.48 830.864,191.356 C833.917,188.303 835.479,184.469 835.479,179.925 Z M901.651,208.467 C901.651,209.177 901.296,209.887 900.728,210.597 C900.089,211.165 899.379,211.52 898.598,211.52 C896.965,211.52 895.332,210.029 893.77,207.189 C891.356,202.929 889.368,196.468 887.948,187.948 C887.522,185.605 886.67,178.647 885.321,167.003 C882.055,175.239 879.641,182.694 878.15,189.226 C877.724,191.214 876.73,192.137 875.31,192.137 C874.245,192.137 873.038,191.498 871.76,190.078 C869.133,187.38 866.577,183.333 864.092,177.795 C861.678,172.683 860.045,167.997 859.193,163.737 C857.56,169.772 856.424,175.452 855.785,180.777 C855.217,185.392 854.862,190.362 854.72,195.616 C854.578,198.456 853.726,199.876 852.022,199.876 C850.602,199.876 849.466,198.456 848.685,195.616 C848.117,193.486 847.904,191.001 847.904,188.303 C847.904,186.883 848.188,183.546 848.756,178.221 C849.182,174.245 849.466,171.05 849.466,168.494 C849.466,167.997 849.395,167.287 849.395,166.293 C849.324,165.441 849.324,164.731 849.324,164.163 C849.324,162.317 850.247,161.323 852.164,161.323 C852.732,161.323 853.371,161.536 854.081,161.962 C855.075,159.051 856.14,156.495 857.205,154.223 C857.702,153.158 858.625,152.59 859.974,152.59 C861.394,152.59 862.317,153.442 862.743,155.075 C865.867,168.068 869.559,177.511 873.89,183.404 C876.73,173.251 880.067,164.802 883.901,157.986 C884.398,157.063 885.179,156.566 886.315,156.566 C887.593,156.566 888.516,157.347 889.013,158.838 C890.433,163.098 891.498,168.636 892.35,175.594 C893.202,182.836 893.912,187.735 894.338,190.22 C895.403,196.184 896.681,200.515 898.243,203.071 C899.237,203.497 900.089,204.491 900.728,205.982 C901.296,207.473 901.651,208.325 901.651,208.467 Z M937.364,192.421 C937.364,193.415 936.796,194.764 935.66,196.397 C932.465,201.367 927.708,203.781 921.46,203.781 C916.49,203.781 912.514,202.148 909.674,198.811 C906.692,195.545 905.272,191.285 905.272,186.031 C905.272,183.333 906.195,179.499 908.183,174.6 C909.887,170.127 911.875,166.293 914.005,163.098 C911.52,164.376 910.1,164.944 909.816,164.944 C907.828,164.944 906.905,163.95 906.905,161.962 C906.905,160.613 908.396,159.193 911.449,157.702 C918.691,154.152 925.223,152.377 931.045,152.377 C932.891,152.377 934.524,152.803 935.944,153.655 C936.867,154.223 937.364,155.146 937.364,156.424 C937.364,158.128 936.37,158.98 934.453,158.98 C934.098,158.98 933.601,158.909 932.891,158.625 C932.181,158.483 931.613,158.341 931.258,158.341 C927.921,158.341 923.874,159.122 919.117,160.684 C919.614,161.962 919.898,162.814 919.898,163.311 C919.898,163.879 919.614,164.66 919.117,165.583 C916.632,170.056 914.573,174.174 913.011,177.866 C918.691,176.304 923.661,175.097 927.921,174.245 C931.258,173.606 933.459,173.251 934.524,173.251 C936.37,173.251 937.364,174.245 937.364,176.233 C937.364,177.653 936.512,178.931 934.808,180.067 C933.104,181.345 931.897,181.913 931.329,181.913 C930.122,181.913 929.057,181.416 928.205,180.422 C920.75,182.055 914.999,183.475 911.023,184.611 C910.881,185.321 910.881,186.031 910.881,186.741 C910.881,190.149 911.804,192.847 913.721,194.835 C915.709,196.894 918.265,197.888 921.531,197.888 C923.874,197.888 925.791,197.391 927.353,196.326 C928.631,195.474 929.98,193.983 931.542,191.782 C932.394,190.362 933.459,189.652 934.666,189.652 C935.234,189.652 935.873,190.007 936.512,190.575 C937.08,191.214 937.364,191.853 937.364,192.421 Z M999.134,159.903 C999.134,162.175 998.14,166.151 996.152,171.973 C994.874,175.665 992.957,180.706 990.401,187.096 C987.561,194.125 985.857,198.385 985.36,199.805 C984.65,201.651 983.585,202.503 982.023,202.503 C980.603,202.503 979.467,201.722 978.544,200.089 L969.03,184.327 C966.9,187.877 963.776,192.847 959.729,199.308 C958.309,201.509 957.102,202.574 956.108,202.574 C955.043,202.574 954.191,202.077 953.623,200.941 C948.866,193.202 946.523,183.333 946.523,171.405 C946.523,169.275 946.665,164.944 947.02,158.554 C945.458,157.986 944.677,157.063 944.677,155.643 C944.677,151.525 945.387,148.117 946.949,145.348 C947.446,144.354 948.227,143.857 949.221,143.857 C950.641,143.857 951.635,144.922 952.132,146.91 C952.416,148.33 952.629,150.886 952.629,154.507 C952.629,155.927 952.558,159.051 952.416,163.879 C952.203,168.778 952.132,171.831 952.132,173.038 C952.132,176.872 952.558,180.99 953.481,185.25 C954.333,189.723 955.398,192.563 956.676,193.841 C957.812,192.563 960.51,188.232 964.912,180.706 C967.042,177.156 968.604,175.381 969.74,175.381 C970.308,175.381 971.231,176.588 972.58,179.002 C974.639,182.623 977.621,187.735 981.597,194.338 C983.088,190.646 985.289,185.179 988.271,177.866 C990.259,172.825 992.105,166.932 993.809,160.187 C994.306,158.057 995.3,156.921 996.72,156.921 C998.282,156.921 999.134,157.915 999.134,159.903 Z M1044.787,153.229 L1044.219,156.779 C1041.45,173.251 1040.101,187.309 1040.101,198.882 C1040.101,199.592 1040.101,200.586 1040.172,201.935 C1040.172,203.284 1040.243,204.065 1040.243,204.349 C1040.243,205.13 1039.959,205.84 1039.391,206.479 C1038.823,207.047 1038.113,207.331 1037.403,207.331 C1035.202,207.331 1034.137,205.343 1034.137,201.509 C1034.137,196.042 1034.563,188.161 1035.557,177.795 C1029.735,179.215 1023.345,180.28 1016.245,180.848 C1015.819,186.457 1015.393,193.912 1014.967,203.284 C1014.896,204.278 1014.612,205.201 1014.044,205.982 C1013.405,206.692 1012.695,207.118 1011.914,207.118 C1011.133,207.118 1010.494,206.763 1009.997,206.053 C1009.429,205.343 1009.216,204.633 1009.216,203.781 C1009.216,198.101 1009.571,190.504 1010.423,180.99 C1010.139,180.99 1009.642,181.061 1009.074,181.061 L1007.583,181.061 C1004.317,181.061 1002.755,180.067 1002.755,177.937 C1002.755,177.227 1002.968,176.588 1003.465,175.949 C1003.891,175.381 1004.459,175.026 1005.169,175.026 C1005.382,175.026 1006.234,175.097 1007.725,175.168 C1009.216,175.31 1010.281,175.381 1010.849,175.381 C1011.914,165.299 1013.689,156.85 1016.103,150.034 C1016.671,148.188 1017.097,147.123 1017.31,146.768 C1017.949,145.561 1018.801,144.922 1019.937,144.922 C1021.783,144.922 1022.777,145.916 1022.777,147.833 C1022.777,148.33 1022.138,150.46 1020.931,154.152 C1020.505,155.217 1019.937,157.347 1019.227,160.613 C1018.091,165.157 1017.239,169.985 1016.671,175.026 C1024.197,174.6 1030.729,173.464 1036.267,171.476 C1036.977,165.512 1037.687,160.826 1038.397,157.418 C1038.539,156.282 1038.894,154.649 1039.391,152.519 C1039.746,151.028 1040.598,150.247 1041.947,150.247 C1042.657,150.247 1043.367,150.602 1043.935,151.17 C1044.503,151.809 1044.787,152.519 1044.787,153.229 Z M1084.192,192.421 C1084.192,193.415 1083.624,194.764 1082.488,196.397 C1079.293,201.367 1074.536,203.781 1068.288,203.781 C1063.318,203.781 1059.342,202.148 1056.502,198.811 C1053.52,195.545 1052.1,191.285 1052.1,186.031 C1052.1,183.333 1053.023,179.499 1055.011,174.6 C1056.715,170.127 1058.703,166.293 1060.833,163.098 C1058.348,164.376 1056.928,164.944 1056.644,164.944 C1054.656,164.944 1053.733,163.95 1053.733,161.962 C1053.733,160.613 1055.224,159.193 1058.277,157.702 C1065.519,154.152 1072.051,152.377 1077.873,152.377 C1079.719,152.377 1081.352,152.803 1082.772,153.655 C1083.695,154.223 1084.192,155.146 1084.192,156.424 C1084.192,158.128 1083.198,158.98 1081.281,158.98 C1080.926,158.98 1080.429,158.909 1079.719,158.625 C1079.009,158.483 1078.441,158.341 1078.086,158.341 C1074.749,158.341 1070.702,159.122 1065.945,160.684 C1066.442,161.962 1066.726,162.814 1066.726,163.311 C1066.726,163.879 1066.442,164.66 1065.945,165.583 C1063.46,170.056 1061.401,174.174 1059.839,177.866 C1065.519,176.304 1070.489,175.097 1074.749,174.245 C1078.086,173.606 1080.287,173.251 1081.352,173.251 C1083.198,173.251 1084.192,174.245 1084.192,176.233 C1084.192,177.653 1083.34,178.931 1081.636,180.067 C1079.932,181.345 1078.725,181.913 1078.157,181.913 C1076.95,181.913 1075.885,181.416 1075.033,180.422 C1067.578,182.055 1061.827,183.475 1057.851,184.611 C1057.709,185.321 1057.709,186.031 1057.709,186.741 C1057.709,190.149 1058.632,192.847 1060.549,194.835 C1062.537,196.894 1065.093,197.888 1068.359,197.888 C1070.702,197.888 1072.619,197.391 1074.181,196.326 C1075.459,195.474 1076.808,193.983 1078.37,191.782 C1079.222,190.362 1080.287,189.652 1081.494,189.652 C1082.062,189.652 1082.701,190.007 1083.34,190.575 C1083.908,191.214 1084.192,191.853 1084.192,192.421 Z M1124.804,163.666 C1124.804,172.257 1117.846,179.712 1104.072,186.102 C1108.332,188.232 1111.74,190.149 1114.225,191.995 C1119.55,195.971 1122.248,199.592 1122.248,202.929 C1122.248,204.917 1121.396,205.982 1119.692,205.982 C1117.775,205.982 1116.781,204.917 1116.781,202.787 C1115.787,200.799 1113.16,198.385 1108.9,195.616 C1105.279,193.344 1102.155,191.711 1099.457,190.717 C1099.457,194.977 1099.812,198.811 1100.38,202.219 C1100.38,204.278 1099.528,205.343 1097.824,205.343 C1096.333,205.343 1095.481,204.562 1095.268,203.142 C1094.558,199.095 1094.203,195.19 1094.203,191.356 L1094.203,188.161 C1091.931,188.161 1090.795,187.238 1090.795,185.321 C1090.795,183.333 1092.002,182.268 1094.487,182.055 C1094.771,178.86 1095.197,173.961 1095.836,167.287 C1094.203,166.861 1093.28,165.796 1093.138,164.021 C1093.28,162.601 1093.919,161.323 1095.055,160.258 C1097.54,157.489 1100.38,155.288 1103.646,153.584 C1106.841,151.951 1109.894,151.099 1112.805,151.099 C1116.071,151.099 1118.911,152.306 1121.254,154.649 C1123.597,157.063 1124.804,160.116 1124.804,163.666 Z M1119.621,163.453 C1119.621,161.607 1118.982,160.045 1117.704,158.909 C1116.497,157.986 1115.077,157.489 1113.515,157.489 C1109.468,157.489 1105.421,159.051 1101.303,162.104 C1101.161,164.518 1100.877,168.281 1100.38,173.393 C1100.238,174.884 1099.954,177.511 1099.599,181.274 C1104.285,179.854 1108.687,177.44 1112.876,174.032 C1117.349,170.269 1119.621,166.719 1119.621,163.453 Z M1163.428,192.421 C1163.428,193.415 1162.86,194.764 1161.724,196.397 C1158.529,201.367 1153.772,203.781 1147.524,203.781 C1142.554,203.781 1138.578,202.148 1135.738,198.811 C1132.756,195.545 1131.336,191.285 1131.336,186.031 C1131.336,183.333 1132.259,179.499 1134.247,174.6 C1135.951,170.127 1137.939,166.293 1140.069,163.098 C1137.584,164.376 1136.164,164.944 1135.88,164.944 C1133.892,164.944 1132.969,163.95 1132.969,161.962 C1132.969,160.613 1134.46,159.193 1137.513,157.702 C1144.755,154.152 1151.287,152.377 1157.109,152.377 C1158.955,152.377 1160.588,152.803 1162.008,153.655 C1162.931,154.223 1163.428,155.146 1163.428,156.424 C1163.428,158.128 1162.434,158.98 1160.517,158.98 C1160.162,158.98 1159.665,158.909 1158.955,158.625 C1158.245,158.483 1157.677,158.341 1157.322,158.341 C1153.985,158.341 1149.938,159.122 1145.181,160.684 C1145.678,161.962 1145.962,162.814 1145.962,163.311 C1145.962,163.879 1145.678,164.66 1145.181,165.583 C1142.696,170.056 1140.637,174.174 1139.075,177.866 C1144.755,176.304 1149.725,175.097 1153.985,174.245 C1157.322,173.606 1159.523,173.251 1160.588,173.251 C1162.434,173.251 1163.428,174.245 1163.428,176.233 C1163.428,177.653 1162.576,178.931 1160.872,180.067 C1159.168,181.345 1157.961,181.913 1157.393,181.913 C1156.186,181.913 1155.121,181.416 1154.269,180.422 C1146.814,182.055 1141.063,183.475 1137.087,184.611 C1136.945,185.321 1136.945,186.031 1136.945,186.741 C1136.945,190.149 1137.868,192.847 1139.785,194.835 C1141.773,196.894 1144.329,197.888 1147.595,197.888 C1149.938,197.888 1151.855,197.391 1153.417,196.326 C1154.695,195.474 1156.044,193.983 1157.606,191.782 C1158.458,190.362 1159.523,189.652 1160.73,189.652 C1161.298,189.652 1161.937,190.007 1162.576,190.575 C1163.144,191.214 1163.428,191.853 1163.428,192.421 Z" id="SOMEWHERE" fill="#3E2E22" fill-rule="nonzero"></path>
        <g id="Pen-" transform="translate(1317.500000, 144.500000) scale(1, -1) rotate(-30.000000) translate(-1317.500000, -144.500000) translate(1273.000000, 70.000000)" stroke="#3E2E22" stroke-width="2">
            <circle id="Oval" fill="#3E2E22" cx="44.4378222" cy="5.95448267" r="5"></circle>
            <path d="M45.0249907,12.1582981 L45.0249907,49.6436948" id="Line-13" stroke-linecap="square"></path>
            <path d="M27.9737206,124.877876 L60.8929844,124.877876" id="Line-12" stroke-linecap="square"></path>
            <path d="M87.3398452,101.477107 L47.6224869,13.3640833 C47.3217472,12.6968918 46.7874972,12.1626417 46.1203056,11.861902 C44.6098115,11.1810397 42.8333661,11.8535892 42.1525038,13.3640833 L2.43514558,101.477107 L17.0484612,101.477107 C23.1235934,101.477107 28.0484612,106.401975 28.0484612,112.477107 L28.0484612,131.723721 L61.7265296,131.723721 L61.7265296,112.477107 C61.7265296,106.401975 66.6513973,101.477107 72.7265296,101.477107 L87.3398452,101.477107 Z" id="Combined-Shape"></path>
            <rect id="Rectangle" x="23.808657" y="131.587169" width="42" height="16"></rect>
        </g>
    </g>
</svg>